<ttFont>
<head>
    <!-- Most of this table will be recalculated by the compiler -->
    <tableVersion value="1.0"/>
    <fontRevision value="1.00299"/>
    <checkSumAdjustment value="0xf388254d"/>
    <magicNumber value="0x5f0f3cf5"/>
    <flags value="00000000 00000111"/>
    <unitsPerEm value="1000"/>
    <created value="Mon Jan 13 10:27:34 2014"/>
    <modified value="Mon Sep  3 11:56:20 2018"/>
    <xMin value="-79"/>
    <yMin value="-179"/>
    <xMax value="831"/>
    <yMax value="887"/>
    <macStyle value="00000000 00000000"/>
    <lowestRecPPEM value="7"/>
    <fontDirectionHint value="2"/>
    <indexToLocFormat value="0"/>
    <glyphDataFormat value="0"/>
  </head>
    <TTGlyph name=".notdef" xMin="50" yMin="0" xMax="498" yMax="700">
      <contour>
        <pt x="498" y="700" on="1"/>
        <pt x="498" y="0" on="1"/>
        <pt x="50" y="0" on="1"/>
        <pt x="50" y="700" on="1"/>
      </contour>
      <contour>
        <pt x="122" y="77" on="1"/>
        <pt x="177" y="77" on="1"/>
        <pt x="269" y="313" on="1"/>
        <pt x="361" y="77" on="1"/>
        <pt x="423" y="77" on="1"/>
        <pt x="313" y="358" on="1"/>
        <pt x="416" y="622" on="1"/>
        <pt x="361" y="622" on="1"/>
        <pt x="275" y="404" on="1"/>
        <pt x="190" y="622" on="1"/>
        <pt x="129" y="622" on="1"/>
        <pt x="232" y="358" on="1"/>
      </contour>
    </TTGlyph>
    <TTGlyph name="A" xMin="20" yMin="0" xMax="401" yMax="700">
      <contour>
        <pt x="92" y="0" on="1"/>
        <pt x="20" y="0" on="1"/>
        <pt x="154" y="700" on="1"/>
        <pt x="267" y="700" on="1"/>
        <pt x="401" y="0" on="1"/>
        <pt x="323" y="0" on="1"/>
        <pt x="296" y="141" on="1"/>
        <pt x="119" y="141" on="1"/>
      </contour>
      <contour>
        <pt x="285" y="208" on="1"/>
        <pt x="206" y="612" on="1"/>
        <pt x="129" y="208" on="1"/>
      </contour>
    </TTGlyph>
    <TTGlyph name="AE" xMin="16" yMin="0" xMax="553" yMax="700">
      <contour>
        <pt x="516" y="320" on="1"/>
        <pt x="355" y="320" on="1"/>
        <pt x="355" y="71" on="1"/>
        <pt x="553" y="71" on="1"/>
        <pt x="553" y="0" on="1"/>
        <pt x="278" y="0" on="1"/>
        <pt x="278" y="142" on="1"/>
        <pt x="135" y="142" on="1"/>
        <pt x="90" y="0" on="1"/>
        <pt x="16" y="0" on="1"/>
        <pt x="234" y="700" on="1"/>
        <pt x="553" y="700" on="1"/>
        <pt x="553" y="629" on="1"/>
        <pt x="355" y="629" on="1"/>
        <pt x="355" y="390" on="1"/>
        <pt x="516" y="390" on="1"/>
      </contour>
      <contour>
        <pt x="278" y="210" on="1"/>
        <pt x="278" y="602" on="1"/>
        <pt x="153" y="210" on="1"/>
      </contour>
    </TTGlyph>
    <TTGlyph name="AEacute" xMin="16" yMin="0" xMax="553" yMax="844">
      <contour>
        <pt x="317" y="741" on="1"/>
        <pt x="263" y="741" on="1"/>
        <pt x="333" y="844" on="1"/>
        <pt x="410" y="844" on="1"/>
      </contour>
      <contour>
        <pt x="516" y="320" on="1"/>
        <pt x="355" y="320" on="1"/>
        <pt x="355" y="71" on="1"/>
        <pt x="553" y="71" on="1"/>
        <pt x="553" y="0" on="1"/>
        <pt x="278" y="0" on="1"/>
        <pt x="278" y="142" on="1"/>
        <pt x="135" y="142" on="1"/>
        <pt x="90" y="0" on="1"/>
        <pt x="16" y="0" on="1"/>
        <pt x="234" y="700" on="1"/>
        <pt x="553" y="700" on="1"/>
        <pt x="553" y="629" on="1"/>
        <pt x="355" y="629" on="1"/>
        <pt x="355" y="390" on="1"/>
        <pt x="516" y="390" on="1"/>
      </contour>
      <contour>
        <pt x="278" y="210" on="1"/>
        <pt x="278" y="602" on="1"/>
        <pt x="153" y="210" on="1"/>
      </contour>
    </TTGlyph>
    <TTGlyph name="Aacute" xMin="20" yMin="0" xMax="401" yMax="840">
      <contour>
        <pt x="213" y="737" on="1"/>
        <pt x="158" y="737" on="1"/>
        <pt x="228" y="840" on="1"/>
        <pt x="305" y="840" on="1"/>
      </contour>
      <contour>
        <pt x="92" y="0" on="1"/>
        <pt x="20" y="0" on="1"/>
        <pt x="154" y="700" on="1"/>
        <pt x="267" y="700" on="1"/>
        <pt x="401" y="0" on="1"/>
        <pt x="323" y="0" on="1"/>
        <pt x="296" y="141" on="1"/>
        <pt x="119" y="141" on="1"/>
      </contour>
      <contour>
        <pt x="285" y="208" on="1"/>
        <pt x="206" y="612" on="1"/>
        <pt x="129" y="208" on="1"/>
      </contour>
    </TTGlyph>
    <TTGlyph name="Abreve" xMin="20" yMin="0" xMax="401" yMax="834">
      <contour>
        <pt x="314" y="787" on="0"/>
        <pt x="258" y="733" on="0"/>
        <pt x="209" y="733" on="1"/>
        <pt x="161" y="733" on="0"/>
        <pt x="107" y="787" on="0"/>
        <pt x="106" y="834" on="1"/>
        <pt x="153" y="834" on="1"/>
        <pt x="156" y="782" on="0"/>
        <pt x="209" y="782" on="1"/>
        <pt x="264" y="782" on="0"/>
        <pt x="267" y="834" on="1"/>
        <pt x="314" y="834" on="1"/>
      </contour>
      <contour>
        <pt x="92" y="0" on="1"/>
        <pt x="20" y="0" on="1"/>
        <pt x="154" y="700" on="1"/>
        <pt x="267" y="700" on="1"/>
        <pt x="401" y="0" on="1"/>
        <pt x="323" y="0" on="1"/>
        <pt x="296" y="141" on="1"/>
        <pt x="119" y="141" on="1"/>
      </contour>
      <contour>
        <pt x="285" y="208" on="1"/>
        <pt x="206" y="612" on="1"/>
        <pt x="129" y="208" on="1"/>
      </contour>
    </TTGlyph>
    <TTGlyph name="Acircumflex" xMin="20" yMin="0" xMax="401" yMax="837">
      <contour>
        <pt x="89" y="737" on="1"/>
        <pt x="175" y="837" on="1"/>
        <pt x="245" y="837" on="1"/>
        <pt x="331" y="737" on="1"/>
        <pt x="263" y="737" on="1"/>
        <pt x="210" y="796" on="1"/>
        <pt x="157" y="737" on="1"/>
      </contour>
      <contour>
        <pt x="92" y="0" on="1"/>
        <pt x="20" y="0" on="1"/>
        <pt x="154" y="700" on="1"/>
        <pt x="267" y="700" on="1"/>
        <pt x="401" y="0" on="1"/>
        <pt x="323" y="0" on="1"/>
        <pt x="296" y="141" on="1"/>
        <pt x="119" y="141" on="1"/>
      </contour>
      <contour>
        <pt x="285" y="208" on="1"/>
        <pt x="206" y="612" on="1"/>
        <pt x="129" y="208" on="1"/>
      </contour>
    </TTGlyph>
    <TTGlyph name="Adieresis" xMin="20" yMin="0" xMax="401" yMax="827">
      <contour>
        <pt x="182" y="737" on="1"/>
        <pt x="114" y="737" on="1"/>
        <pt x="114" y="827" on="1"/>
        <pt x="182" y="827" on="1"/>
      </contour>
      <contour>
        <pt x="306" y="737" on="1"/>
        <pt x="238" y="737" on="1"/>
        <pt x="238" y="827" on="1"/>
        <pt x="306" y="827" on="1"/>
      </contour>
      <contour>
        <pt x="92" y="0" on="1"/>
        <pt x="20" y="0" on="1"/>
        <pt x="154" y="700" on="1"/>
        <pt x="267" y="700" on="1"/>
        <pt x="401" y="0" on="1"/>
        <pt x="323" y="0" on="1"/>
        <pt x="296" y="141" on="1"/>
        <pt x="119" y="141" on="1"/>
      </contour>
      <contour>
        <pt x="285" y="208" on="1"/>
        <pt x="206" y="612" on="1"/>
        <pt x="129" y="208" on="1"/>
      </contour>
    </TTGlyph>
    <TTGlyph name="Agrave" xMin="20" yMin="0" xMax="401" yMax="840">
      <contour>
        <pt x="260" y="737" on="1"/>
        <pt x="203" y="737" on="1"/>
        <pt x="110" y="840" on="1"/>
        <pt x="190" y="840" on="1"/>
      </contour>
      <contour>
        <pt x="92" y="0" on="1"/>
        <pt x="20" y="0" on="1"/>
        <pt x="154" y="700" on="1"/>
        <pt x="267" y="700" on="1"/>
        <pt x="401" y="0" on="1"/>
        <pt x="323" y="0" on="1"/>
        <pt x="296" y="141" on="1"/>
        <pt x="119" y="141" on="1"/>
      </contour>
      <contour>
        <pt x="285" y="208" on="1"/>
        <pt x="206" y="612" on="1"/>
        <pt x="129" y="208" on="1"/>
      </contour>
    </TTGlyph>
    <TTGlyph name="Amacron" xMin="20" yMin="0" xMax="401" yMax="806">
      <contour>
        <pt x="316" y="750" on="1"/>
        <pt x="104" y="750" on="1"/>
        <pt x="104" y="806" on="1"/>
        <pt x="316" y="806" on="1"/>
      </contour>
      <contour>
        <pt x="92" y="0" on="1"/>
        <pt x="20" y="0" on="1"/>
        <pt x="154" y="700" on="1"/>
        <pt x="267" y="700" on="1"/>
        <pt x="401" y="0" on="1"/>
        <pt x="323" y="0" on="1"/>
        <pt x="296" y="141" on="1"/>
        <pt x="119" y="141" on="1"/>
      </contour>
      <contour>
        <pt x="285" y="208" on="1"/>
        <pt x="206" y="612" on="1"/>
        <pt x="129" y="208" on="1"/>
      </contour>
    </TTGlyph>
    <TTGlyph name="Aogonek" xMin="20" yMin="-143" xMax="414" yMax="700">
      <contour>
        <pt x="357" y="-14" on="0"/>
        <pt x="337" y="-52" on="0"/>
        <pt x="337" y="-67" on="1"/>
        <pt x="337" y="-83" on="0"/>
        <pt x="358" y="-99" on="0"/>
        <pt x="374" y="-99" on="1"/>
        <pt x="394" y="-99" on="0"/>
        <pt x="414" y="-90" on="1"/>
        <pt x="414" y="-131" on="1"/>
        <pt x="387" y="-143" on="0"/>
        <pt x="352" y="-143" on="1"/>
        <pt x="317" y="-143" on="0"/>
        <pt x="277" y="-114" on="0"/>
        <pt x="277" y="-85" on="1"/>
        <pt x="277" y="-64" on="0"/>
        <pt x="302" y="-23" on="0"/>
        <pt x="325" y="-7" on="1"/>
        <pt x="296" y="141" on="1"/>
        <pt x="119" y="141" on="1"/>
        <pt x="92" y="0" on="1"/>
        <pt x="20" y="0" on="1"/>
        <pt x="154" y="700" on="1"/>
        <pt x="267" y="700" on="1"/>
        <pt x="401" y="0" on="1"/>
        <pt x="373" y="0" on="1"/>
      </contour>
      <contour>
        <pt x="285" y="208" on="1"/>
        <pt x="206" y="612" on="1"/>
        <pt x="129" y="208" on="1"/>
      </contour>
    </TTGlyph>
    <TTGlyph name="Aring" xMin="20" yMin="0" xMax="401" yMax="883">
      <contour>
        <pt x="241" y="883" on="0"/>
        <pt x="283" y="841" on="0"/>
        <pt x="283" y="810" on="1"/>
        <pt x="283" y="779" on="0"/>
        <pt x="241" y="737" on="0"/>
        <pt x="210" y="737" on="1"/>
        <pt x="178" y="737" on="0"/>
        <pt x="136" y="779" on="0"/>
        <pt x="136" y="810" on="1"/>
        <pt x="136" y="841" on="0"/>
        <pt x="179" y="883" on="0"/>
        <pt x="210" y="883" on="1"/>
      </contour>
      <contour>
        <pt x="194" y="846" on="0"/>
        <pt x="173" y="825" on="0"/>
        <pt x="173" y="810" on="1"/>
        <pt x="173" y="794" on="0"/>
        <pt x="194" y="774" on="0"/>
        <pt x="210" y="774" on="1"/>
        <pt x="225" y="774" on="0"/>
        <pt x="246" y="794" on="0"/>
        <pt x="246" y="810" on="1"/>
        <pt x="246" y="825" on="0"/>
        <pt x="225" y="846" on="0"/>
        <pt x="210" y="846" on="1"/>
      </contour>
      <contour>
        <pt x="92" y="0" on="1"/>
        <pt x="20" y="0" on="1"/>
        <pt x="154" y="700" on="1"/>
        <pt x="267" y="700" on="1"/>
        <pt x="401" y="0" on="1"/>
        <pt x="323" y="0" on="1"/>
        <pt x="296" y="141" on="1"/>
        <pt x="119" y="141" on="1"/>
      </contour>
      <contour>
        <pt x="285" y="208" on="1"/>
        <pt x="206" y="612" on="1"/>
        <pt x="129" y="208" on="1"/>
      </contour>
    </TTGlyph>
    <TTGlyph name="Atilde" xMin="20" yMin="0" xMax="401" yMax="826">
      <contour>
        <pt x="176" y="826" on="0"/>
        <pt x="198" y="818" on="0"/>
        <pt x="214" y="809" on="1"/>
        <pt x="238" y="796" on="0"/>
        <pt x="253" y="796" on="1"/>
        <pt x="279" y="798" on="0"/>
        <pt x="293" y="826" on="1"/>
        <pt x="332" y="799" on="1"/>
        <pt x="309" y="742" on="0"/>
        <pt x="259" y="742" on="1"/>
        <pt x="245" y="742" on="0"/>
        <pt x="223" y="750" on="0"/>
        <pt x="208" y="758" on="1"/>
        <pt x="184" y="771" on="0"/>
        <pt x="169" y="771" on="1"/>
        <pt x="155" y="771" on="0"/>
        <pt x="135" y="758" on="0"/>
        <pt x="127" y="741" on="1"/>
        <pt x="88" y="768" on="1"/>
        <pt x="110" y="824" on="0"/>
        <pt x="161" y="826" on="1"/>
      </contour>
      <contour>
        <pt x="92" y="0" on="1"/>
        <pt x="20" y="0" on="1"/>
        <pt x="154" y="700" on="1"/>
        <pt x="267" y="700" on="1"/>
        <pt x="401" y="0" on="1"/>
        <pt x="323" y="0" on="1"/>
        <pt x="296" y="141" on="1"/>
        <pt x="119" y="141" on="1"/>
      </contour>
      <contour>
        <pt x="285" y="208" on="1"/>
        <pt x="206" y="612" on="1"/>
        <pt x="129" y="208" on="1"/>
      </contour>
    </TTGlyph>
    <TTGlyph name="B" xMin="40" yMin="0" xMax="361" yMax="700">
      <contour>
        <pt x="277" y="700" on="0"/>
        <pt x="349" y="624" on="0"/>
        <pt x="349" y="545" on="1"/>
        <pt x="349" y="512" on="1"/>
        <pt x="349" y="454" on="0"/>
        <pt x="311" y="387" on="0"/>
        <pt x="267" y="373" on="1"/>
        <pt x="361" y="347" on="0"/>
        <pt x="361" y="223" on="1"/>
        <pt x="361" y="164" on="1"/>
        <pt x="361" y="84" on="0"/>
        <pt x="282" y="0" on="0"/>
        <pt x="201" y="0" on="1"/>
        <pt x="40" y="0" on="1"/>
        <pt x="40" y="700" on="1"/>
        <pt x="197" y="700" on="1"/>
      </contour>
      <contour>
        <pt x="227" y="403" on="0"/>
        <pt x="272" y="443" on="0"/>
        <pt x="272" y="496" on="1"/>
        <pt x="272" y="537" on="1"/>
        <pt x="272" y="584" on="0"/>
        <pt x="236" y="629" on="0"/>
        <pt x="195" y="629" on="1"/>
        <pt x="118" y="629" on="1"/>
        <pt x="118" y="403" on="1"/>
        <pt x="178" y="403" on="1"/>
      </contour>
      <contour>
        <pt x="244" y="71" on="0"/>
        <pt x="284" y="117" on="0"/>
        <pt x="284" y="166" on="1"/>
        <pt x="284" y="228" on="1"/>
        <pt x="284" y="285" on="0"/>
        <pt x="238" y="332" on="0"/>
        <pt x="186" y="332" on="1"/>
        <pt x="118" y="332" on="1"/>
        <pt x="118" y="71" on="1"/>
        <pt x="201" y="71" on="1"/>
      </contour>
    </TTGlyph>
    <TTGlyph name="C" xMin="34" yMin="-7" xMax="349" yMax="707">
      <contour>
        <pt x="270" y="707" on="0"/>
        <pt x="349" y="613" on="0"/>
        <pt x="349" y="531" on="1"/>
        <pt x="349" y="468" on="1"/>
        <pt x="275" y="468" on="1"/>
        <pt x="275" y="535" on="1"/>
        <pt x="275" y="636" on="0"/>
        <pt x="193" y="636" on="1"/>
        <pt x="152" y="636" on="0"/>
        <pt x="111" y="583" on="0"/>
        <pt x="111" y="535" on="1"/>
        <pt x="111" y="165" on="1"/>
        <pt x="111" y="117" on="0"/>
        <pt x="152" y="64" on="0"/>
        <pt x="193" y="64" on="1"/>
        <pt x="275" y="64" on="0"/>
        <pt x="275" y="165" on="1"/>
        <pt x="275" y="256" on="1"/>
        <pt x="349" y="256" on="1"/>
        <pt x="349" y="169" on="1"/>
        <pt x="349" y="87" on="0"/>
        <pt x="270" y="-7" on="0"/>
        <pt x="191" y="-7" on="1"/>
        <pt x="113" y="-7" on="0"/>
        <pt x="34" y="87" on="0"/>
        <pt x="34" y="169" on="1"/>
        <pt x="34" y="531" on="1"/>
        <pt x="34" y="613" on="0"/>
        <pt x="113" y="707" on="0"/>
        <pt x="191" y="707" on="1"/>
      </contour>
    </TTGlyph>
    <TTGlyph name="Cacute" xMin="34" yMin="-7" xMax="349" yMax="845">
      <contour>
        <pt x="200" y="742" on="1"/>
        <pt x="145" y="742" on="1"/>
        <pt x="215" y="845" on="1"/>
        <pt x="293" y="845" on="1"/>
      </contour>
      <contour>
        <pt x="270" y="707" on="0"/>
        <pt x="349" y="613" on="0"/>
        <pt x="349" y="531" on="1"/>
        <pt x="349" y="468" on="1"/>
        <pt x="275" y="468" on="1"/>
        <pt x="275" y="535" on="1"/>
        <pt x="275" y="636" on="0"/>
        <pt x="193" y="636" on="1"/>
        <pt x="152" y="636" on="0"/>
        <pt x="111" y="583" on="0"/>
        <pt x="111" y="535" on="1"/>
        <pt x="111" y="165" on="1"/>
        <pt x="111" y="117" on="0"/>
        <pt x="152" y="64" on="0"/>
        <pt x="193" y="64" on="1"/>
        <pt x="275" y="64" on="0"/>
        <pt x="275" y="165" on="1"/>
        <pt x="275" y="256" on="1"/>
        <pt x="349" y="256" on="1"/>
        <pt x="349" y="169" on="1"/>
        <pt x="349" y="87" on="0"/>
        <pt x="270" y="-7" on="0"/>
        <pt x="191" y="-7" on="1"/>
        <pt x="113" y="-7" on="0"/>
        <pt x="34" y="87" on="0"/>
        <pt x="34" y="169" on="1"/>
        <pt x="34" y="531" on="1"/>
        <pt x="34" y="613" on="0"/>
        <pt x="113" y="707" on="0"/>
        <pt x="191" y="707" on="1"/>
      </contour>
    </TTGlyph>
    <TTGlyph name="Ccaron" xMin="34" yMin="-7" xMax="349" yMax="841">
      <contour>
        <pt x="193" y="781" on="1"/>
        <pt x="246" y="841" on="1"/>
        <pt x="315" y="841" on="1"/>
        <pt x="228" y="741" on="1"/>
        <pt x="159" y="741" on="1"/>
        <pt x="73" y="841" on="1"/>
        <pt x="141" y="841" on="1"/>
      </contour>
      <contour>
        <pt x="270" y="707" on="0"/>
        <pt x="349" y="613" on="0"/>
        <pt x="349" y="531" on="1"/>
        <pt x="349" y="468" on="1"/>
        <pt x="275" y="468" on="1"/>
        <pt x="275" y="535" on="1"/>
        <pt x="275" y="636" on="0"/>
        <pt x="193" y="636" on="1"/>
        <pt x="152" y="636" on="0"/>
        <pt x="111" y="583" on="0"/>
        <pt x="111" y="535" on="1"/>
        <pt x="111" y="165" on="1"/>
        <pt x="111" y="117" on="0"/>
        <pt x="152" y="64" on="0"/>
        <pt x="193" y="64" on="1"/>
        <pt x="275" y="64" on="0"/>
        <pt x="275" y="165" on="1"/>
        <pt x="275" y="256" on="1"/>
        <pt x="349" y="256" on="1"/>
        <pt x="349" y="169" on="1"/>
        <pt x="349" y="87" on="0"/>
        <pt x="270" y="-7" on="0"/>
        <pt x="191" y="-7" on="1"/>
        <pt x="113" y="-7" on="0"/>
        <pt x="34" y="87" on="0"/>
        <pt x="34" y="169" on="1"/>
        <pt x="34" y="531" on="1"/>
        <pt x="34" y="613" on="0"/>
        <pt x="113" y="707" on="0"/>
        <pt x="191" y="707" on="1"/>
      </contour>
    </TTGlyph>
    <TTGlyph name="Ccedilla" xMin="34" yMin="-152" xMax="349" yMax="707">
      <contour>
        <pt x="270" y="707" on="0"/>
        <pt x="349" y="613" on="0"/>
        <pt x="349" y="531" on="1"/>
        <pt x="349" y="468" on="1"/>
        <pt x="275" y="468" on="1"/>
        <pt x="275" y="535" on="1"/>
        <pt x="275" y="636" on="0"/>
        <pt x="193" y="636" on="1"/>
        <pt x="152" y="636" on="0"/>
        <pt x="111" y="583" on="0"/>
        <pt x="111" y="535" on="1"/>
        <pt x="111" y="165" on="1"/>
        <pt x="111" y="117" on="0"/>
        <pt x="152" y="64" on="0"/>
        <pt x="193" y="64" on="1"/>
        <pt x="275" y="64" on="0"/>
        <pt x="275" y="165" on="1"/>
        <pt x="275" y="256" on="1"/>
        <pt x="349" y="256" on="1"/>
        <pt x="349" y="169" on="1"/>
        <pt x="349" y="92" on="0"/>
        <pt x="278" y="-2" on="0"/>
        <pt x="208" y="-6" on="1"/>
        <pt x="208" y="-37" on="1"/>
        <pt x="243" y="-37" on="0"/>
        <pt x="282" y="-64" on="0"/>
        <pt x="282" y="-88" on="1"/>
        <pt x="282" y="-118" on="0"/>
        <pt x="232" y="-152" on="0"/>
        <pt x="187" y="-152" on="1"/>
        <pt x="144" y="-152" on="0"/>
        <pt x="95" y="-119" on="0"/>
        <pt x="95" y="-90" on="1"/>
        <pt x="95" y="-82" on="1"/>
        <pt x="146" y="-82" on="1"/>
        <pt x="146" y="-89" on="1"/>
        <pt x="146" y="-101" on="0"/>
        <pt x="168" y="-117" on="0"/>
        <pt x="187" y="-118" on="1"/>
        <pt x="207" y="-118" on="0"/>
        <pt x="230" y="-101" on="0"/>
        <pt x="230" y="-86" on="1"/>
        <pt x="230" y="-72" on="0"/>
        <pt x="204" y="-56" on="0"/>
        <pt x="181" y="-56" on="1"/>
        <pt x="172" y="-56" on="1"/>
        <pt x="172" y="-6" on="1"/>
        <pt x="103" y="-1" on="0"/>
        <pt x="34" y="92" on="0"/>
        <pt x="34" y="169" on="1"/>
        <pt x="34" y="531" on="1"/>
        <pt x="34" y="613" on="0"/>
        <pt x="113" y="707" on="0"/>
        <pt x="191" y="707" on="1"/>
      </contour>
    </TTGlyph>
    <TTGlyph name="Ccircumflex" xMin="34" yMin="-7" xMax="349" yMax="841">
      <contour>
        <pt x="72" y="740" on="1"/>
        <pt x="158" y="841" on="1"/>
        <pt x="227" y="841" on="1"/>
        <pt x="314" y="740" on="1"/>
        <pt x="246" y="740" on="1"/>
        <pt x="193" y="799" on="1"/>
        <pt x="140" y="740" on="1"/>
      </contour>
      <contour>
        <pt x="270" y="707" on="0"/>
        <pt x="349" y="613" on="0"/>
        <pt x="349" y="531" on="1"/>
        <pt x="349" y="468" on="1"/>
        <pt x="275" y="468" on="1"/>
        <pt x="275" y="535" on="1"/>
        <pt x="275" y="636" on="0"/>
        <pt x="193" y="636" on="1"/>
        <pt x="152" y="636" on="0"/>
        <pt x="111" y="583" on="0"/>
        <pt x="111" y="535" on="1"/>
        <pt x="111" y="165" on="1"/>
        <pt x="111" y="117" on="0"/>
        <pt x="152" y="64" on="0"/>
        <pt x="193" y="64" on="1"/>
        <pt x="275" y="64" on="0"/>
        <pt x="275" y="165" on="1"/>
        <pt x="275" y="256" on="1"/>
        <pt x="349" y="256" on="1"/>
        <pt x="349" y="169" on="1"/>
        <pt x="349" y="87" on="0"/>
        <pt x="270" y="-7" on="0"/>
        <pt x="191" y="-7" on="1"/>
        <pt x="113" y="-7" on="0"/>
        <pt x="34" y="87" on="0"/>
        <pt x="34" y="169" on="1"/>
        <pt x="34" y="531" on="1"/>
        <pt x="34" y="613" on="0"/>
        <pt x="113" y="707" on="0"/>
        <pt x="191" y="707" on="1"/>
      </contour>
    </TTGlyph>
    <TTGlyph name="Cdotaccent" xMin="34" yMin="-7" xMax="349" yMax="828">
      <contour>
        <pt x="225" y="738" on="1"/>
        <pt x="157" y="738" on="1"/>
        <pt x="157" y="828" on="1"/>
        <pt x="225" y="828" on="1"/>
      </contour>
      <contour>
        <pt x="270" y="707" on="0"/>
        <pt x="349" y="613" on="0"/>
        <pt x="349" y="531" on="1"/>
        <pt x="349" y="468" on="1"/>
        <pt x="275" y="468" on="1"/>
        <pt x="275" y="535" on="1"/>
        <pt x="275" y="636" on="0"/>
        <pt x="193" y="636" on="1"/>
        <pt x="152" y="636" on="0"/>
        <pt x="111" y="583" on="0"/>
        <pt x="111" y="535" on="1"/>
        <pt x="111" y="165" on="1"/>
        <pt x="111" y="117" on="0"/>
        <pt x="152" y="64" on="0"/>
        <pt x="193" y="64" on="1"/>
        <pt x="275" y="64" on="0"/>
        <pt x="275" y="165" on="1"/>
        <pt x="275" y="256" on="1"/>
        <pt x="349" y="256" on="1"/>
        <pt x="349" y="169" on="1"/>
        <pt x="349" y="87" on="0"/>
        <pt x="270" y="-7" on="0"/>
        <pt x="191" y="-7" on="1"/>
        <pt x="113" y="-7" on="0"/>
        <pt x="34" y="87" on="0"/>
        <pt x="34" y="169" on="1"/>
        <pt x="34" y="531" on="1"/>
        <pt x="34" y="613" on="0"/>
        <pt x="113" y="707" on="0"/>
        <pt x="191" y="707" on="1"/>
      </contour>
    </TTGlyph>
    <TTGlyph name="D" xMin="40" yMin="0" xMax="363" yMax="700">
      <contour>
        <pt x="284" y="700" on="0"/>
        <pt x="363" y="609" on="0"/>
        <pt x="363" y="526" on="1"/>
        <pt x="363" y="173" on="1"/>
        <pt x="363" y="91" on="0"/>
        <pt x="284" y="0" on="0"/>
        <pt x="204" y="0" on="1"/>
        <pt x="40" y="0" on="1"/>
        <pt x="40" y="700" on="1"/>
        <pt x="204" y="700" on="1"/>
      </contour>
      <contour>
        <pt x="286" y="71" on="0"/>
        <pt x="286" y="170" on="1"/>
        <pt x="286" y="530" on="1"/>
        <pt x="286" y="629" on="0"/>
        <pt x="202" y="629" on="1"/>
        <pt x="118" y="629" on="1"/>
        <pt x="118" y="71" on="1"/>
        <pt x="203" y="71" on="1"/>
      </contour>
    </TTGlyph>
    <TTGlyph name="Dcaron" xMin="40" yMin="0" xMax="363" yMax="839">
      <contour>
        <pt x="188" y="779" on="1"/>
        <pt x="241" y="839" on="1"/>
        <pt x="310" y="839" on="1"/>
        <pt x="223" y="739" on="1"/>
        <pt x="154" y="739" on="1"/>
        <pt x="67" y="839" on="1"/>
        <pt x="135" y="839" on="1"/>
      </contour>
      <contour>
        <pt x="284" y="700" on="0"/>
        <pt x="363" y="609" on="0"/>
        <pt x="363" y="526" on="1"/>
        <pt x="363" y="173" on="1"/>
        <pt x="363" y="91" on="0"/>
        <pt x="284" y="0" on="0"/>
        <pt x="204" y="0" on="1"/>
        <pt x="40" y="0" on="1"/>
        <pt x="40" y="700" on="1"/>
        <pt x="204" y="700" on="1"/>
      </contour>
      <contour>
        <pt x="286" y="71" on="0"/>
        <pt x="286" y="170" on="1"/>
        <pt x="286" y="530" on="1"/>
        <pt x="286" y="629" on="0"/>
        <pt x="202" y="629" on="1"/>
        <pt x="118" y="629" on="1"/>
        <pt x="118" y="71" on="1"/>
        <pt x="203" y="71" on="1"/>
      </contour>
    </TTGlyph>
    <TTGlyph name="Dcroat" xMin="1" yMin="0" xMax="363" yMax="700">
      <contour>
        <pt x="284" y="700" on="0"/>
        <pt x="363" y="609" on="0"/>
        <pt x="363" y="526" on="1"/>
        <pt x="363" y="173" on="1"/>
        <pt x="363" y="91" on="0"/>
        <pt x="284" y="0" on="0"/>
        <pt x="204" y="0" on="1"/>
        <pt x="40" y="0" on="1"/>
        <pt x="40" y="318" on="1"/>
        <pt x="1" y="318" on="1"/>
        <pt x="1" y="381" on="1"/>
        <pt x="40" y="381" on="1"/>
        <pt x="40" y="700" on="1"/>
        <pt x="204" y="700" on="1"/>
      </contour>
      <contour>
        <pt x="118" y="318" on="1"/>
        <pt x="118" y="71" on="1"/>
        <pt x="203" y="71" on="1"/>
        <pt x="286" y="71" on="0"/>
        <pt x="286" y="170" on="1"/>
        <pt x="286" y="530" on="1"/>
        <pt x="286" y="629" on="0"/>
        <pt x="202" y="629" on="1"/>
        <pt x="118" y="629" on="1"/>
        <pt x="118" y="381" on="1"/>
        <pt x="197" y="381" on="1"/>
        <pt x="197" y="318" on="1"/>
      </contour>
    </TTGlyph>
    <TTGlyph name="E" xMin="40" yMin="0" xMax="328" yMax="700">
      <contour>
        <pt x="289" y="320" on="1"/>
        <pt x="118" y="320" on="1"/>
        <pt x="118" y="71" on="1"/>
        <pt x="328" y="71" on="1"/>
        <pt x="328" y="0" on="1"/>
        <pt x="40" y="0" on="1"/>
        <pt x="40" y="700" on="1"/>
        <pt x="328" y="700" on="1"/>
        <pt x="328" y="629" on="1"/>
        <pt x="118" y="629" on="1"/>
        <pt x="118" y="390" on="1"/>
        <pt x="289" y="390" on="1"/>
      </contour>
    </TTGlyph>
    <TTGlyph name="Eacute" xMin="40" yMin="0" xMax="328" yMax="842">
      <contour>
        <pt x="190" y="739" on="1"/>
        <pt x="136" y="739" on="1"/>
        <pt x="206" y="842" on="1"/>
        <pt x="283" y="842" on="1"/>
      </contour>
      <contour>
        <pt x="289" y="320" on="1"/>
        <pt x="118" y="320" on="1"/>
        <pt x="118" y="71" on="1"/>
        <pt x="328" y="71" on="1"/>
        <pt x="328" y="0" on="1"/>
        <pt x="40" y="0" on="1"/>
        <pt x="40" y="700" on="1"/>
        <pt x="328" y="700" on="1"/>
        <pt x="328" y="629" on="1"/>
        <pt x="118" y="629" on="1"/>
        <pt x="118" y="390" on="1"/>
        <pt x="289" y="390" on="1"/>
      </contour>
    </TTGlyph>
    <TTGlyph name="Ebreve" xMin="40" yMin="0" xMax="328" yMax="840">
      <contour>
        <pt x="286" y="793" on="0"/>
        <pt x="230" y="739" on="0"/>
        <pt x="181" y="739" on="1"/>
        <pt x="133" y="739" on="0"/>
        <pt x="79" y="793" on="0"/>
        <pt x="78" y="840" on="1"/>
        <pt x="125" y="840" on="1"/>
        <pt x="128" y="788" on="0"/>
        <pt x="181" y="788" on="1"/>
        <pt x="236" y="788" on="0"/>
        <pt x="240" y="840" on="1"/>
        <pt x="287" y="840" on="1"/>
      </contour>
      <contour>
        <pt x="289" y="320" on="1"/>
        <pt x="118" y="320" on="1"/>
        <pt x="118" y="71" on="1"/>
        <pt x="328" y="71" on="1"/>
        <pt x="328" y="0" on="1"/>
        <pt x="40" y="0" on="1"/>
        <pt x="40" y="700" on="1"/>
        <pt x="328" y="700" on="1"/>
        <pt x="328" y="629" on="1"/>
        <pt x="118" y="629" on="1"/>
        <pt x="118" y="390" on="1"/>
        <pt x="289" y="390" on="1"/>
      </contour>
    </TTGlyph>
    <TTGlyph name="Ecaron" xMin="40" yMin="0" xMax="328" yMax="839">
      <contour>
        <pt x="183" y="779" on="1"/>
        <pt x="237" y="839" on="1"/>
        <pt x="305" y="839" on="1"/>
        <pt x="218" y="739" on="1"/>
        <pt x="149" y="739" on="1"/>
        <pt x="63" y="839" on="1"/>
        <pt x="131" y="839" on="1"/>
      </contour>
      <contour>
        <pt x="289" y="320" on="1"/>
        <pt x="118" y="320" on="1"/>
        <pt x="118" y="71" on="1"/>
        <pt x="328" y="71" on="1"/>
        <pt x="328" y="0" on="1"/>
        <pt x="40" y="0" on="1"/>
        <pt x="40" y="700" on="1"/>
        <pt x="328" y="700" on="1"/>
        <pt x="328" y="629" on="1"/>
        <pt x="118" y="629" on="1"/>
        <pt x="118" y="390" on="1"/>
        <pt x="289" y="390" on="1"/>
      </contour>
    </TTGlyph>
    <TTGlyph name="Ecircumflex" xMin="40" yMin="0" xMax="328" yMax="840">
      <contour>
        <pt x="62" y="739" on="1"/>
        <pt x="148" y="840" on="1"/>
        <pt x="217" y="840" on="1"/>
        <pt x="304" y="739" on="1"/>
        <pt x="236" y="739" on="1"/>
        <pt x="182" y="799" on="1"/>
        <pt x="130" y="739" on="1"/>
      </contour>
      <contour>
        <pt x="289" y="320" on="1"/>
        <pt x="118" y="320" on="1"/>
        <pt x="118" y="71" on="1"/>
        <pt x="328" y="71" on="1"/>
        <pt x="328" y="0" on="1"/>
        <pt x="40" y="0" on="1"/>
        <pt x="40" y="700" on="1"/>
        <pt x="328" y="700" on="1"/>
        <pt x="328" y="629" on="1"/>
        <pt x="118" y="629" on="1"/>
        <pt x="118" y="390" on="1"/>
        <pt x="289" y="390" on="1"/>
      </contour>
    </TTGlyph>
    <TTGlyph name="Edieresis" xMin="40" yMin="0" xMax="328" yMax="829">
      <contour>
        <pt x="155" y="739" on="1"/>
        <pt x="87" y="739" on="1"/>
        <pt x="87" y="829" on="1"/>
        <pt x="155" y="829" on="1"/>
      </contour>
      <contour>
        <pt x="279" y="739" on="1"/>
        <pt x="211" y="739" on="1"/>
        <pt x="211" y="829" on="1"/>
        <pt x="279" y="829" on="1"/>
      </contour>
      <contour>
        <pt x="289" y="320" on="1"/>
        <pt x="118" y="320" on="1"/>
        <pt x="118" y="71" on="1"/>
        <pt x="328" y="71" on="1"/>
        <pt x="328" y="0" on="1"/>
        <pt x="40" y="0" on="1"/>
        <pt x="40" y="700" on="1"/>
        <pt x="328" y="700" on="1"/>
        <pt x="328" y="629" on="1"/>
        <pt x="118" y="629" on="1"/>
        <pt x="118" y="390" on="1"/>
        <pt x="289" y="390" on="1"/>
      </contour>
    </TTGlyph>
    <TTGlyph name="Edotaccent" xMin="40" yMin="0" xMax="328" yMax="830">
      <contour>
        <pt x="218" y="740" on="1"/>
        <pt x="150" y="740" on="1"/>
        <pt x="150" y="830" on="1"/>
        <pt x="218" y="830" on="1"/>
      </contour>
      <contour>
        <pt x="289" y="320" on="1"/>
        <pt x="118" y="320" on="1"/>
        <pt x="118" y="71" on="1"/>
        <pt x="328" y="71" on="1"/>
        <pt x="328" y="0" on="1"/>
        <pt x="40" y="0" on="1"/>
        <pt x="40" y="700" on="1"/>
        <pt x="328" y="700" on="1"/>
        <pt x="328" y="629" on="1"/>
        <pt x="118" y="629" on="1"/>
        <pt x="118" y="390" on="1"/>
        <pt x="289" y="390" on="1"/>
      </contour>
    </TTGlyph>
    <TTGlyph name="Egrave" xMin="40" yMin="0" xMax="328" yMax="845">
      <contour>
        <pt x="236" y="742" on="1"/>
        <pt x="179" y="742" on="1"/>
        <pt x="86" y="845" on="1"/>
        <pt x="167" y="845" on="1"/>
      </contour>
      <contour>
        <pt x="289" y="320" on="1"/>
        <pt x="118" y="320" on="1"/>
        <pt x="118" y="71" on="1"/>
        <pt x="328" y="71" on="1"/>
        <pt x="328" y="0" on="1"/>
        <pt x="40" y="0" on="1"/>
        <pt x="40" y="700" on="1"/>
        <pt x="328" y="700" on="1"/>
        <pt x="328" y="629" on="1"/>
        <pt x="118" y="629" on="1"/>
        <pt x="118" y="390" on="1"/>
        <pt x="289" y="390" on="1"/>
      </contour>
    </TTGlyph>
    <TTGlyph name="Emacron" xMin="40" yMin="0" xMax="328" yMax="807">
      <contour>
        <pt x="286" y="752" on="1"/>
        <pt x="77" y="752" on="1"/>
        <pt x="77" y="807" on="1"/>
        <pt x="286" y="807" on="1"/>
      </contour>
      <contour>
        <pt x="289" y="320" on="1"/>
        <pt x="118" y="320" on="1"/>
        <pt x="118" y="71" on="1"/>
        <pt x="328" y="71" on="1"/>
        <pt x="328" y="0" on="1"/>
        <pt x="40" y="0" on="1"/>
        <pt x="40" y="700" on="1"/>
        <pt x="328" y="700" on="1"/>
        <pt x="328" y="629" on="1"/>
        <pt x="118" y="629" on="1"/>
        <pt x="118" y="390" on="1"/>
        <pt x="289" y="390" on="1"/>
      </contour>
    </TTGlyph>
    <TTGlyph name="Eogonek" xMin="40" yMin="-143" xMax="335" yMax="700">
      <contour>
        <pt x="289" y="320" on="1"/>
        <pt x="118" y="320" on="1"/>
        <pt x="118" y="71" on="1"/>
        <pt x="328" y="71" on="1"/>
        <pt x="328" y="0" on="1"/>
        <pt x="295" y="0" on="1"/>
        <pt x="277" y="-14" on="0"/>
        <pt x="258" y="-53" on="0"/>
        <pt x="258" y="-69" on="1"/>
        <pt x="259" y="-84" on="0"/>
        <pt x="280" y="-99" on="0"/>
        <pt x="296" y="-99" on="1"/>
        <pt x="309" y="-99" on="0"/>
        <pt x="325" y="-95" on="0"/>
        <pt x="335" y="-90" on="1"/>
        <pt x="335" y="-131" on="1"/>
        <pt x="308" y="-143" on="0"/>
        <pt x="274" y="-143" on="1"/>
        <pt x="239" y="-143" on="0"/>
        <pt x="199" y="-115" on="0"/>
        <pt x="198" y="-87" on="1"/>
        <pt x="198" y="-63" on="0"/>
        <pt x="231" y="-18" on="0"/>
        <pt x="259" y="0" on="1"/>
        <pt x="40" y="0" on="1"/>
        <pt x="40" y="700" on="1"/>
        <pt x="328" y="700" on="1"/>
        <pt x="328" y="629" on="1"/>
        <pt x="118" y="629" on="1"/>
        <pt x="118" y="390" on="1"/>
        <pt x="289" y="390" on="1"/>
      </contour>
    </TTGlyph>
    <TTGlyph name="Eth" xMin="-1" yMin="0" xMax="363" yMax="700">
      <contour>
        <pt x="284" y="700" on="0"/>
        <pt x="363" y="609" on="0"/>
        <pt x="363" y="526" on="1"/>
        <pt x="363" y="173" on="1"/>
        <pt x="363" y="91" on="0"/>
        <pt x="284" y="0" on="0"/>
        <pt x="204" y="0" on="1"/>
        <pt x="40" y="0" on="1"/>
        <pt x="40" y="318" on="1"/>
        <pt x="-1" y="318" on="1"/>
        <pt x="-1" y="382" on="1"/>
        <pt x="40" y="382" on="1"/>
        <pt x="40" y="700" on="1"/>
        <pt x="204" y="700" on="1"/>
      </contour>
      <contour>
        <pt x="118" y="318" on="1"/>
        <pt x="118" y="71" on="1"/>
        <pt x="203" y="71" on="1"/>
        <pt x="286" y="71" on="0"/>
        <pt x="286" y="170" on="1"/>
        <pt x="286" y="530" on="1"/>
        <pt x="286" y="629" on="0"/>
        <pt x="202" y="629" on="1"/>
        <pt x="118" y="629" on="1"/>
        <pt x="118" y="382" on="1"/>
        <pt x="196" y="382" on="1"/>
        <pt x="196" y="318" on="1"/>
      </contour>
    </TTGlyph>
    <TTGlyph name="Euro" xMin="13" yMin="-7" xMax="365" yMax="707">
      <contour>
        <pt x="57" y="614" on="0"/>
        <pt x="133" y="707" on="0"/>
        <pt x="211" y="707" on="1"/>
        <pt x="289" y="707" on="0"/>
        <pt x="365" y="614" on="0"/>
        <pt x="365" y="531" on="1"/>
        <pt x="365" y="486" on="1"/>
        <pt x="292" y="486" on="1"/>
        <pt x="292" y="535" on="1"/>
        <pt x="292" y="636" on="0"/>
        <pt x="213" y="636" on="1"/>
        <pt x="134" y="636" on="0"/>
        <pt x="134" y="535" on="1"/>
        <pt x="134" y="427" on="1"/>
        <pt x="308" y="427" on="1"/>
        <pt x="308" y="387" on="1"/>
        <pt x="134" y="387" on="1"/>
        <pt x="134" y="318" on="1"/>
        <pt x="308" y="318" on="1"/>
        <pt x="308" y="277" on="1"/>
        <pt x="134" y="277" on="1"/>
        <pt x="134" y="165" on="1"/>
        <pt x="134" y="64" on="0"/>
        <pt x="213" y="64" on="1"/>
        <pt x="292" y="64" on="0"/>
        <pt x="292" y="165" on="1"/>
        <pt x="292" y="219" on="1"/>
        <pt x="365" y="219" on="1"/>
        <pt x="365" y="169" on="1"/>
        <pt x="365" y="87" on="0"/>
        <pt x="289" y="-7" on="0"/>
        <pt x="211" y="-7" on="1"/>
        <pt x="133" y="-7" on="0"/>
        <pt x="57" y="87" on="0"/>
        <pt x="57" y="169" on="1"/>
        <pt x="57" y="277" on="1"/>
        <pt x="13" y="277" on="1"/>
        <pt x="13" y="318" on="1"/>
        <pt x="57" y="318" on="1"/>
        <pt x="57" y="387" on="1"/>
        <pt x="13" y="387" on="1"/>
        <pt x="13" y="427" on="1"/>
        <pt x="57" y="427" on="1"/>
        <pt x="57" y="531" on="1"/>
      </contour>
    </TTGlyph>
    <TTGlyph name="F" xMin="40" yMin="0" xMax="318" yMax="700">
      <contour>
        <pt x="279" y="303" on="1"/>
        <pt x="118" y="303" on="1"/>
        <pt x="118" y="0" on="1"/>
        <pt x="40" y="0" on="1"/>
        <pt x="40" y="700" on="1"/>
        <pt x="318" y="700" on="1"/>
        <pt x="318" y="629" on="1"/>
        <pt x="118" y="629" on="1"/>
        <pt x="118" y="374" on="1"/>
        <pt x="279" y="374" on="1"/>
      </contour>
    </TTGlyph>
    <TTGlyph name="G" xMin="34" yMin="-7" xMax="349" yMax="707">
      <contour>
        <pt x="270" y="707" on="0"/>
        <pt x="349" y="613" on="0"/>
        <pt x="349" y="531" on="1"/>
        <pt x="349" y="471" on="1"/>
        <pt x="275" y="471" on="1"/>
        <pt x="275" y="535" on="1"/>
        <pt x="275" y="636" on="0"/>
        <pt x="193" y="636" on="1"/>
        <pt x="152" y="636" on="0"/>
        <pt x="111" y="583" on="0"/>
        <pt x="111" y="535" on="1"/>
        <pt x="111" y="165" on="1"/>
        <pt x="111" y="117" on="0"/>
        <pt x="152" y="64" on="0"/>
        <pt x="193" y="64" on="1"/>
        <pt x="275" y="64" on="0"/>
        <pt x="275" y="165" on="1"/>
        <pt x="275" y="305" on="1"/>
        <pt x="203" y="305" on="1"/>
        <pt x="203" y="375" on="1"/>
        <pt x="349" y="375" on="1"/>
        <pt x="349" y="169" on="1"/>
        <pt x="349" y="87" on="0"/>
        <pt x="270" y="-7" on="0"/>
        <pt x="191" y="-7" on="1"/>
        <pt x="113" y="-7" on="0"/>
        <pt x="34" y="87" on="0"/>
        <pt x="34" y="169" on="1"/>
        <pt x="34" y="531" on="1"/>
        <pt x="34" y="613" on="0"/>
        <pt x="113" y="707" on="0"/>
        <pt x="191" y="707" on="1"/>
      </contour>
    </TTGlyph>
    <TTGlyph name="Gbreve" xMin="34" yMin="-7" xMax="349" yMax="841">
      <contour>
        <pt x="295" y="794" on="0"/>
        <pt x="240" y="740" on="0"/>
        <pt x="191" y="740" on="1"/>
        <pt x="142" y="740" on="0"/>
        <pt x="88" y="794" on="0"/>
        <pt x="87" y="841" on="1"/>
        <pt x="134" y="841" on="1"/>
        <pt x="138" y="789" on="0"/>
        <pt x="191" y="789" on="1"/>
        <pt x="245" y="789" on="0"/>
        <pt x="249" y="841" on="1"/>
        <pt x="296" y="841" on="1"/>
      </contour>
      <contour>
        <pt x="270" y="707" on="0"/>
        <pt x="349" y="613" on="0"/>
        <pt x="349" y="531" on="1"/>
        <pt x="349" y="471" on="1"/>
        <pt x="275" y="471" on="1"/>
        <pt x="275" y="535" on="1"/>
        <pt x="275" y="636" on="0"/>
        <pt x="193" y="636" on="1"/>
        <pt x="152" y="636" on="0"/>
        <pt x="111" y="583" on="0"/>
        <pt x="111" y="535" on="1"/>
        <pt x="111" y="165" on="1"/>
        <pt x="111" y="117" on="0"/>
        <pt x="152" y="64" on="0"/>
        <pt x="193" y="64" on="1"/>
        <pt x="275" y="64" on="0"/>
        <pt x="275" y="165" on="1"/>
        <pt x="275" y="305" on="1"/>
        <pt x="203" y="305" on="1"/>
        <pt x="203" y="375" on="1"/>
        <pt x="349" y="375" on="1"/>
        <pt x="349" y="169" on="1"/>
        <pt x="349" y="87" on="0"/>
        <pt x="270" y="-7" on="0"/>
        <pt x="191" y="-7" on="1"/>
        <pt x="113" y="-7" on="0"/>
        <pt x="34" y="87" on="0"/>
        <pt x="34" y="169" on="1"/>
        <pt x="34" y="531" on="1"/>
        <pt x="34" y="613" on="0"/>
        <pt x="113" y="707" on="0"/>
        <pt x="191" y="707" on="1"/>
      </contour>
    </TTGlyph>
    <TTGlyph name="Gcircumflex" xMin="34" yMin="-7" xMax="349" yMax="842">
      <contour>
        <pt x="71" y="742" on="1"/>
        <pt x="157" y="842" on="1"/>
        <pt x="226" y="842" on="1"/>
        <pt x="313" y="742" on="1"/>
        <pt x="245" y="742" on="1"/>
        <pt x="191" y="801" on="1"/>
        <pt x="139" y="742" on="1"/>
      </contour>
      <contour>
        <pt x="270" y="707" on="0"/>
        <pt x="349" y="613" on="0"/>
        <pt x="349" y="531" on="1"/>
        <pt x="349" y="471" on="1"/>
        <pt x="275" y="471" on="1"/>
        <pt x="275" y="535" on="1"/>
        <pt x="275" y="636" on="0"/>
        <pt x="193" y="636" on="1"/>
        <pt x="152" y="636" on="0"/>
        <pt x="111" y="583" on="0"/>
        <pt x="111" y="535" on="1"/>
        <pt x="111" y="165" on="1"/>
        <pt x="111" y="117" on="0"/>
        <pt x="152" y="64" on="0"/>
        <pt x="193" y="64" on="1"/>
        <pt x="275" y="64" on="0"/>
        <pt x="275" y="165" on="1"/>
        <pt x="275" y="305" on="1"/>
        <pt x="203" y="305" on="1"/>
        <pt x="203" y="375" on="1"/>
        <pt x="349" y="375" on="1"/>
        <pt x="349" y="169" on="1"/>
        <pt x="349" y="87" on="0"/>
        <pt x="270" y="-7" on="0"/>
        <pt x="191" y="-7" on="1"/>
        <pt x="113" y="-7" on="0"/>
        <pt x="34" y="87" on="0"/>
        <pt x="34" y="169" on="1"/>
        <pt x="34" y="531" on="1"/>
        <pt x="34" y="613" on="0"/>
        <pt x="113" y="707" on="0"/>
        <pt x="191" y="707" on="1"/>
      </contour>
    </TTGlyph>
    <TTGlyph name="Gdotaccent" xMin="34" yMin="-7" xMax="349" yMax="830">
      <contour>
        <pt x="228" y="740" on="1"/>
        <pt x="160" y="740" on="1"/>
        <pt x="160" y="830" on="1"/>
        <pt x="228" y="830" on="1"/>
      </contour>
      <contour>
        <pt x="270" y="707" on="0"/>
        <pt x="349" y="613" on="0"/>
        <pt x="349" y="531" on="1"/>
        <pt x="349" y="471" on="1"/>
        <pt x="275" y="471" on="1"/>
        <pt x="275" y="535" on="1"/>
        <pt x="275" y="636" on="0"/>
        <pt x="193" y="636" on="1"/>
        <pt x="152" y="636" on="0"/>
        <pt x="111" y="583" on="0"/>
        <pt x="111" y="535" on="1"/>
        <pt x="111" y="165" on="1"/>
        <pt x="111" y="117" on="0"/>
        <pt x="152" y="64" on="0"/>
        <pt x="193" y="64" on="1"/>
        <pt x="275" y="64" on="0"/>
        <pt x="275" y="165" on="1"/>
        <pt x="275" y="305" on="1"/>
        <pt x="203" y="305" on="1"/>
        <pt x="203" y="375" on="1"/>
        <pt x="349" y="375" on="1"/>
        <pt x="349" y="169" on="1"/>
        <pt x="349" y="87" on="0"/>
        <pt x="270" y="-7" on="0"/>
        <pt x="191" y="-7" on="1"/>
        <pt x="113" y="-7" on="0"/>
        <pt x="34" y="87" on="0"/>
        <pt x="34" y="169" on="1"/>
        <pt x="34" y="531" on="1"/>
        <pt x="34" y="613" on="0"/>
        <pt x="113" y="707" on="0"/>
        <pt x="191" y="707" on="1"/>
      </contour>
    </TTGlyph>
    <TTGlyph name="H" xMin="40" yMin="0" xMax="368" yMax="700">
      <contour>
        <pt x="118" y="0" on="1"/>
        <pt x="40" y="0" on="1"/>
        <pt x="40" y="700" on="1"/>
        <pt x="118" y="700" on="1"/>
        <pt x="118" y="385" on="1"/>
        <pt x="290" y="385" on="1"/>
        <pt x="290" y="700" on="1"/>
        <pt x="368" y="700" on="1"/>
        <pt x="368" y="0" on="1"/>
        <pt x="290" y="0" on="1"/>
        <pt x="290" y="315" on="1"/>
        <pt x="118" y="315" on="1"/>
      </contour>
    </TTGlyph>
    <TTGlyph name="Hbar" xMin="7" yMin="0" xMax="408" yMax="700">
      <contour>
        <pt x="372" y="0" on="1"/>
        <pt x="293" y="0" on="1"/>
        <pt x="293" y="315" on="1"/>
        <pt x="121" y="315" on="1"/>
        <pt x="121" y="0" on="1"/>
        <pt x="43" y="0" on="1"/>
        <pt x="43" y="514" on="1"/>
        <pt x="7" y="514" on="1"/>
        <pt x="7" y="572" on="1"/>
        <pt x="43" y="572" on="1"/>
        <pt x="43" y="700" on="1"/>
        <pt x="121" y="700" on="1"/>
        <pt x="121" y="572" on="1"/>
        <pt x="293" y="572" on="1"/>
        <pt x="293" y="700" on="1"/>
        <pt x="372" y="700" on="1"/>
        <pt x="372" y="572" on="1"/>
        <pt x="408" y="572" on="1"/>
        <pt x="408" y="514" on="1"/>
        <pt x="372" y="514" on="1"/>
      </contour>
      <contour>
        <pt x="121" y="514" on="1"/>
        <pt x="121" y="385" on="1"/>
        <pt x="293" y="385" on="1"/>
        <pt x="293" y="514" on="1"/>
      </contour>
    </TTGlyph>
    <TTGlyph name="Hcircumflex" xMin="40" yMin="0" xMax="368" yMax="842">
      <contour>
        <pt x="83" y="741" on="1"/>
        <pt x="170" y="842" on="1"/>
        <pt x="239" y="842" on="1"/>
        <pt x="325" y="741" on="1"/>
        <pt x="257" y="741" on="1"/>
        <pt x="204" y="800" on="1"/>
        <pt x="151" y="741" on="1"/>
      </contour>
      <contour>
        <pt x="118" y="0" on="1"/>
        <pt x="40" y="0" on="1"/>
        <pt x="40" y="700" on="1"/>
        <pt x="118" y="700" on="1"/>
        <pt x="118" y="385" on="1"/>
        <pt x="290" y="385" on="1"/>
        <pt x="290" y="700" on="1"/>
        <pt x="368" y="700" on="1"/>
        <pt x="368" y="0" on="1"/>
        <pt x="290" y="0" on="1"/>
        <pt x="290" y="315" on="1"/>
        <pt x="118" y="315" on="1"/>
      </contour>
    </TTGlyph>
    <TTGlyph name="I" xMin="40" yMin="0" xMax="118" yMax="700">
      <contour>
        <pt x="118" y="0" on="1"/>
        <pt x="40" y="0" on="1"/>
        <pt x="40" y="700" on="1"/>
        <pt x="118" y="700" on="1"/>
      </contour>
    </TTGlyph>
    <TTGlyph name="IJ" xMin="40" yMin="-1" xMax="376" yMax="700">
      <contour>
        <pt x="118" y="0" on="1"/>
        <pt x="40" y="0" on="1"/>
        <pt x="40" y="700" on="1"/>
        <pt x="118" y="700" on="1"/>
      </contour>
      <contour>
        <pt x="376" y="80" on="0"/>
        <pt x="295" y="1" on="0"/>
        <pt x="225" y="-1" on="1"/>
        <pt x="194" y="-1" on="0"/>
        <pt x="177" y="0" on="1"/>
        <pt x="177" y="71" on="1"/>
        <pt x="190" y="70" on="0"/>
        <pt x="215" y="70" on="1"/>
        <pt x="257" y="72" on="0"/>
        <pt x="298" y="117" on="0"/>
        <pt x="298" y="168" on="1"/>
        <pt x="298" y="700" on="1"/>
        <pt x="376" y="700" on="1"/>
        <pt x="376" y="173" on="1"/>
      </contour>
    </TTGlyph>
    <TTGlyph name="Iacute" xMin="31" yMin="0" xMax="178" yMax="842">
      <contour>
        <pt x="178" y="842" on="1"/>
        <pt x="85" y="739" on="1"/>
        <pt x="31" y="739" on="1"/>
        <pt x="100" y="842" on="1"/>
      </contour>
      <contour>
        <pt x="118" y="700" on="1"/>
        <pt x="118" y="0" on="1"/>
        <pt x="40" y="0" on="1"/>
        <pt x="40" y="700" on="1"/>
      </contour>
    </TTGlyph>
    <TTGlyph name="Ibreve" xMin="-25" yMin="0" xMax="183" yMax="838">
      <contour>
        <pt x="183" y="791" on="0"/>
        <pt x="127" y="736" on="0"/>
        <pt x="78" y="736" on="1"/>
        <pt x="30" y="736" on="0"/>
        <pt x="-24" y="790" on="0"/>
        <pt x="-25" y="838" on="1"/>
        <pt x="22" y="838" on="1"/>
        <pt x="25" y="785" on="0"/>
        <pt x="78" y="785" on="1"/>
        <pt x="132" y="785" on="0"/>
        <pt x="136" y="838" on="1"/>
        <pt x="183" y="838" on="1"/>
      </contour>
      <contour>
        <pt x="118" y="700" on="1"/>
        <pt x="118" y="0" on="1"/>
        <pt x="40" y="0" on="1"/>
        <pt x="40" y="700" on="1"/>
      </contour>
    </TTGlyph>
    <TTGlyph name="Icircumflex" xMin="-42" yMin="0" xMax="200" yMax="839">
      <contour>
        <pt x="200" y="739" on="1"/>
        <pt x="132" y="739" on="1"/>
        <pt x="79" y="798" on="1"/>
        <pt x="26" y="739" on="1"/>
        <pt x="-42" y="739" on="1"/>
        <pt x="44" y="839" on="1"/>
        <pt x="113" y="839" on="1"/>
      </contour>
      <contour>
        <pt x="118" y="700" on="1"/>
        <pt x="118" y="0" on="1"/>
        <pt x="40" y="0" on="1"/>
        <pt x="40" y="700" on="1"/>
      </contour>
    </TTGlyph>
    <TTGlyph name="Idieresis" xMin="-17" yMin="0" xMax="175" yMax="829">
      <contour>
        <pt x="51" y="739" on="1"/>
        <pt x="-17" y="739" on="1"/>
        <pt x="-17" y="829" on="1"/>
        <pt x="51" y="829" on="1"/>
      </contour>
      <contour>
        <pt x="175" y="739" on="1"/>
        <pt x="107" y="739" on="1"/>
        <pt x="107" y="829" on="1"/>
        <pt x="175" y="829" on="1"/>
      </contour>
      <contour>
        <pt x="118" y="0" on="1"/>
        <pt x="40" y="0" on="1"/>
        <pt x="40" y="700" on="1"/>
        <pt x="118" y="700" on="1"/>
      </contour>
    </TTGlyph>
    <TTGlyph name="Idotaccent" xMin="40" yMin="0" xMax="118" yMax="829">
      <contour>
        <pt x="113" y="739" on="1"/>
        <pt x="45" y="739" on="1"/>
        <pt x="45" y="829" on="1"/>
        <pt x="113" y="829" on="1"/>
      </contour>
      <contour>
        <pt x="118" y="0" on="1"/>
        <pt x="40" y="0" on="1"/>
        <pt x="40" y="700" on="1"/>
        <pt x="118" y="700" on="1"/>
      </contour>
    </TTGlyph>
    <TTGlyph name="Igrave" xMin="-25" yMin="0" xMax="126" yMax="842">
      <contour>
        <pt x="56" y="842" on="1"/>
        <pt x="126" y="739" on="1"/>
        <pt x="68" y="739" on="1"/>
        <pt x="-25" y="842" on="1"/>
      </contour>
      <contour>
        <pt x="118" y="700" on="1"/>
        <pt x="118" y="0" on="1"/>
        <pt x="40" y="0" on="1"/>
        <pt x="40" y="700" on="1"/>
      </contour>
    </TTGlyph>
    <TTGlyph name="Imacron" xMin="-21" yMin="0" xMax="178" yMax="806">
      <contour>
        <pt x="178" y="750" on="1"/>
        <pt x="-21" y="750" on="1"/>
        <pt x="-21" y="806" on="1"/>
        <pt x="178" y="806" on="1"/>
      </contour>
      <contour>
        <pt x="118" y="0" on="1"/>
        <pt x="40" y="0" on="1"/>
        <pt x="40" y="700" on="1"/>
        <pt x="118" y="700" on="1"/>
      </contour>
    </TTGlyph>
    <TTGlyph name="Iogonek" xMin="8" yMin="-143" xMax="145" yMax="700">
      <contour>
        <pt x="86" y="-14" on="0"/>
        <pt x="67" y="-54" on="0"/>
        <pt x="68" y="-69" on="1"/>
        <pt x="68" y="-84" on="0"/>
        <pt x="89" y="-99" on="0"/>
        <pt x="105" y="-99" on="1"/>
        <pt x="118" y="-99" on="0"/>
        <pt x="136" y="-94" on="0"/>
        <pt x="145" y="-90" on="1"/>
        <pt x="145" y="-131" on="1"/>
        <pt x="118" y="-143" on="0"/>
        <pt x="83" y="-143" on="1"/>
        <pt x="48" y="-143" on="0"/>
        <pt x="8" y="-114" on="0"/>
        <pt x="8" y="-85" on="1"/>
        <pt x="8" y="-62" on="0"/>
        <pt x="40" y="-17" on="0"/>
        <pt x="69" y="0" on="1"/>
        <pt x="40" y="0" on="1"/>
        <pt x="40" y="700" on="1"/>
        <pt x="118" y="700" on="1"/>
        <pt x="118" y="0" on="1"/>
        <pt x="104" y="0" on="1"/>
      </contour>
    </TTGlyph>
    <TTGlyph name="Itilde" xMin="-43" yMin="0" xMax="201" yMax="828">
      <contour>
        <pt x="179" y="744" on="0"/>
        <pt x="130" y="744" on="1"/>
        <pt x="108" y="744" on="0"/>
        <pt x="80" y="760" on="1"/>
        <pt x="70" y="765" on="0"/>
        <pt x="49" y="773" on="0"/>
        <pt x="40" y="773" on="1"/>
        <pt x="25" y="773" on="0"/>
        <pt x="4" y="760" on="0"/>
        <pt x="-4" y="744" on="1"/>
        <pt x="-43" y="770" on="1"/>
        <pt x="-19" y="828" on="0"/>
        <pt x="31" y="828" on="1"/>
        <pt x="45" y="828" on="0"/>
        <pt x="68" y="820" on="0"/>
        <pt x="83" y="812" on="1"/>
        <pt x="107" y="799" on="0"/>
        <pt x="122" y="799" on="1"/>
        <pt x="135" y="799" on="0"/>
        <pt x="155" y="812" on="0"/>
        <pt x="163" y="828" on="1"/>
        <pt x="201" y="802" on="1"/>
      </contour>
      <contour>
        <pt x="118" y="0" on="1"/>
        <pt x="40" y="0" on="1"/>
        <pt x="40" y="700" on="1"/>
        <pt x="118" y="700" on="1"/>
      </contour>
    </TTGlyph>
    <TTGlyph name="J" xMin="20" yMin="-1" xMax="218" yMax="700">
      <contour>
        <pt x="33" y="70" on="0"/>
        <pt x="59" y="70" on="1"/>
        <pt x="100" y="72" on="0"/>
        <pt x="141" y="117" on="0"/>
        <pt x="141" y="168" on="1"/>
        <pt x="141" y="700" on="1"/>
        <pt x="218" y="700" on="1"/>
        <pt x="218" y="173" on="1"/>
        <pt x="218" y="3" on="0"/>
        <pt x="69" y="-1" on="1"/>
        <pt x="44" y="-1" on="1"/>
        <pt x="29" y="-1" on="0"/>
        <pt x="20" y="0" on="1"/>
        <pt x="20" y="71" on="1"/>
      </contour>
    </TTGlyph>
    <TTGlyph name="Jcircumflex" xMin="20" yMin="-1" xMax="288" yMax="840">
      <contour>
        <pt x="46" y="739" on="1"/>
        <pt x="132" y="840" on="1"/>
        <pt x="201" y="840" on="1"/>
        <pt x="288" y="739" on="1"/>
        <pt x="220" y="739" on="1"/>
        <pt x="167" y="799" on="1"/>
        <pt x="114" y="739" on="1"/>
      </contour>
      <contour>
        <pt x="218" y="3" on="0"/>
        <pt x="69" y="-1" on="1"/>
        <pt x="44" y="-1" on="1"/>
        <pt x="29" y="-1" on="0"/>
        <pt x="20" y="0" on="1"/>
        <pt x="20" y="71" on="1"/>
        <pt x="33" y="70" on="0"/>
        <pt x="59" y="70" on="1"/>
        <pt x="100" y="72" on="0"/>
        <pt x="141" y="117" on="0"/>
        <pt x="141" y="168" on="1"/>
        <pt x="141" y="700" on="1"/>
        <pt x="218" y="700" on="1"/>
        <pt x="218" y="173" on="1"/>
      </contour>
    </TTGlyph>
    <TTGlyph name="K" xMin="40" yMin="0" xMax="389" yMax="700">
      <contour>
        <pt x="118" y="235" on="1"/>
        <pt x="118" y="0" on="1"/>
        <pt x="40" y="0" on="1"/>
        <pt x="40" y="700" on="1"/>
        <pt x="118" y="700" on="1"/>
        <pt x="118" y="362" on="1"/>
        <pt x="304" y="700" on="1"/>
        <pt x="383" y="700" on="1"/>
        <pt x="206" y="381" on="1"/>
        <pt x="389" y="0" on="1"/>
        <pt x="309" y="0" on="1"/>
        <pt x="159" y="304" on="1"/>
      </contour>
    </TTGlyph>
    <TTGlyph name="L" xMin="40" yMin="0" xMax="318" yMax="700">
      <contour>
        <pt x="40" y="700" on="1"/>
        <pt x="118" y="700" on="1"/>
        <pt x="118" y="71" on="1"/>
        <pt x="318" y="71" on="1"/>
        <pt x="318" y="0" on="1"/>
        <pt x="40" y="0" on="1"/>
      </contour>
    </TTGlyph>
    <TTGlyph name="Lacute" xMin="40" yMin="0" xMax="318" yMax="842">
      <contour>
        <pt x="113" y="739" on="1"/>
        <pt x="59" y="739" on="1"/>
        <pt x="129" y="842" on="1"/>
        <pt x="206" y="842" on="1"/>
      </contour>
      <contour>
        <pt x="40" y="700" on="1"/>
        <pt x="118" y="700" on="1"/>
        <pt x="118" y="71" on="1"/>
        <pt x="318" y="71" on="1"/>
        <pt x="318" y="0" on="1"/>
        <pt x="40" y="0" on="1"/>
      </contour>
    </TTGlyph>
    <TTGlyph name="Lcaron" xMin="40" yMin="0" xMax="318" yMax="700">
      <contour>
        <pt x="40" y="700" on="1"/>
        <pt x="118" y="700" on="1"/>
        <pt x="118" y="71" on="1"/>
        <pt x="318" y="71" on="1"/>
        <pt x="318" y="0" on="1"/>
        <pt x="40" y="0" on="1"/>
      </contour>
      <contour>
        <pt x="213" y="603" on="1"/>
        <pt x="213" y="700" on="1"/>
        <pt x="288" y="700" on="1"/>
        <pt x="288" y="611" on="1"/>
        <pt x="250" y="515" on="1"/>
        <pt x="217" y="515" on="1"/>
        <pt x="242" y="603" on="1"/>
      </contour>
    </TTGlyph>
    <TTGlyph name="Ldot" xMin="40" yMin="0" xMax="318" yMax="700">
      <contour>
        <pt x="40" y="700" on="1"/>
        <pt x="118" y="700" on="1"/>
        <pt x="118" y="71" on="1"/>
        <pt x="318" y="71" on="1"/>
        <pt x="318" y="0" on="1"/>
        <pt x="40" y="0" on="1"/>
      </contour>
      <contour>
        <pt x="272" y="303" on="1"/>
        <pt x="197" y="303" on="1"/>
        <pt x="197" y="400" on="1"/>
        <pt x="272" y="400" on="1"/>
      </contour>
    </TTGlyph>
    <TTGlyph name="Lslash" xMin="0" yMin="0" xMax="329" yMax="700">
      <contour>
        <pt x="128" y="71" on="1"/>
        <pt x="329" y="71" on="1"/>
        <pt x="329" y="0" on="1"/>
        <pt x="51" y="0" on="1"/>
        <pt x="51" y="208" on="1"/>
        <pt x="0" y="158" on="1"/>
        <pt x="0" y="230" on="1"/>
        <pt x="51" y="280" on="1"/>
        <pt x="51" y="700" on="1"/>
        <pt x="128" y="700" on="1"/>
        <pt x="128" y="363" on="1"/>
        <pt x="237" y="476" on="1"/>
        <pt x="237" y="404" on="1"/>
        <pt x="128" y="291" on="1"/>
      </contour>
    </TTGlyph>
    <TTGlyph name="M" xMin="39" yMin="0" xMax="483" yMax="700">
      <contour>
        <pt x="223" y="1" on="1"/>
        <pt x="107" y="558" on="1"/>
        <pt x="107" y="0" on="1"/>
        <pt x="39" y="0" on="1"/>
        <pt x="39" y="700" on="1"/>
        <pt x="148" y="700" on="1"/>
        <pt x="263" y="141" on="1"/>
        <pt x="374" y="700" on="1"/>
        <pt x="483" y="700" on="1"/>
        <pt x="483" y="0" on="1"/>
        <pt x="409" y="0" on="1"/>
        <pt x="409" y="563" on="1"/>
        <pt x="298" y="1" on="1"/>
      </contour>
    </TTGlyph>
    <TTGlyph name="N" xMin="39" yMin="0" xMax="369" yMax="700">
      <contour>
        <pt x="39" y="0" on="1"/>
        <pt x="39" y="700" on="1"/>
        <pt x="138" y="700" on="1"/>
        <pt x="300" y="194" on="1"/>
        <pt x="300" y="700" on="1"/>
        <pt x="369" y="700" on="1"/>
        <pt x="369" y="0" on="1"/>
        <pt x="288" y="0" on="1"/>
        <pt x="109" y="566" on="1"/>
        <pt x="109" y="0" on="1"/>
      </contour>
    </TTGlyph>
    <TTGlyph name="Nacute" xMin="39" yMin="0" xMax="369" yMax="842">
      <contour>
        <pt x="213" y="740" on="1"/>
        <pt x="159" y="740" on="1"/>
        <pt x="229" y="842" on="1"/>
        <pt x="306" y="842" on="1"/>
      </contour>
      <contour>
        <pt x="39" y="0" on="1"/>
        <pt x="39" y="700" on="1"/>
        <pt x="138" y="700" on="1"/>
        <pt x="300" y="194" on="1"/>
        <pt x="300" y="700" on="1"/>
        <pt x="369" y="700" on="1"/>
        <pt x="369" y="0" on="1"/>
        <pt x="288" y="0" on="1"/>
        <pt x="109" y="567" on="1"/>
        <pt x="109" y="0" on="1"/>
      </contour>
    </TTGlyph>
    <TTGlyph name="Ncaron" xMin="39" yMin="0" xMax="369" yMax="842">
      <contour>
        <pt x="205" y="782" on="1"/>
        <pt x="258" y="842" on="1"/>
        <pt x="326" y="842" on="1"/>
        <pt x="240" y="741" on="1"/>
        <pt x="171" y="741" on="1"/>
        <pt x="84" y="842" on="1"/>
        <pt x="152" y="842" on="1"/>
      </contour>
      <contour>
        <pt x="39" y="0" on="1"/>
        <pt x="39" y="700" on="1"/>
        <pt x="138" y="700" on="1"/>
        <pt x="300" y="194" on="1"/>
        <pt x="300" y="700" on="1"/>
        <pt x="369" y="700" on="1"/>
        <pt x="369" y="0" on="1"/>
        <pt x="288" y="0" on="1"/>
        <pt x="109" y="566" on="1"/>
        <pt x="109" y="0" on="1"/>
      </contour>
    </TTGlyph>
    <TTGlyph name="Ntilde" xMin="39" yMin="0" xMax="369" yMax="830">
      <contour>
        <pt x="304" y="746" on="0"/>
        <pt x="254" y="746" on="1"/>
        <pt x="241" y="746" on="0"/>
        <pt x="219" y="754" on="0"/>
        <pt x="205" y="762" on="1"/>
        <pt x="181" y="775" on="0"/>
        <pt x="166" y="775" on="1"/>
        <pt x="151" y="775" on="0"/>
        <pt x="130" y="762" on="0"/>
        <pt x="122" y="746" on="1"/>
        <pt x="83" y="772" on="1"/>
        <pt x="106" y="830" on="0"/>
        <pt x="157" y="830" on="1"/>
        <pt x="171" y="830" on="0"/>
        <pt x="193" y="822" on="0"/>
        <pt x="208" y="814" on="1"/>
        <pt x="232" y="801" on="0"/>
        <pt x="247" y="801" on="1"/>
        <pt x="275" y="801" on="0"/>
        <pt x="288" y="830" on="1"/>
        <pt x="327" y="804" on="1"/>
      </contour>
      <contour>
        <pt x="39" y="0" on="1"/>
        <pt x="39" y="700" on="1"/>
        <pt x="138" y="700" on="1"/>
        <pt x="300" y="194" on="1"/>
        <pt x="300" y="700" on="1"/>
        <pt x="369" y="700" on="1"/>
        <pt x="369" y="0" on="1"/>
        <pt x="288" y="0" on="1"/>
        <pt x="109" y="566" on="1"/>
        <pt x="109" y="0" on="1"/>
      </contour>
    </TTGlyph>
    <TTGlyph name="O" xMin="34" yMin="-7" xMax="355" yMax="707">
      <contour>
        <pt x="34" y="613" on="0"/>
        <pt x="115" y="707" on="0"/>
        <pt x="194" y="707" on="1"/>
        <pt x="273" y="707" on="0"/>
        <pt x="355" y="613" on="0"/>
        <pt x="355" y="531" on="1"/>
        <pt x="355" y="169" on="1"/>
        <pt x="355" y="87" on="0"/>
        <pt x="273" y="-7" on="0"/>
        <pt x="194" y="-7" on="1"/>
        <pt x="116" y="-7" on="0"/>
        <pt x="34" y="87" on="0"/>
        <pt x="34" y="169" on="1"/>
        <pt x="34" y="531" on="1"/>
      </contour>
      <contour>
        <pt x="111" y="116" on="0"/>
        <pt x="153" y="64" on="0"/>
        <pt x="194" y="64" on="1"/>
        <pt x="277" y="64" on="0"/>
        <pt x="277" y="165" on="1"/>
        <pt x="277" y="535" on="1"/>
        <pt x="277" y="583" on="0"/>
        <pt x="236" y="636" on="0"/>
        <pt x="194" y="636" on="1"/>
        <pt x="153" y="636" on="0"/>
        <pt x="111" y="583" on="0"/>
        <pt x="111" y="535" on="1"/>
        <pt x="111" y="165" on="1"/>
      </contour>
    </TTGlyph>
    <TTGlyph name="OE" xMin="33" yMin="0" xMax="545" yMax="700">
      <contour>
        <pt x="508" y="320" on="1"/>
        <pt x="347" y="320" on="1"/>
        <pt x="347" y="71" on="1"/>
        <pt x="545" y="71" on="1"/>
        <pt x="545" y="0" on="1"/>
        <pt x="188" y="0" on="1"/>
        <pt x="110" y="0" on="0"/>
        <pt x="33" y="92" on="0"/>
        <pt x="33" y="174" on="1"/>
        <pt x="33" y="526" on="1"/>
        <pt x="33" y="608" on="0"/>
        <pt x="110" y="700" on="0"/>
        <pt x="188" y="700" on="1"/>
        <pt x="545" y="700" on="1"/>
        <pt x="545" y="629" on="1"/>
        <pt x="347" y="629" on="1"/>
        <pt x="347" y="390" on="1"/>
        <pt x="508" y="390" on="1"/>
      </contour>
      <contour>
        <pt x="149" y="629" on="0"/>
        <pt x="111" y="577" on="0"/>
        <pt x="111" y="530" on="1"/>
        <pt x="111" y="170" on="1"/>
        <pt x="111" y="123" on="0"/>
        <pt x="149" y="71" on="0"/>
        <pt x="189" y="71" on="1"/>
        <pt x="270" y="71" on="1"/>
        <pt x="270" y="629" on="1"/>
        <pt x="189" y="629" on="1"/>
      </contour>
    </TTGlyph>
    <TTGlyph name="Oacute" xMin="34" yMin="-7" xMax="355" yMax="845">
      <contour>
        <pt x="200" y="742" on="1"/>
        <pt x="146" y="742" on="1"/>
        <pt x="216" y="845" on="1"/>
        <pt x="293" y="845" on="1"/>
      </contour>
      <contour>
        <pt x="273" y="707" on="0"/>
        <pt x="355" y="613" on="0"/>
        <pt x="355" y="531" on="1"/>
        <pt x="355" y="169" on="1"/>
        <pt x="355" y="87" on="0"/>
        <pt x="273" y="-7" on="0"/>
        <pt x="194" y="-7" on="1"/>
        <pt x="116" y="-7" on="0"/>
        <pt x="34" y="87" on="0"/>
        <pt x="34" y="169" on="1"/>
        <pt x="34" y="531" on="1"/>
        <pt x="34" y="613" on="0"/>
        <pt x="115" y="707" on="0"/>
        <pt x="194" y="707" on="1"/>
      </contour>
      <contour>
        <pt x="153" y="636" on="0"/>
        <pt x="111" y="583" on="0"/>
        <pt x="111" y="535" on="1"/>
        <pt x="111" y="165" on="1"/>
        <pt x="111" y="116" on="0"/>
        <pt x="153" y="64" on="0"/>
        <pt x="194" y="64" on="1"/>
        <pt x="277" y="64" on="0"/>
        <pt x="277" y="165" on="1"/>
        <pt x="277" y="535" on="1"/>
        <pt x="277" y="583" on="0"/>
        <pt x="236" y="636" on="0"/>
        <pt x="194" y="636" on="1"/>
      </contour>
    </TTGlyph>
    <TTGlyph name="Obreve" xMin="34" yMin="-7" xMax="355" yMax="841">
      <contour>
        <pt x="298" y="794" on="0"/>
        <pt x="242" y="740" on="0"/>
        <pt x="193" y="740" on="1"/>
        <pt x="145" y="740" on="0"/>
        <pt x="91" y="794" on="0"/>
        <pt x="90" y="841" on="1"/>
        <pt x="137" y="841" on="1"/>
        <pt x="140" y="789" on="0"/>
        <pt x="193" y="789" on="1"/>
        <pt x="248" y="789" on="0"/>
        <pt x="252" y="841" on="1"/>
        <pt x="299" y="841" on="1"/>
      </contour>
      <contour>
        <pt x="273" y="707" on="0"/>
        <pt x="355" y="613" on="0"/>
        <pt x="355" y="531" on="1"/>
        <pt x="355" y="169" on="1"/>
        <pt x="355" y="87" on="0"/>
        <pt x="273" y="-7" on="0"/>
        <pt x="194" y="-7" on="1"/>
        <pt x="116" y="-7" on="0"/>
        <pt x="34" y="87" on="0"/>
        <pt x="34" y="169" on="1"/>
        <pt x="34" y="531" on="1"/>
        <pt x="34" y="613" on="0"/>
        <pt x="115" y="707" on="0"/>
        <pt x="194" y="707" on="1"/>
      </contour>
      <contour>
        <pt x="153" y="636" on="0"/>
        <pt x="111" y="583" on="0"/>
        <pt x="111" y="535" on="1"/>
        <pt x="111" y="165" on="1"/>
        <pt x="111" y="116" on="0"/>
        <pt x="153" y="64" on="0"/>
        <pt x="194" y="64" on="1"/>
        <pt x="277" y="64" on="0"/>
        <pt x="277" y="165" on="1"/>
        <pt x="277" y="535" on="1"/>
        <pt x="277" y="583" on="0"/>
        <pt x="236" y="636" on="0"/>
        <pt x="194" y="636" on="1"/>
      </contour>
    </TTGlyph>
    <TTGlyph name="Ocircumflex" xMin="34" yMin="-7" xMax="355" yMax="842">
      <contour>
        <pt x="73" y="741" on="1"/>
        <pt x="159" y="842" on="1"/>
        <pt x="228" y="842" on="1"/>
        <pt x="315" y="741" on="1"/>
        <pt x="247" y="741" on="1"/>
        <pt x="193" y="800" on="1"/>
        <pt x="141" y="741" on="1"/>
      </contour>
      <contour>
        <pt x="273" y="707" on="0"/>
        <pt x="355" y="613" on="0"/>
        <pt x="355" y="531" on="1"/>
        <pt x="355" y="169" on="1"/>
        <pt x="355" y="87" on="0"/>
        <pt x="273" y="-7" on="0"/>
        <pt x="194" y="-7" on="1"/>
        <pt x="116" y="-7" on="0"/>
        <pt x="34" y="87" on="0"/>
        <pt x="34" y="169" on="1"/>
        <pt x="34" y="531" on="1"/>
        <pt x="34" y="613" on="0"/>
        <pt x="115" y="707" on="0"/>
        <pt x="194" y="707" on="1"/>
      </contour>
      <contour>
        <pt x="153" y="636" on="0"/>
        <pt x="111" y="583" on="0"/>
        <pt x="111" y="535" on="1"/>
        <pt x="111" y="165" on="1"/>
        <pt x="111" y="116" on="0"/>
        <pt x="153" y="64" on="0"/>
        <pt x="194" y="64" on="1"/>
        <pt x="277" y="64" on="0"/>
        <pt x="277" y="165" on="1"/>
        <pt x="277" y="535" on="1"/>
        <pt x="277" y="583" on="0"/>
        <pt x="236" y="636" on="0"/>
        <pt x="194" y="636" on="1"/>
      </contour>
    </TTGlyph>
    <TTGlyph name="Odieresis" xMin="34" yMin="-7" xMax="355" yMax="831">
      <contour>
        <pt x="166" y="741" on="1"/>
        <pt x="98" y="741" on="1"/>
        <pt x="98" y="831" on="1"/>
        <pt x="166" y="831" on="1"/>
      </contour>
      <contour>
        <pt x="290" y="741" on="1"/>
        <pt x="222" y="741" on="1"/>
        <pt x="222" y="831" on="1"/>
        <pt x="290" y="831" on="1"/>
      </contour>
      <contour>
        <pt x="273" y="707" on="0"/>
        <pt x="355" y="613" on="0"/>
        <pt x="355" y="531" on="1"/>
        <pt x="355" y="169" on="1"/>
        <pt x="355" y="87" on="0"/>
        <pt x="273" y="-7" on="0"/>
        <pt x="194" y="-7" on="1"/>
        <pt x="116" y="-7" on="0"/>
        <pt x="34" y="87" on="0"/>
        <pt x="34" y="169" on="1"/>
        <pt x="34" y="531" on="1"/>
        <pt x="34" y="613" on="0"/>
        <pt x="115" y="707" on="0"/>
        <pt x="194" y="707" on="1"/>
      </contour>
      <contour>
        <pt x="153" y="636" on="0"/>
        <pt x="111" y="583" on="0"/>
        <pt x="111" y="535" on="1"/>
        <pt x="111" y="165" on="1"/>
        <pt x="111" y="116" on="0"/>
        <pt x="153" y="64" on="0"/>
        <pt x="194" y="64" on="1"/>
        <pt x="277" y="64" on="0"/>
        <pt x="277" y="165" on="1"/>
        <pt x="277" y="535" on="1"/>
        <pt x="277" y="583" on="0"/>
        <pt x="236" y="636" on="0"/>
        <pt x="194" y="636" on="1"/>
      </contour>
    </TTGlyph>
    <TTGlyph name="Ograve" xMin="34" yMin="-7" xMax="355" yMax="845">
      <contour>
        <pt x="243" y="742" on="1"/>
        <pt x="186" y="742" on="1"/>
        <pt x="93" y="845" on="1"/>
        <pt x="174" y="845" on="1"/>
      </contour>
      <contour>
        <pt x="273" y="707" on="0"/>
        <pt x="355" y="613" on="0"/>
        <pt x="355" y="531" on="1"/>
        <pt x="355" y="169" on="1"/>
        <pt x="355" y="87" on="0"/>
        <pt x="273" y="-7" on="0"/>
        <pt x="194" y="-7" on="1"/>
        <pt x="116" y="-7" on="0"/>
        <pt x="34" y="87" on="0"/>
        <pt x="34" y="169" on="1"/>
        <pt x="34" y="531" on="1"/>
        <pt x="34" y="613" on="0"/>
        <pt x="115" y="707" on="0"/>
        <pt x="194" y="707" on="1"/>
      </contour>
      <contour>
        <pt x="153" y="636" on="0"/>
        <pt x="111" y="583" on="0"/>
        <pt x="111" y="535" on="1"/>
        <pt x="111" y="165" on="1"/>
        <pt x="111" y="116" on="0"/>
        <pt x="153" y="64" on="0"/>
        <pt x="194" y="64" on="1"/>
        <pt x="277" y="64" on="0"/>
        <pt x="277" y="165" on="1"/>
        <pt x="277" y="535" on="1"/>
        <pt x="277" y="583" on="0"/>
        <pt x="236" y="636" on="0"/>
        <pt x="194" y="636" on="1"/>
      </contour>
    </TTGlyph>
    <TTGlyph name="Ohungarumlaut" xMin="34" yMin="-7" xMax="355" yMax="845">
      <contour>
        <pt x="150" y="742" on="1"/>
        <pt x="101" y="742" on="1"/>
        <pt x="158" y="845" on="1"/>
        <pt x="230" y="845" on="1"/>
      </contour>
      <contour>
        <pt x="257" y="742" on="1"/>
        <pt x="208" y="742" on="1"/>
        <pt x="265" y="845" on="1"/>
        <pt x="338" y="845" on="1"/>
      </contour>
      <contour>
        <pt x="273" y="707" on="0"/>
        <pt x="355" y="613" on="0"/>
        <pt x="355" y="531" on="1"/>
        <pt x="355" y="169" on="1"/>
        <pt x="355" y="87" on="0"/>
        <pt x="273" y="-7" on="0"/>
        <pt x="194" y="-7" on="1"/>
        <pt x="116" y="-7" on="0"/>
        <pt x="34" y="87" on="0"/>
        <pt x="34" y="169" on="1"/>
        <pt x="34" y="531" on="1"/>
        <pt x="34" y="613" on="0"/>
        <pt x="115" y="707" on="0"/>
        <pt x="194" y="707" on="1"/>
      </contour>
      <contour>
        <pt x="153" y="636" on="0"/>
        <pt x="111" y="583" on="0"/>
        <pt x="111" y="535" on="1"/>
        <pt x="111" y="165" on="1"/>
        <pt x="111" y="116" on="0"/>
        <pt x="153" y="64" on="0"/>
        <pt x="194" y="64" on="1"/>
        <pt x="277" y="64" on="0"/>
        <pt x="277" y="165" on="1"/>
        <pt x="277" y="535" on="1"/>
        <pt x="277" y="583" on="0"/>
        <pt x="236" y="636" on="0"/>
        <pt x="194" y="636" on="1"/>
      </contour>
    </TTGlyph>
    <TTGlyph name="Omacron" xMin="34" yMin="-7" xMax="355" yMax="806">
      <contour>
        <pt x="299" y="751" on="1"/>
        <pt x="91" y="751" on="1"/>
        <pt x="91" y="806" on="1"/>
        <pt x="299" y="806" on="1"/>
      </contour>
      <contour>
        <pt x="273" y="707" on="0"/>
        <pt x="355" y="613" on="0"/>
        <pt x="355" y="531" on="1"/>
        <pt x="355" y="169" on="1"/>
        <pt x="355" y="87" on="0"/>
        <pt x="273" y="-7" on="0"/>
        <pt x="194" y="-7" on="1"/>
        <pt x="116" y="-7" on="0"/>
        <pt x="34" y="87" on="0"/>
        <pt x="34" y="169" on="1"/>
        <pt x="34" y="531" on="1"/>
        <pt x="34" y="613" on="0"/>
        <pt x="115" y="707" on="0"/>
        <pt x="194" y="707" on="1"/>
      </contour>
      <contour>
        <pt x="153" y="636" on="0"/>
        <pt x="111" y="583" on="0"/>
        <pt x="111" y="535" on="1"/>
        <pt x="111" y="165" on="1"/>
        <pt x="111" y="116" on="0"/>
        <pt x="153" y="64" on="0"/>
        <pt x="194" y="64" on="1"/>
        <pt x="277" y="64" on="0"/>
        <pt x="277" y="165" on="1"/>
        <pt x="277" y="535" on="1"/>
        <pt x="277" y="583" on="0"/>
        <pt x="236" y="636" on="0"/>
        <pt x="194" y="636" on="1"/>
      </contour>
    </TTGlyph>
    <TTGlyph name="Oslash" xMin="34" yMin="-26" xMax="355" yMax="725">
      <contour>
        <pt x="355" y="601" on="0"/>
        <pt x="355" y="531" on="1"/>
        <pt x="355" y="169" on="1"/>
        <pt x="355" y="87" on="0"/>
        <pt x="273" y="-7" on="0"/>
        <pt x="194" y="-7" on="1"/>
        <pt x="131" y="-7" on="0"/>
        <pt x="92" y="24" on="1"/>
        <pt x="73" y="-26" on="1"/>
        <pt x="39" y="-13" on="1"/>
        <pt x="64" y="54" on="1"/>
        <pt x="34" y="99" on="0"/>
        <pt x="34" y="169" on="1"/>
        <pt x="34" y="531" on="1"/>
        <pt x="34" y="613" on="0"/>
        <pt x="115" y="707" on="0"/>
        <pt x="194" y="707" on="1"/>
        <pt x="257" y="707" on="0"/>
        <pt x="297" y="676" on="1"/>
        <pt x="315" y="725" on="1"/>
        <pt x="350" y="712" on="1"/>
        <pt x="325" y="646" on="1"/>
      </contour>
      <contour>
        <pt x="246" y="636" on="0"/>
        <pt x="194" y="636" on="1"/>
        <pt x="153" y="636" on="0"/>
        <pt x="111" y="583" on="0"/>
        <pt x="111" y="535" on="1"/>
        <pt x="111" y="180" on="1"/>
        <pt x="266" y="594" on="1"/>
      </contour>
      <contour>
        <pt x="277" y="64" on="0"/>
        <pt x="277" y="165" on="1"/>
        <pt x="277" y="518" on="1"/>
        <pt x="122" y="105" on="1"/>
        <pt x="143" y="64" on="0"/>
        <pt x="194" y="64" on="1"/>
      </contour>
    </TTGlyph>
    <TTGlyph name="Oslashacute" xMin="34" yMin="-26" xMax="355" yMax="845">
      <contour>
        <pt x="297" y="845" on="1"/>
        <pt x="204" y="742" on="1"/>
        <pt x="149" y="742" on="1"/>
        <pt x="219" y="845" on="1"/>
      </contour>
      <contour>
        <pt x="355" y="601" on="0"/>
        <pt x="355" y="531" on="1"/>
        <pt x="355" y="169" on="1"/>
        <pt x="355" y="87" on="0"/>
        <pt x="273" y="-7" on="0"/>
        <pt x="194" y="-7" on="1"/>
        <pt x="131" y="-7" on="0"/>
        <pt x="92" y="24" on="1"/>
        <pt x="73" y="-26" on="1"/>
        <pt x="39" y="-13" on="1"/>
        <pt x="64" y="54" on="1"/>
        <pt x="34" y="99" on="0"/>
        <pt x="34" y="169" on="1"/>
        <pt x="34" y="531" on="1"/>
        <pt x="34" y="613" on="0"/>
        <pt x="115" y="707" on="0"/>
        <pt x="194" y="707" on="1"/>
        <pt x="257" y="707" on="0"/>
        <pt x="297" y="676" on="1"/>
        <pt x="315" y="725" on="1"/>
        <pt x="350" y="712" on="1"/>
        <pt x="325" y="646" on="1"/>
      </contour>
      <contour>
        <pt x="246" y="636" on="0"/>
        <pt x="194" y="636" on="1"/>
        <pt x="153" y="636" on="0"/>
        <pt x="111" y="583" on="0"/>
        <pt x="111" y="535" on="1"/>
        <pt x="111" y="180" on="1"/>
        <pt x="266" y="594" on="1"/>
      </contour>
      <contour>
        <pt x="277" y="64" on="0"/>
        <pt x="277" y="165" on="1"/>
        <pt x="277" y="518" on="1"/>
        <pt x="122" y="105" on="1"/>
        <pt x="143" y="64" on="0"/>
        <pt x="194" y="64" on="1"/>
      </contour>
    </TTGlyph>
    <TTGlyph name="Otilde" xMin="34" yMin="-7" xMax="355" yMax="829">
      <contour>
        <pt x="297" y="745" on="0"/>
        <pt x="245" y="745" on="1"/>
        <pt x="223" y="745" on="0"/>
        <pt x="195" y="761" on="1"/>
        <pt x="185" y="766" on="0"/>
        <pt x="164" y="774" on="0"/>
        <pt x="155" y="774" on="1"/>
        <pt x="141" y="774" on="0"/>
        <pt x="121" y="760" on="0"/>
        <pt x="113" y="744" on="1"/>
        <pt x="74" y="771" on="1"/>
        <pt x="97" y="827" on="0"/>
        <pt x="148" y="829" on="1"/>
        <pt x="162" y="829" on="0"/>
        <pt x="186" y="820" on="0"/>
        <pt x="201" y="812" on="1"/>
        <pt x="225" y="799" on="0"/>
        <pt x="240" y="799" on="1"/>
        <pt x="253" y="800" on="0"/>
        <pt x="272" y="814" on="0"/>
        <pt x="280" y="829" on="1"/>
        <pt x="318" y="802" on="1"/>
      </contour>
      <contour>
        <pt x="273" y="707" on="0"/>
        <pt x="355" y="613" on="0"/>
        <pt x="355" y="531" on="1"/>
        <pt x="355" y="169" on="1"/>
        <pt x="355" y="87" on="0"/>
        <pt x="273" y="-7" on="0"/>
        <pt x="194" y="-7" on="1"/>
        <pt x="116" y="-7" on="0"/>
        <pt x="34" y="87" on="0"/>
        <pt x="34" y="169" on="1"/>
        <pt x="34" y="531" on="1"/>
        <pt x="34" y="613" on="0"/>
        <pt x="115" y="707" on="0"/>
        <pt x="194" y="707" on="1"/>
      </contour>
      <contour>
        <pt x="153" y="636" on="0"/>
        <pt x="111" y="583" on="0"/>
        <pt x="111" y="535" on="1"/>
        <pt x="111" y="165" on="1"/>
        <pt x="111" y="116" on="0"/>
        <pt x="153" y="64" on="0"/>
        <pt x="194" y="64" on="1"/>
        <pt x="277" y="64" on="0"/>
        <pt x="277" y="165" on="1"/>
        <pt x="277" y="535" on="1"/>
        <pt x="277" y="583" on="0"/>
        <pt x="236" y="636" on="0"/>
        <pt x="194" y="636" on="1"/>
      </contour>
    </TTGlyph>
    <TTGlyph name="P" xMin="40" yMin="0" xMax="350" yMax="700">
      <contour>
        <pt x="273" y="700" on="0"/>
        <pt x="350" y="611" on="0"/>
        <pt x="350" y="529" on="1"/>
        <pt x="350" y="445" on="1"/>
        <pt x="350" y="276" on="0"/>
        <pt x="187" y="276" on="1"/>
        <pt x="118" y="276" on="1"/>
        <pt x="118" y="0" on="1"/>
        <pt x="40" y="0" on="1"/>
        <pt x="40" y="700" on="1"/>
        <pt x="193" y="700" on="1"/>
      </contour>
      <contour>
        <pt x="231" y="346" on="0"/>
        <pt x="273" y="390" on="0"/>
        <pt x="273" y="440" on="1"/>
        <pt x="273" y="533" on="1"/>
        <pt x="273" y="582" on="0"/>
        <pt x="235" y="629" on="0"/>
        <pt x="193" y="629" on="1"/>
        <pt x="118" y="629" on="1"/>
        <pt x="118" y="346" on="1"/>
        <pt x="187" y="346" on="1"/>
      </contour>
    </TTGlyph>
    <TTGlyph name="Q" xMin="34" yMin="-31" xMax="381" yMax="707">
      <contour>
        <pt x="273" y="707" on="0"/>
        <pt x="355" y="613" on="0"/>
        <pt x="355" y="531" on="1"/>
        <pt x="355" y="169" on="1"/>
        <pt x="355" y="102" on="0"/>
        <pt x="328" y="60" on="1"/>
        <pt x="334" y="48" on="0"/>
        <pt x="354" y="38" on="0"/>
        <pt x="371" y="38" on="1"/>
        <pt x="381" y="38" on="1"/>
        <pt x="381" y="-31" on="1"/>
        <pt x="368" y="-31" on="1"/>
        <pt x="304" y="-31" on="0"/>
        <pt x="279" y="14" on="1"/>
        <pt x="243" y="-7" on="0"/>
        <pt x="194" y="-7" on="1"/>
        <pt x="116" y="-7" on="0"/>
        <pt x="34" y="87" on="0"/>
        <pt x="34" y="169" on="1"/>
        <pt x="34" y="531" on="1"/>
        <pt x="34" y="613" on="0"/>
        <pt x="115" y="707" on="0"/>
        <pt x="194" y="707" on="1"/>
      </contour>
      <contour>
        <pt x="153" y="636" on="0"/>
        <pt x="111" y="583" on="0"/>
        <pt x="111" y="535" on="1"/>
        <pt x="111" y="165" on="1"/>
        <pt x="111" y="116" on="0"/>
        <pt x="153" y="64" on="0"/>
        <pt x="194" y="64" on="1"/>
        <pt x="277" y="64" on="0"/>
        <pt x="277" y="165" on="1"/>
        <pt x="277" y="535" on="1"/>
        <pt x="277" y="583" on="0"/>
        <pt x="236" y="636" on="0"/>
        <pt x="194" y="636" on="1"/>
      </contour>
    </TTGlyph>
    <TTGlyph name="R" xMin="40" yMin="0" xMax="367" yMax="700">
      <contour>
        <pt x="277" y="700" on="0"/>
        <pt x="352" y="620" on="0"/>
        <pt x="352" y="540" on="1"/>
        <pt x="352" y="483" on="1"/>
        <pt x="352" y="425" on="0"/>
        <pt x="310" y="353" on="0"/>
        <pt x="265" y="339" on="1"/>
        <pt x="311" y="325" on="0"/>
        <pt x="353" y="252" on="0"/>
        <pt x="353" y="193" on="1"/>
        <pt x="353" y="84" on="1"/>
        <pt x="353" y="55" on="0"/>
        <pt x="358" y="16" on="0"/>
        <pt x="367" y="0" on="1"/>
        <pt x="288" y="0" on="1"/>
        <pt x="281" y="16" on="0"/>
        <pt x="275" y="51" on="0"/>
        <pt x="275" y="85" on="1"/>
        <pt x="275" y="195" on="1"/>
        <pt x="275" y="252" on="0"/>
        <pt x="224" y="299" on="0"/>
        <pt x="173" y="299" on="1"/>
        <pt x="118" y="299" on="1"/>
        <pt x="118" y="0" on="1"/>
        <pt x="40" y="0" on="1"/>
        <pt x="40" y="700" on="1"/>
        <pt x="196" y="700" on="1"/>
      </contour>
      <contour>
        <pt x="226" y="370" on="0"/>
        <pt x="275" y="412" on="0"/>
        <pt x="275" y="466" on="1"/>
        <pt x="275" y="533" on="1"/>
        <pt x="275" y="581" on="0"/>
        <pt x="237" y="629" on="0"/>
        <pt x="194" y="629" on="1"/>
        <pt x="118" y="629" on="1"/>
        <pt x="118" y="370" on="1"/>
        <pt x="176" y="370" on="1"/>
      </contour>
    </TTGlyph>
    <TTGlyph name="Racute" xMin="40" yMin="0" xMax="367" yMax="845">
      <contour>
        <pt x="194" y="742" on="1"/>
        <pt x="140" y="742" on="1"/>
        <pt x="209" y="845" on="1"/>
        <pt x="287" y="845" on="1"/>
      </contour>
      <contour>
        <pt x="277" y="700" on="0"/>
        <pt x="352" y="620" on="0"/>
        <pt x="352" y="540" on="1"/>
        <pt x="352" y="483" on="1"/>
        <pt x="352" y="425" on="0"/>
        <pt x="310" y="353" on="0"/>
        <pt x="265" y="339" on="1"/>
        <pt x="311" y="325" on="0"/>
        <pt x="353" y="252" on="0"/>
        <pt x="353" y="193" on="1"/>
        <pt x="353" y="84" on="1"/>
        <pt x="353" y="55" on="0"/>
        <pt x="358" y="16" on="0"/>
        <pt x="367" y="0" on="1"/>
        <pt x="288" y="0" on="1"/>
        <pt x="281" y="16" on="0"/>
        <pt x="275" y="51" on="0"/>
        <pt x="275" y="85" on="1"/>
        <pt x="275" y="195" on="1"/>
        <pt x="275" y="252" on="0"/>
        <pt x="224" y="299" on="0"/>
        <pt x="173" y="299" on="1"/>
        <pt x="118" y="299" on="1"/>
        <pt x="118" y="0" on="1"/>
        <pt x="40" y="0" on="1"/>
        <pt x="40" y="700" on="1"/>
        <pt x="196" y="700" on="1"/>
      </contour>
      <contour>
        <pt x="226" y="370" on="0"/>
        <pt x="275" y="412" on="0"/>
        <pt x="275" y="466" on="1"/>
        <pt x="275" y="533" on="1"/>
        <pt x="275" y="581" on="0"/>
        <pt x="237" y="629" on="0"/>
        <pt x="194" y="629" on="1"/>
        <pt x="118" y="629" on="1"/>
        <pt x="118" y="370" on="1"/>
        <pt x="176" y="370" on="1"/>
      </contour>
    </TTGlyph>
    <TTGlyph name="Rcaron" xMin="40" yMin="0" xMax="367" yMax="842">
      <contour>
        <pt x="186" y="782" on="1"/>
        <pt x="239" y="842" on="1"/>
        <pt x="307" y="842" on="1"/>
        <pt x="220" y="742" on="1"/>
        <pt x="151" y="742" on="1"/>
        <pt x="65" y="842" on="1"/>
        <pt x="133" y="842" on="1"/>
      </contour>
      <contour>
        <pt x="277" y="700" on="0"/>
        <pt x="352" y="620" on="0"/>
        <pt x="352" y="540" on="1"/>
        <pt x="352" y="483" on="1"/>
        <pt x="352" y="425" on="0"/>
        <pt x="310" y="353" on="0"/>
        <pt x="265" y="339" on="1"/>
        <pt x="311" y="325" on="0"/>
        <pt x="353" y="252" on="0"/>
        <pt x="353" y="193" on="1"/>
        <pt x="353" y="84" on="1"/>
        <pt x="353" y="55" on="0"/>
        <pt x="358" y="16" on="0"/>
        <pt x="367" y="0" on="1"/>
        <pt x="288" y="0" on="1"/>
        <pt x="281" y="16" on="0"/>
        <pt x="275" y="51" on="0"/>
        <pt x="275" y="85" on="1"/>
        <pt x="275" y="195" on="1"/>
        <pt x="275" y="252" on="0"/>
        <pt x="224" y="299" on="0"/>
        <pt x="173" y="299" on="1"/>
        <pt x="118" y="299" on="1"/>
        <pt x="118" y="0" on="1"/>
        <pt x="40" y="0" on="1"/>
        <pt x="40" y="700" on="1"/>
        <pt x="196" y="700" on="1"/>
      </contour>
      <contour>
        <pt x="226" y="370" on="0"/>
        <pt x="275" y="412" on="0"/>
        <pt x="275" y="466" on="1"/>
        <pt x="275" y="533" on="1"/>
        <pt x="275" y="581" on="0"/>
        <pt x="237" y="629" on="0"/>
        <pt x="194" y="629" on="1"/>
        <pt x="118" y="629" on="1"/>
        <pt x="118" y="370" on="1"/>
        <pt x="176" y="370" on="1"/>
      </contour>
    </TTGlyph>
    <TTGlyph name="S" xMin="29" yMin="-7" xMax="344" yMax="707">
      <contour>
        <pt x="264" y="707" on="0"/>
        <pt x="343" y="614" on="0"/>
        <pt x="343" y="532" on="1"/>
        <pt x="343" y="513" on="1"/>
        <pt x="269" y="513" on="1"/>
        <pt x="269" y="536" on="1"/>
        <pt x="269" y="636" on="0"/>
        <pt x="189" y="636" on="1"/>
        <pt x="109" y="636" on="0"/>
        <pt x="109" y="537" on="1"/>
        <pt x="109" y="487" on="0"/>
        <pt x="163" y="418" on="0"/>
        <pt x="217" y="376" on="1"/>
        <pt x="260" y="340" on="0"/>
        <pt x="309" y="290" on="0"/>
        <pt x="344" y="216" on="0"/>
        <pt x="344" y="168" on="1"/>
        <pt x="344" y="86" on="0"/>
        <pt x="264" y="-7" on="0"/>
        <pt x="186" y="-7" on="1"/>
        <pt x="108" y="-7" on="0"/>
        <pt x="29" y="86" on="0"/>
        <pt x="29" y="168" on="1"/>
        <pt x="29" y="208" on="1"/>
        <pt x="102" y="208" on="1"/>
        <pt x="102" y="164" on="1"/>
        <pt x="102" y="116" on="0"/>
        <pt x="143" y="64" on="0"/>
        <pt x="184" y="64" on="1"/>
        <pt x="225" y="64" on="0"/>
        <pt x="266" y="116" on="0"/>
        <pt x="266" y="164" on="1"/>
        <pt x="266" y="213" on="0"/>
        <pt x="213" y="281" on="0"/>
        <pt x="159" y="324" on="1"/>
        <pt x="118" y="358" on="0"/>
        <pt x="67" y="409" on="0"/>
        <pt x="32" y="484" on="0"/>
        <pt x="32" y="532" on="1"/>
        <pt x="32" y="615" on="0"/>
        <pt x="110" y="707" on="0"/>
        <pt x="187" y="707" on="1"/>
      </contour>
    </TTGlyph>
    <TTGlyph name="Sacute" xMin="29" yMin="-7" xMax="344" yMax="845">
      <contour>
        <pt x="196" y="742" on="1"/>
        <pt x="142" y="742" on="1"/>
        <pt x="211" y="845" on="1"/>
        <pt x="289" y="845" on="1"/>
      </contour>
      <contour>
        <pt x="264" y="707" on="0"/>
        <pt x="343" y="614" on="0"/>
        <pt x="343" y="532" on="1"/>
        <pt x="343" y="513" on="1"/>
        <pt x="269" y="513" on="1"/>
        <pt x="269" y="536" on="1"/>
        <pt x="269" y="636" on="0"/>
        <pt x="189" y="636" on="1"/>
        <pt x="109" y="636" on="0"/>
        <pt x="109" y="537" on="1"/>
        <pt x="109" y="487" on="0"/>
        <pt x="163" y="418" on="0"/>
        <pt x="217" y="376" on="1"/>
        <pt x="260" y="340" on="0"/>
        <pt x="309" y="290" on="0"/>
        <pt x="344" y="216" on="0"/>
        <pt x="344" y="168" on="1"/>
        <pt x="344" y="86" on="0"/>
        <pt x="264" y="-7" on="0"/>
        <pt x="186" y="-7" on="1"/>
        <pt x="108" y="-7" on="0"/>
        <pt x="29" y="86" on="0"/>
        <pt x="29" y="168" on="1"/>
        <pt x="29" y="208" on="1"/>
        <pt x="102" y="208" on="1"/>
        <pt x="102" y="164" on="1"/>
        <pt x="102" y="116" on="0"/>
        <pt x="143" y="64" on="0"/>
        <pt x="184" y="64" on="1"/>
        <pt x="225" y="64" on="0"/>
        <pt x="266" y="116" on="0"/>
        <pt x="266" y="164" on="1"/>
        <pt x="266" y="213" on="0"/>
        <pt x="213" y="281" on="0"/>
        <pt x="159" y="324" on="1"/>
        <pt x="118" y="358" on="0"/>
        <pt x="67" y="409" on="0"/>
        <pt x="32" y="484" on="0"/>
        <pt x="32" y="532" on="1"/>
        <pt x="32" y="615" on="0"/>
        <pt x="110" y="707" on="0"/>
        <pt x="187" y="707" on="1"/>
      </contour>
    </TTGlyph>
    <TTGlyph name="Scaron" xMin="29" yMin="-7" xMax="344" yMax="842">
      <contour>
        <pt x="187" y="782" on="1"/>
        <pt x="240" y="842" on="1"/>
        <pt x="309" y="842" on="1"/>
        <pt x="222" y="742" on="1"/>
        <pt x="153" y="742" on="1"/>
        <pt x="67" y="842" on="1"/>
        <pt x="135" y="842" on="1"/>
      </contour>
      <contour>
        <pt x="264" y="707" on="0"/>
        <pt x="343" y="614" on="0"/>
        <pt x="343" y="532" on="1"/>
        <pt x="343" y="513" on="1"/>
        <pt x="269" y="513" on="1"/>
        <pt x="269" y="536" on="1"/>
        <pt x="269" y="636" on="0"/>
        <pt x="189" y="636" on="1"/>
        <pt x="109" y="636" on="0"/>
        <pt x="109" y="537" on="1"/>
        <pt x="109" y="487" on="0"/>
        <pt x="163" y="418" on="0"/>
        <pt x="217" y="376" on="1"/>
        <pt x="260" y="340" on="0"/>
        <pt x="309" y="290" on="0"/>
        <pt x="344" y="216" on="0"/>
        <pt x="344" y="168" on="1"/>
        <pt x="344" y="86" on="0"/>
        <pt x="264" y="-7" on="0"/>
        <pt x="186" y="-7" on="1"/>
        <pt x="108" y="-7" on="0"/>
        <pt x="29" y="86" on="0"/>
        <pt x="29" y="168" on="1"/>
        <pt x="29" y="208" on="1"/>
        <pt x="102" y="208" on="1"/>
        <pt x="102" y="164" on="1"/>
        <pt x="102" y="116" on="0"/>
        <pt x="143" y="64" on="0"/>
        <pt x="184" y="64" on="1"/>
        <pt x="225" y="64" on="0"/>
        <pt x="266" y="116" on="0"/>
        <pt x="266" y="164" on="1"/>
        <pt x="266" y="213" on="0"/>
        <pt x="213" y="281" on="0"/>
        <pt x="159" y="324" on="1"/>
        <pt x="118" y="358" on="0"/>
        <pt x="67" y="409" on="0"/>
        <pt x="32" y="484" on="0"/>
        <pt x="32" y="532" on="1"/>
        <pt x="32" y="615" on="0"/>
        <pt x="110" y="707" on="0"/>
        <pt x="187" y="707" on="1"/>
      </contour>
    </TTGlyph>
    <TTGlyph name="Scedilla" xMin="29" yMin="-152" xMax="344" yMax="707">
      <contour>
        <pt x="236" y="-37" on="0"/>
        <pt x="275" y="-64" on="0"/>
        <pt x="275" y="-88" on="1"/>
        <pt x="275" y="-118" on="0"/>
        <pt x="225" y="-152" on="0"/>
        <pt x="180" y="-152" on="1"/>
        <pt x="137" y="-152" on="0"/>
        <pt x="88" y="-119" on="0"/>
        <pt x="88" y="-90" on="1"/>
        <pt x="88" y="-82" on="1"/>
        <pt x="139" y="-82" on="1"/>
        <pt x="139" y="-89" on="1"/>
        <pt x="139" y="-101" on="0"/>
        <pt x="161" y="-117" on="0"/>
        <pt x="180" y="-118" on="1"/>
        <pt x="200" y="-118" on="0"/>
        <pt x="223" y="-101" on="0"/>
        <pt x="223" y="-86" on="1"/>
        <pt x="223" y="-72" on="0"/>
        <pt x="197" y="-56" on="0"/>
        <pt x="174" y="-56" on="1"/>
        <pt x="165" y="-56" on="1"/>
        <pt x="165" y="-6" on="1"/>
        <pt x="96" y="0" on="0"/>
        <pt x="29" y="91" on="0"/>
        <pt x="29" y="168" on="1"/>
        <pt x="29" y="208" on="1"/>
        <pt x="102" y="208" on="1"/>
        <pt x="102" y="164" on="1"/>
        <pt x="102" y="116" on="0"/>
        <pt x="143" y="64" on="0"/>
        <pt x="184" y="64" on="1"/>
        <pt x="225" y="64" on="0"/>
        <pt x="266" y="116" on="0"/>
        <pt x="266" y="164" on="1"/>
        <pt x="266" y="213" on="0"/>
        <pt x="213" y="281" on="0"/>
        <pt x="159" y="324" on="1"/>
        <pt x="118" y="358" on="0"/>
        <pt x="67" y="409" on="0"/>
        <pt x="32" y="484" on="0"/>
        <pt x="32" y="532" on="1"/>
        <pt x="32" y="615" on="0"/>
        <pt x="110" y="707" on="0"/>
        <pt x="187" y="707" on="1"/>
        <pt x="264" y="707" on="0"/>
        <pt x="343" y="614" on="0"/>
        <pt x="343" y="532" on="1"/>
        <pt x="343" y="513" on="1"/>
        <pt x="269" y="513" on="1"/>
        <pt x="269" y="536" on="1"/>
        <pt x="269" y="636" on="0"/>
        <pt x="189" y="636" on="1"/>
        <pt x="109" y="636" on="0"/>
        <pt x="109" y="537" on="1"/>
        <pt x="109" y="487" on="0"/>
        <pt x="163" y="418" on="0"/>
        <pt x="217" y="376" on="1"/>
        <pt x="260" y="340" on="0"/>
        <pt x="309" y="290" on="0"/>
        <pt x="344" y="216" on="0"/>
        <pt x="344" y="168" on="1"/>
        <pt x="344" y="90" on="0"/>
        <pt x="272" y="-2" on="0"/>
        <pt x="201" y="-6" on="1"/>
        <pt x="201" y="-37" on="1"/>
      </contour>
    </TTGlyph>
    <TTGlyph name="Scircumflex" xMin="29" yMin="-7" xMax="344" yMax="842">
      <contour>
        <pt x="67" y="741" on="1"/>
        <pt x="154" y="842" on="1"/>
        <pt x="223" y="842" on="1"/>
        <pt x="309" y="741" on="1"/>
        <pt x="241" y="741" on="1"/>
        <pt x="188" y="800" on="1"/>
        <pt x="135" y="741" on="1"/>
      </contour>
      <contour>
        <pt x="264" y="707" on="0"/>
        <pt x="343" y="614" on="0"/>
        <pt x="343" y="532" on="1"/>
        <pt x="343" y="513" on="1"/>
        <pt x="269" y="513" on="1"/>
        <pt x="269" y="536" on="1"/>
        <pt x="269" y="636" on="0"/>
        <pt x="189" y="636" on="1"/>
        <pt x="109" y="636" on="0"/>
        <pt x="109" y="537" on="1"/>
        <pt x="109" y="487" on="0"/>
        <pt x="163" y="418" on="0"/>
        <pt x="217" y="376" on="1"/>
        <pt x="260" y="340" on="0"/>
        <pt x="309" y="290" on="0"/>
        <pt x="344" y="216" on="0"/>
        <pt x="344" y="168" on="1"/>
        <pt x="344" y="86" on="0"/>
        <pt x="264" y="-7" on="0"/>
        <pt x="186" y="-7" on="1"/>
        <pt x="108" y="-7" on="0"/>
        <pt x="29" y="86" on="0"/>
        <pt x="29" y="168" on="1"/>
        <pt x="29" y="208" on="1"/>
        <pt x="102" y="208" on="1"/>
        <pt x="102" y="164" on="1"/>
        <pt x="102" y="116" on="0"/>
        <pt x="143" y="64" on="0"/>
        <pt x="184" y="64" on="1"/>
        <pt x="225" y="64" on="0"/>
        <pt x="266" y="116" on="0"/>
        <pt x="266" y="164" on="1"/>
        <pt x="266" y="213" on="0"/>
        <pt x="213" y="281" on="0"/>
        <pt x="159" y="324" on="1"/>
        <pt x="118" y="358" on="0"/>
        <pt x="67" y="409" on="0"/>
        <pt x="32" y="484" on="0"/>
        <pt x="32" y="532" on="1"/>
        <pt x="32" y="615" on="0"/>
        <pt x="110" y="707" on="0"/>
        <pt x="187" y="707" on="1"/>
      </contour>
    </TTGlyph>
    <TTGlyph name="T" xMin="13" yMin="0" xMax="349" yMax="700">
      <contour>
        <pt x="142" y="629" on="1"/>
        <pt x="13" y="629" on="1"/>
        <pt x="13" y="700" on="1"/>
        <pt x="349" y="700" on="1"/>
        <pt x="349" y="629" on="1"/>
        <pt x="220" y="629" on="1"/>
        <pt x="220" y="0" on="1"/>
        <pt x="142" y="0" on="1"/>
      </contour>
    </TTGlyph>
    <TTGlyph name="Tbar" xMin="18" yMin="0" xMax="354" yMax="700">
      <contour>
        <pt x="296" y="418" on="1"/>
        <pt x="225" y="418" on="1"/>
        <pt x="225" y="0" on="1"/>
        <pt x="147" y="0" on="1"/>
        <pt x="147" y="418" on="1"/>
        <pt x="76" y="418" on="1"/>
        <pt x="76" y="476" on="1"/>
        <pt x="147" y="476" on="1"/>
        <pt x="147" y="629" on="1"/>
        <pt x="18" y="629" on="1"/>
        <pt x="18" y="700" on="1"/>
        <pt x="354" y="700" on="1"/>
        <pt x="354" y="629" on="1"/>
        <pt x="225" y="629" on="1"/>
        <pt x="225" y="476" on="1"/>
        <pt x="296" y="476" on="1"/>
      </contour>
    </TTGlyph>
    <TTGlyph name="Tcaron" xMin="18" yMin="0" xMax="354" yMax="840">
      <contour>
        <pt x="185" y="780" on="1"/>
        <pt x="239" y="840" on="1"/>
        <pt x="307" y="840" on="1"/>
        <pt x="220" y="739" on="1"/>
        <pt x="151" y="739" on="1"/>
        <pt x="65" y="840" on="1"/>
        <pt x="133" y="840" on="1"/>
      </contour>
      <contour>
        <pt x="147" y="629" on="1"/>
        <pt x="18" y="629" on="1"/>
        <pt x="18" y="700" on="1"/>
        <pt x="354" y="700" on="1"/>
        <pt x="354" y="629" on="1"/>
        <pt x="225" y="629" on="1"/>
        <pt x="225" y="0" on="1"/>
        <pt x="147" y="0" on="1"/>
      </contour>
    </TTGlyph>
    <TTGlyph name="Thorn" xMin="40" yMin="0" xMax="350" yMax="700">
      <contour>
        <pt x="273" y="599" on="0"/>
        <pt x="350" y="510" on="0"/>
        <pt x="350" y="427" on="1"/>
        <pt x="350" y="344" on="1"/>
        <pt x="350" y="174" on="0"/>
        <pt x="187" y="174" on="1"/>
        <pt x="118" y="174" on="1"/>
        <pt x="118" y="0" on="1"/>
        <pt x="40" y="0" on="1"/>
        <pt x="40" y="700" on="1"/>
        <pt x="118" y="700" on="1"/>
        <pt x="118" y="599" on="1"/>
        <pt x="193" y="599" on="1"/>
      </contour>
      <contour>
        <pt x="231" y="245" on="0"/>
        <pt x="273" y="289" on="0"/>
        <pt x="273" y="339" on="1"/>
        <pt x="273" y="432" on="1"/>
        <pt x="273" y="480" on="0"/>
        <pt x="235" y="528" on="0"/>
        <pt x="193" y="528" on="1"/>
        <pt x="118" y="528" on="1"/>
        <pt x="118" y="245" on="1"/>
        <pt x="187" y="245" on="1"/>
      </contour>
    </TTGlyph>
    <TTGlyph name="U" xMin="37" yMin="-8" xMax="350" yMax="700">
      <contour>
        <pt x="114" y="64" on="0"/>
        <pt x="196" y="64" on="1"/>
        <pt x="237" y="64" on="0"/>
        <pt x="277" y="116" on="0"/>
        <pt x="277" y="165" on="1"/>
        <pt x="277" y="700" on="1"/>
        <pt x="350" y="700" on="1"/>
        <pt x="350" y="169" on="1"/>
        <pt x="350" y="86" on="0"/>
        <pt x="272" y="-8" on="0"/>
        <pt x="193" y="-8" on="1"/>
        <pt x="115" y="-8" on="0"/>
        <pt x="37" y="87" on="0"/>
        <pt x="37" y="169" on="1"/>
        <pt x="37" y="700" on="1"/>
        <pt x="114" y="700" on="1"/>
        <pt x="114" y="165" on="1"/>
      </contour>
    </TTGlyph>
    <TTGlyph name="Uacute" xMin="37" yMin="-8" xMax="350" yMax="845">
      <contour>
        <pt x="203" y="742" on="1"/>
        <pt x="149" y="742" on="1"/>
        <pt x="219" y="845" on="1"/>
        <pt x="296" y="845" on="1"/>
      </contour>
      <contour>
        <pt x="350" y="86" on="0"/>
        <pt x="272" y="-8" on="0"/>
        <pt x="193" y="-8" on="1"/>
        <pt x="115" y="-8" on="0"/>
        <pt x="37" y="87" on="0"/>
        <pt x="37" y="169" on="1"/>
        <pt x="37" y="700" on="1"/>
        <pt x="114" y="700" on="1"/>
        <pt x="114" y="165" on="1"/>
        <pt x="114" y="64" on="0"/>
        <pt x="196" y="64" on="1"/>
        <pt x="237" y="64" on="0"/>
        <pt x="277" y="116" on="0"/>
        <pt x="277" y="165" on="1"/>
        <pt x="277" y="700" on="1"/>
        <pt x="350" y="700" on="1"/>
        <pt x="350" y="169" on="1"/>
      </contour>
    </TTGlyph>
    <TTGlyph name="Ubreve" xMin="37" yMin="-8" xMax="350" yMax="838">
      <contour>
        <pt x="298" y="791" on="0"/>
        <pt x="243" y="736" on="0"/>
        <pt x="194" y="736" on="1"/>
        <pt x="146" y="736" on="0"/>
        <pt x="91" y="790" on="0"/>
        <pt x="90" y="838" on="1"/>
        <pt x="137" y="838" on="1"/>
        <pt x="139" y="809" on="0"/>
        <pt x="168" y="785" on="0"/>
        <pt x="194" y="785" on="1"/>
        <pt x="248" y="785" on="0"/>
        <pt x="252" y="838" on="1"/>
        <pt x="299" y="838" on="1"/>
      </contour>
      <contour>
        <pt x="350" y="86" on="0"/>
        <pt x="272" y="-8" on="0"/>
        <pt x="193" y="-8" on="1"/>
        <pt x="115" y="-8" on="0"/>
        <pt x="37" y="87" on="0"/>
        <pt x="37" y="169" on="1"/>
        <pt x="37" y="700" on="1"/>
        <pt x="114" y="700" on="1"/>
        <pt x="114" y="165" on="1"/>
        <pt x="114" y="64" on="0"/>
        <pt x="196" y="64" on="1"/>
        <pt x="237" y="64" on="0"/>
        <pt x="277" y="116" on="0"/>
        <pt x="277" y="165" on="1"/>
        <pt x="277" y="700" on="1"/>
        <pt x="350" y="700" on="1"/>
        <pt x="350" y="169" on="1"/>
      </contour>
    </TTGlyph>
    <TTGlyph name="Ucircumflex" xMin="37" yMin="-8" xMax="350" yMax="842">
      <contour>
        <pt x="74" y="741" on="1"/>
        <pt x="160" y="842" on="1"/>
        <pt x="229" y="842" on="1"/>
        <pt x="316" y="741" on="1"/>
        <pt x="248" y="741" on="1"/>
        <pt x="194" y="800" on="1"/>
        <pt x="142" y="741" on="1"/>
      </contour>
      <contour>
        <pt x="350" y="86" on="0"/>
        <pt x="272" y="-8" on="0"/>
        <pt x="193" y="-8" on="1"/>
        <pt x="115" y="-8" on="0"/>
        <pt x="37" y="87" on="0"/>
        <pt x="37" y="169" on="1"/>
        <pt x="37" y="700" on="1"/>
        <pt x="114" y="700" on="1"/>
        <pt x="114" y="165" on="1"/>
        <pt x="114" y="64" on="0"/>
        <pt x="196" y="64" on="1"/>
        <pt x="237" y="64" on="0"/>
        <pt x="277" y="116" on="0"/>
        <pt x="277" y="165" on="1"/>
        <pt x="277" y="700" on="1"/>
        <pt x="350" y="700" on="1"/>
        <pt x="350" y="169" on="1"/>
      </contour>
    </TTGlyph>
    <TTGlyph name="Udieresis" xMin="37" yMin="-8" xMax="350" yMax="830">
      <contour>
        <pt x="167" y="740" on="1"/>
        <pt x="98" y="740" on="1"/>
        <pt x="98" y="830" on="1"/>
        <pt x="167" y="830" on="1"/>
      </contour>
      <contour>
        <pt x="291" y="740" on="1"/>
        <pt x="223" y="740" on="1"/>
        <pt x="223" y="830" on="1"/>
        <pt x="291" y="830" on="1"/>
      </contour>
      <contour>
        <pt x="350" y="86" on="0"/>
        <pt x="272" y="-8" on="0"/>
        <pt x="193" y="-8" on="1"/>
        <pt x="115" y="-8" on="0"/>
        <pt x="37" y="87" on="0"/>
        <pt x="37" y="169" on="1"/>
        <pt x="37" y="700" on="1"/>
        <pt x="114" y="700" on="1"/>
        <pt x="114" y="165" on="1"/>
        <pt x="114" y="64" on="0"/>
        <pt x="196" y="64" on="1"/>
        <pt x="237" y="64" on="0"/>
        <pt x="277" y="116" on="0"/>
        <pt x="277" y="165" on="1"/>
        <pt x="277" y="700" on="1"/>
        <pt x="350" y="700" on="1"/>
        <pt x="350" y="169" on="1"/>
      </contour>
    </TTGlyph>
    <TTGlyph name="Ugrave" xMin="37" yMin="-8" xMax="350" yMax="842">
      <contour>
        <pt x="243" y="739" on="1"/>
        <pt x="185" y="739" on="1"/>
        <pt x="92" y="842" on="1"/>
        <pt x="173" y="842" on="1"/>
      </contour>
      <contour>
        <pt x="350" y="86" on="0"/>
        <pt x="272" y="-8" on="0"/>
        <pt x="193" y="-8" on="1"/>
        <pt x="115" y="-8" on="0"/>
        <pt x="37" y="87" on="0"/>
        <pt x="37" y="169" on="1"/>
        <pt x="37" y="700" on="1"/>
        <pt x="114" y="700" on="1"/>
        <pt x="114" y="165" on="1"/>
        <pt x="114" y="64" on="0"/>
        <pt x="196" y="64" on="1"/>
        <pt x="237" y="64" on="0"/>
        <pt x="277" y="116" on="0"/>
        <pt x="277" y="165" on="1"/>
        <pt x="277" y="700" on="1"/>
        <pt x="350" y="700" on="1"/>
        <pt x="350" y="169" on="1"/>
      </contour>
    </TTGlyph>
    <TTGlyph name="Uhungarumlaut" xMin="37" yMin="-8" xMax="350" yMax="844">
      <contour>
        <pt x="149" y="741" on="1"/>
        <pt x="100" y="741" on="1"/>
        <pt x="157" y="844" on="1"/>
        <pt x="229" y="844" on="1"/>
      </contour>
      <contour>
        <pt x="256" y="741" on="1"/>
        <pt x="208" y="741" on="1"/>
        <pt x="264" y="844" on="1"/>
        <pt x="337" y="844" on="1"/>
      </contour>
      <contour>
        <pt x="350" y="86" on="0"/>
        <pt x="272" y="-8" on="0"/>
        <pt x="193" y="-8" on="1"/>
        <pt x="115" y="-8" on="0"/>
        <pt x="37" y="87" on="0"/>
        <pt x="37" y="169" on="1"/>
        <pt x="37" y="700" on="1"/>
        <pt x="114" y="700" on="1"/>
        <pt x="114" y="165" on="1"/>
        <pt x="114" y="64" on="0"/>
        <pt x="196" y="64" on="1"/>
        <pt x="237" y="64" on="0"/>
        <pt x="277" y="116" on="0"/>
        <pt x="277" y="165" on="1"/>
        <pt x="277" y="700" on="1"/>
        <pt x="350" y="700" on="1"/>
        <pt x="350" y="169" on="1"/>
      </contour>
    </TTGlyph>
    <TTGlyph name="Umacron" xMin="37" yMin="-8" xMax="350" yMax="806">
      <contour>
        <pt x="298" y="750" on="1"/>
        <pt x="93" y="750" on="1"/>
        <pt x="93" y="806" on="1"/>
        <pt x="298" y="806" on="1"/>
      </contour>
      <contour>
        <pt x="350" y="86" on="0"/>
        <pt x="272" y="-8" on="0"/>
        <pt x="193" y="-8" on="1"/>
        <pt x="115" y="-8" on="0"/>
        <pt x="37" y="87" on="0"/>
        <pt x="37" y="169" on="1"/>
        <pt x="37" y="700" on="1"/>
        <pt x="114" y="700" on="1"/>
        <pt x="114" y="165" on="1"/>
        <pt x="114" y="64" on="0"/>
        <pt x="196" y="64" on="1"/>
        <pt x="237" y="64" on="0"/>
        <pt x="277" y="116" on="0"/>
        <pt x="277" y="165" on="1"/>
        <pt x="277" y="700" on="1"/>
        <pt x="350" y="700" on="1"/>
        <pt x="350" y="169" on="1"/>
      </contour>
    </TTGlyph>
    <TTGlyph name="Uogonek" xMin="37" yMin="-143" xMax="350" yMax="700">
      <contour>
        <pt x="350" y="113" on="0"/>
        <pt x="317" y="29" on="0"/>
        <pt x="275" y="5" on="1"/>
        <pt x="256" y="-10" on="0"/>
        <pt x="235" y="-53" on="0"/>
        <pt x="236" y="-69" on="1"/>
        <pt x="236" y="-84" on="0"/>
        <pt x="257" y="-99" on="0"/>
        <pt x="273" y="-99" on="1"/>
        <pt x="293" y="-99" on="0"/>
        <pt x="313" y="-90" on="1"/>
        <pt x="313" y="-131" on="1"/>
        <pt x="286" y="-143" on="0"/>
        <pt x="251" y="-143" on="1"/>
        <pt x="216" y="-143" on="0"/>
        <pt x="176" y="-114" on="0"/>
        <pt x="176" y="-85" on="1"/>
        <pt x="176" y="-64" on="0"/>
        <pt x="205" y="-21" on="0"/>
        <pt x="229" y="-4" on="1"/>
        <pt x="214" y="-8" on="0"/>
        <pt x="193" y="-8" on="1"/>
        <pt x="115" y="-8" on="0"/>
        <pt x="37" y="87" on="0"/>
        <pt x="37" y="169" on="1"/>
        <pt x="37" y="700" on="1"/>
        <pt x="114" y="700" on="1"/>
        <pt x="114" y="165" on="1"/>
        <pt x="114" y="64" on="0"/>
        <pt x="196" y="64" on="1"/>
        <pt x="237" y="64" on="0"/>
        <pt x="277" y="116" on="0"/>
        <pt x="277" y="165" on="1"/>
        <pt x="277" y="700" on="1"/>
        <pt x="350" y="700" on="1"/>
        <pt x="350" y="169" on="1"/>
      </contour>
    </TTGlyph>
    <TTGlyph name="Uring" xMin="37" yMin="-8" xMax="350" yMax="881">
      <contour>
        <pt x="227" y="881" on="0"/>
        <pt x="270" y="839" on="0"/>
        <pt x="270" y="808" on="1"/>
        <pt x="270" y="777" on="0"/>
        <pt x="227" y="735" on="0"/>
        <pt x="196" y="735" on="1"/>
        <pt x="165" y="735" on="0"/>
        <pt x="123" y="777" on="0"/>
        <pt x="123" y="808" on="1"/>
        <pt x="123" y="839" on="0"/>
        <pt x="165" y="881" on="0"/>
        <pt x="196" y="881" on="1"/>
      </contour>
      <contour>
        <pt x="181" y="844" on="0"/>
        <pt x="160" y="824" on="0"/>
        <pt x="160" y="808" on="1"/>
        <pt x="160" y="792" on="0"/>
        <pt x="181" y="772" on="0"/>
        <pt x="196" y="772" on="1"/>
        <pt x="211" y="772" on="0"/>
        <pt x="233" y="793" on="0"/>
        <pt x="233" y="808" on="1"/>
        <pt x="233" y="823" on="0"/>
        <pt x="211" y="844" on="0"/>
        <pt x="196" y="844" on="1"/>
      </contour>
      <contour>
        <pt x="350" y="86" on="0"/>
        <pt x="272" y="-8" on="0"/>
        <pt x="193" y="-8" on="1"/>
        <pt x="115" y="-8" on="0"/>
        <pt x="37" y="87" on="0"/>
        <pt x="37" y="169" on="1"/>
        <pt x="37" y="700" on="1"/>
        <pt x="114" y="700" on="1"/>
        <pt x="114" y="165" on="1"/>
        <pt x="114" y="64" on="0"/>
        <pt x="196" y="64" on="1"/>
        <pt x="237" y="64" on="0"/>
        <pt x="277" y="116" on="0"/>
        <pt x="277" y="165" on="1"/>
        <pt x="277" y="700" on="1"/>
        <pt x="350" y="700" on="1"/>
        <pt x="350" y="169" on="1"/>
      </contour>
    </TTGlyph>
    <TTGlyph name="Utilde" xMin="37" yMin="-8" xMax="350" yMax="829">
      <contour>
        <pt x="295" y="745" on="0"/>
        <pt x="243" y="745" on="1"/>
        <pt x="230" y="745" on="0"/>
        <pt x="208" y="753" on="0"/>
        <pt x="193" y="761" on="1"/>
        <pt x="169" y="774" on="0"/>
        <pt x="154" y="774" on="1"/>
        <pt x="140" y="774" on="0"/>
        <pt x="120" y="760" on="0"/>
        <pt x="112" y="744" on="1"/>
        <pt x="73" y="771" on="1"/>
        <pt x="95" y="827" on="0"/>
        <pt x="146" y="829" on="1"/>
        <pt x="160" y="829" on="0"/>
        <pt x="184" y="820" on="0"/>
        <pt x="199" y="812" on="1"/>
        <pt x="223" y="799" on="0"/>
        <pt x="238" y="799" on="1"/>
        <pt x="264" y="801" on="0"/>
        <pt x="278" y="829" on="1"/>
        <pt x="317" y="802" on="1"/>
      </contour>
      <contour>
        <pt x="350" y="86" on="0"/>
        <pt x="272" y="-8" on="0"/>
        <pt x="193" y="-8" on="1"/>
        <pt x="115" y="-8" on="0"/>
        <pt x="37" y="87" on="0"/>
        <pt x="37" y="169" on="1"/>
        <pt x="37" y="700" on="1"/>
        <pt x="114" y="700" on="1"/>
        <pt x="114" y="165" on="1"/>
        <pt x="114" y="64" on="0"/>
        <pt x="196" y="64" on="1"/>
        <pt x="237" y="64" on="0"/>
        <pt x="277" y="116" on="0"/>
        <pt x="277" y="165" on="1"/>
        <pt x="277" y="700" on="1"/>
        <pt x="350" y="700" on="1"/>
        <pt x="350" y="169" on="1"/>
      </contour>
    </TTGlyph>
    <TTGlyph name="V" xMin="20" yMin="0" xMax="398" yMax="700">
      <contour>
        <pt x="213" y="91" on="1"/>
        <pt x="326" y="700" on="1"/>
        <pt x="398" y="700" on="1"/>
        <pt x="267" y="0" on="1"/>
        <pt x="152" y="0" on="1"/>
        <pt x="20" y="700" on="1"/>
        <pt x="99" y="700" on="1"/>
      </contour>
    </TTGlyph>
    <TTGlyph name="W" xMin="23" yMin="0" xMax="560" yMax="700">
      <contour>
        <pt x="119" y="0" on="1"/>
        <pt x="23" y="700" on="1"/>
        <pt x="99" y="700" on="1"/>
        <pt x="181" y="104" on="1"/>
        <pt x="259" y="699" on="1"/>
        <pt x="336" y="699" on="1"/>
        <pt x="413" y="103" on="1"/>
        <pt x="492" y="700" on="1"/>
        <pt x="560" y="700" on="1"/>
        <pt x="465" y="0" on="1"/>
        <pt x="362" y="0" on="1"/>
        <pt x="295" y="475" on="1"/>
        <pt x="226" y="0" on="1"/>
      </contour>
    </TTGlyph>
    <TTGlyph name="Wacute" xMin="23" yMin="0" xMax="560" yMax="842">
      <contour>
        <pt x="298" y="739" on="1"/>
        <pt x="243" y="739" on="1"/>
        <pt x="313" y="842" on="1"/>
        <pt x="391" y="842" on="1"/>
      </contour>
      <contour>
        <pt x="119" y="0" on="1"/>
        <pt x="23" y="700" on="1"/>
        <pt x="99" y="700" on="1"/>
        <pt x="181" y="104" on="1"/>
        <pt x="259" y="699" on="1"/>
        <pt x="336" y="699" on="1"/>
        <pt x="413" y="103" on="1"/>
        <pt x="492" y="700" on="1"/>
        <pt x="560" y="700" on="1"/>
        <pt x="465" y="0" on="1"/>
        <pt x="362" y="0" on="1"/>
        <pt x="295" y="475" on="1"/>
        <pt x="226" y="0" on="1"/>
      </contour>
    </TTGlyph>
    <TTGlyph name="Wcircumflex" xMin="23" yMin="0" xMax="560" yMax="841">
      <contour>
        <pt x="172" y="740" on="1"/>
        <pt x="258" y="841" on="1"/>
        <pt x="327" y="841" on="1"/>
        <pt x="414" y="740" on="1"/>
        <pt x="346" y="740" on="1"/>
        <pt x="293" y="799" on="1"/>
        <pt x="240" y="740" on="1"/>
      </contour>
      <contour>
        <pt x="119" y="0" on="1"/>
        <pt x="23" y="700" on="1"/>
        <pt x="99" y="700" on="1"/>
        <pt x="181" y="104" on="1"/>
        <pt x="259" y="699" on="1"/>
        <pt x="336" y="699" on="1"/>
        <pt x="413" y="103" on="1"/>
        <pt x="492" y="700" on="1"/>
        <pt x="560" y="700" on="1"/>
        <pt x="465" y="0" on="1"/>
        <pt x="362" y="0" on="1"/>
        <pt x="295" y="475" on="1"/>
        <pt x="226" y="0" on="1"/>
      </contour>
    </TTGlyph>
    <TTGlyph name="Wdieresis" xMin="23" yMin="0" xMax="560" yMax="831">
      <contour>
        <pt x="265" y="741" on="1"/>
        <pt x="197" y="741" on="1"/>
        <pt x="197" y="831" on="1"/>
        <pt x="265" y="831" on="1"/>
      </contour>
      <contour>
        <pt x="389" y="741" on="1"/>
        <pt x="321" y="741" on="1"/>
        <pt x="321" y="831" on="1"/>
        <pt x="389" y="831" on="1"/>
      </contour>
      <contour>
        <pt x="119" y="0" on="1"/>
        <pt x="23" y="700" on="1"/>
        <pt x="99" y="700" on="1"/>
        <pt x="181" y="104" on="1"/>
        <pt x="259" y="699" on="1"/>
        <pt x="336" y="699" on="1"/>
        <pt x="413" y="103" on="1"/>
        <pt x="492" y="700" on="1"/>
        <pt x="560" y="700" on="1"/>
        <pt x="465" y="0" on="1"/>
        <pt x="362" y="0" on="1"/>
        <pt x="295" y="475" on="1"/>
        <pt x="226" y="0" on="1"/>
      </contour>
    </TTGlyph>
    <TTGlyph name="Wgrave" xMin="23" yMin="0" xMax="560" yMax="845">
      <contour>
        <pt x="346" y="742" on="1"/>
        <pt x="289" y="742" on="1"/>
        <pt x="196" y="845" on="1"/>
        <pt x="277" y="845" on="1"/>
      </contour>
      <contour>
        <pt x="119" y="0" on="1"/>
        <pt x="23" y="700" on="1"/>
        <pt x="99" y="700" on="1"/>
        <pt x="181" y="104" on="1"/>
        <pt x="259" y="699" on="1"/>
        <pt x="336" y="699" on="1"/>
        <pt x="413" y="103" on="1"/>
        <pt x="492" y="700" on="1"/>
        <pt x="560" y="700" on="1"/>
        <pt x="465" y="0" on="1"/>
        <pt x="362" y="0" on="1"/>
        <pt x="295" y="475" on="1"/>
        <pt x="226" y="0" on="1"/>
      </contour>
    </TTGlyph>
    <TTGlyph name="X" xMin="23" yMin="0" xMax="412" yMax="700">
      <contour>
        <pt x="97" y="0" on="1"/>
        <pt x="23" y="0" on="1"/>
        <pt x="164" y="361" on="1"/>
        <pt x="32" y="700" on="1"/>
        <pt x="113" y="700" on="1"/>
        <pt x="221" y="420" on="1"/>
        <pt x="330" y="700" on="1"/>
        <pt x="403" y="700" on="1"/>
        <pt x="272" y="361" on="1"/>
        <pt x="412" y="0" on="1"/>
        <pt x="330" y="0" on="1"/>
        <pt x="214" y="302" on="1"/>
      </contour>
    </TTGlyph>
    <TTGlyph name="Y" xMin="16" yMin="0" xMax="390" yMax="700">
      <contour>
        <pt x="16" y="700" on="1"/>
        <pt x="97" y="700" on="1"/>
        <pt x="206" y="356" on="1"/>
        <pt x="316" y="700" on="1"/>
        <pt x="390" y="700" on="1"/>
        <pt x="241" y="251" on="1"/>
        <pt x="241" y="0" on="1"/>
        <pt x="164" y="0" on="1"/>
        <pt x="164" y="251" on="1"/>
      </contour>
    </TTGlyph>
    <TTGlyph name="Yacute" xMin="16" yMin="0" xMax="390" yMax="842">
      <contour>
        <pt x="214" y="739" on="1"/>
        <pt x="160" y="739" on="1"/>
        <pt x="230" y="842" on="1"/>
        <pt x="307" y="842" on="1"/>
      </contour>
      <contour>
        <pt x="16" y="700" on="1"/>
        <pt x="97" y="700" on="1"/>
        <pt x="206" y="356" on="1"/>
        <pt x="316" y="700" on="1"/>
        <pt x="390" y="700" on="1"/>
        <pt x="241" y="251" on="1"/>
        <pt x="241" y="0" on="1"/>
        <pt x="164" y="0" on="1"/>
        <pt x="164" y="251" on="1"/>
      </contour>
    </TTGlyph>
    <TTGlyph name="Ycircumflex" xMin="16" yMin="0" xMax="390" yMax="840">
      <contour>
        <pt x="85" y="740" on="1"/>
        <pt x="171" y="840" on="1"/>
        <pt x="240" y="840" on="1"/>
        <pt x="327" y="740" on="1"/>
        <pt x="259" y="740" on="1"/>
        <pt x="206" y="799" on="1"/>
        <pt x="153" y="740" on="1"/>
      </contour>
      <contour>
        <pt x="16" y="700" on="1"/>
        <pt x="97" y="700" on="1"/>
        <pt x="206" y="356" on="1"/>
        <pt x="316" y="700" on="1"/>
        <pt x="390" y="700" on="1"/>
        <pt x="241" y="251" on="1"/>
        <pt x="241" y="0" on="1"/>
        <pt x="164" y="0" on="1"/>
        <pt x="164" y="251" on="1"/>
      </contour>
    </TTGlyph>
    <TTGlyph name="Ydieresis" xMin="16" yMin="0" xMax="390" yMax="829">
      <contour>
        <pt x="177" y="739" on="1"/>
        <pt x="109" y="739" on="1"/>
        <pt x="109" y="829" on="1"/>
        <pt x="177" y="829" on="1"/>
      </contour>
      <contour>
        <pt x="301" y="739" on="1"/>
        <pt x="233" y="739" on="1"/>
        <pt x="233" y="829" on="1"/>
        <pt x="301" y="829" on="1"/>
      </contour>
      <contour>
        <pt x="16" y="700" on="1"/>
        <pt x="97" y="700" on="1"/>
        <pt x="206" y="356" on="1"/>
        <pt x="316" y="700" on="1"/>
        <pt x="390" y="700" on="1"/>
        <pt x="241" y="251" on="1"/>
        <pt x="241" y="0" on="1"/>
        <pt x="164" y="0" on="1"/>
        <pt x="164" y="251" on="1"/>
      </contour>
    </TTGlyph>
    <TTGlyph name="Ygrave" xMin="16" yMin="0" xMax="390" yMax="845">
      <contour>
        <pt x="255" y="742" on="1"/>
        <pt x="198" y="742" on="1"/>
        <pt x="105" y="845" on="1"/>
        <pt x="186" y="845" on="1"/>
      </contour>
      <contour>
        <pt x="16" y="700" on="1"/>
        <pt x="97" y="700" on="1"/>
        <pt x="206" y="356" on="1"/>
        <pt x="316" y="700" on="1"/>
        <pt x="390" y="700" on="1"/>
        <pt x="241" y="251" on="1"/>
        <pt x="241" y="0" on="1"/>
        <pt x="164" y="0" on="1"/>
        <pt x="164" y="251" on="1"/>
      </contour>
    </TTGlyph>
    <TTGlyph name="Z" xMin="29" yMin="0" xMax="349" yMax="700">
      <contour>
        <pt x="29" y="0" on="1"/>
        <pt x="29" y="70" on="1"/>
        <pt x="269" y="629" on="1"/>
        <pt x="40" y="629" on="1"/>
        <pt x="40" y="700" on="1"/>
        <pt x="349" y="700" on="1"/>
        <pt x="349" y="630" on="1"/>
        <pt x="108" y="71" on="1"/>
        <pt x="347" y="71" on="1"/>
        <pt x="347" y="0" on="1"/>
      </contour>
    </TTGlyph>
    <TTGlyph name="Zacute" xMin="29" yMin="0" xMax="349" yMax="845">
      <contour>
        <pt x="204" y="742" on="1"/>
        <pt x="150" y="742" on="1"/>
        <pt x="219" y="845" on="1"/>
        <pt x="297" y="845" on="1"/>
      </contour>
      <contour>
        <pt x="29" y="0" on="1"/>
        <pt x="29" y="70" on="1"/>
        <pt x="269" y="629" on="1"/>
        <pt x="40" y="629" on="1"/>
        <pt x="40" y="700" on="1"/>
        <pt x="349" y="700" on="1"/>
        <pt x="349" y="630" on="1"/>
        <pt x="108" y="71" on="1"/>
        <pt x="347" y="71" on="1"/>
        <pt x="347" y="0" on="1"/>
      </contour>
    </TTGlyph>
    <TTGlyph name="Zcaron" xMin="29" yMin="0" xMax="349" yMax="842">
      <contour>
        <pt x="193" y="782" on="1"/>
        <pt x="247" y="842" on="1"/>
        <pt x="315" y="842" on="1"/>
        <pt x="228" y="741" on="1"/>
        <pt x="159" y="741" on="1"/>
        <pt x="73" y="842" on="1"/>
        <pt x="141" y="842" on="1"/>
      </contour>
      <contour>
        <pt x="29" y="0" on="1"/>
        <pt x="29" y="70" on="1"/>
        <pt x="269" y="629" on="1"/>
        <pt x="40" y="629" on="1"/>
        <pt x="40" y="700" on="1"/>
        <pt x="349" y="700" on="1"/>
        <pt x="349" y="630" on="1"/>
        <pt x="108" y="71" on="1"/>
        <pt x="347" y="71" on="1"/>
        <pt x="347" y="0" on="1"/>
      </contour>
    </TTGlyph>
    <TTGlyph name="Zdotaccent" xMin="29" yMin="0" xMax="349" yMax="832">
      <contour>
        <pt x="231" y="742" on="1"/>
        <pt x="163" y="742" on="1"/>
        <pt x="163" y="832" on="1"/>
        <pt x="231" y="832" on="1"/>
      </contour>
      <contour>
        <pt x="29" y="0" on="1"/>
        <pt x="29" y="70" on="1"/>
        <pt x="269" y="629" on="1"/>
        <pt x="40" y="629" on="1"/>
        <pt x="40" y="700" on="1"/>
        <pt x="349" y="700" on="1"/>
        <pt x="349" y="630" on="1"/>
        <pt x="108" y="71" on="1"/>
        <pt x="347" y="71" on="1"/>
        <pt x="347" y="0" on="1"/>
      </contour>
    </TTGlyph>
    <TTGlyph name="a" xMin="20" yMin="0" xMax="401" yMax="700">
      <contour>
        <pt x="92" y="0" on="1"/>
        <pt x="20" y="0" on="1"/>
        <pt x="154" y="700" on="1"/>
        <pt x="267" y="700" on="1"/>
        <pt x="401" y="0" on="1"/>
        <pt x="323" y="0" on="1"/>
        <pt x="296" y="141" on="1"/>
        <pt x="119" y="141" on="1"/>
      </contour>
      <contour>
        <pt x="285" y="208" on="1"/>
        <pt x="206" y="612" on="1"/>
        <pt x="129" y="208" on="1"/>
      </contour>
    </TTGlyph>
    <TTGlyph name="aacute" xMin="20" yMin="0" xMax="401" yMax="840">
      <contour>
        <pt x="213" y="737" on="1"/>
        <pt x="158" y="737" on="1"/>
        <pt x="228" y="840" on="1"/>
        <pt x="305" y="840" on="1"/>
      </contour>
      <contour>
        <pt x="92" y="0" on="1"/>
        <pt x="20" y="0" on="1"/>
        <pt x="154" y="700" on="1"/>
        <pt x="267" y="700" on="1"/>
        <pt x="401" y="0" on="1"/>
        <pt x="323" y="0" on="1"/>
        <pt x="296" y="141" on="1"/>
        <pt x="119" y="141" on="1"/>
      </contour>
      <contour>
        <pt x="285" y="208" on="1"/>
        <pt x="206" y="612" on="1"/>
        <pt x="129" y="208" on="1"/>
      </contour>
    </TTGlyph>
    <TTGlyph name="abreve" xMin="20" yMin="0" xMax="401" yMax="834">
      <contour>
        <pt x="314" y="787" on="0"/>
        <pt x="258" y="733" on="0"/>
        <pt x="209" y="733" on="1"/>
        <pt x="161" y="733" on="0"/>
        <pt x="107" y="787" on="0"/>
        <pt x="106" y="834" on="1"/>
        <pt x="153" y="834" on="1"/>
        <pt x="156" y="782" on="0"/>
        <pt x="209" y="782" on="1"/>
        <pt x="264" y="782" on="0"/>
        <pt x="267" y="834" on="1"/>
        <pt x="314" y="834" on="1"/>
      </contour>
      <contour>
        <pt x="92" y="0" on="1"/>
        <pt x="20" y="0" on="1"/>
        <pt x="154" y="700" on="1"/>
        <pt x="267" y="700" on="1"/>
        <pt x="401" y="0" on="1"/>
        <pt x="323" y="0" on="1"/>
        <pt x="296" y="141" on="1"/>
        <pt x="119" y="141" on="1"/>
      </contour>
      <contour>
        <pt x="285" y="208" on="1"/>
        <pt x="206" y="612" on="1"/>
        <pt x="129" y="208" on="1"/>
      </contour>
    </TTGlyph>
    <TTGlyph name="acircumflex" xMin="20" yMin="0" xMax="401" yMax="837">
      <contour>
        <pt x="89" y="737" on="1"/>
        <pt x="175" y="837" on="1"/>
        <pt x="245" y="837" on="1"/>
        <pt x="331" y="737" on="1"/>
        <pt x="263" y="737" on="1"/>
        <pt x="210" y="796" on="1"/>
        <pt x="157" y="737" on="1"/>
      </contour>
      <contour>
        <pt x="92" y="0" on="1"/>
        <pt x="20" y="0" on="1"/>
        <pt x="154" y="700" on="1"/>
        <pt x="267" y="700" on="1"/>
        <pt x="401" y="0" on="1"/>
        <pt x="323" y="0" on="1"/>
        <pt x="296" y="141" on="1"/>
        <pt x="119" y="141" on="1"/>
      </contour>
      <contour>
        <pt x="285" y="208" on="1"/>
        <pt x="206" y="612" on="1"/>
        <pt x="129" y="208" on="1"/>
      </contour>
    </TTGlyph>
    <TTGlyph name="acute" xMin="31" yMin="745" xMax="178" yMax="848">
      <contour>
        <pt x="85" y="745" on="1"/>
        <pt x="31" y="745" on="1"/>
        <pt x="101" y="848" on="1"/>
        <pt x="178" y="848" on="1"/>
      </contour>
    </TTGlyph>
    <TTGlyph name="adieresis" xMin="20" yMin="0" xMax="401" yMax="827">
      <contour>
        <pt x="182" y="737" on="1"/>
        <pt x="114" y="737" on="1"/>
        <pt x="114" y="827" on="1"/>
        <pt x="182" y="827" on="1"/>
      </contour>
      <contour>
        <pt x="306" y="737" on="1"/>
        <pt x="238" y="737" on="1"/>
        <pt x="238" y="827" on="1"/>
        <pt x="306" y="827" on="1"/>
      </contour>
      <contour>
        <pt x="92" y="0" on="1"/>
        <pt x="20" y="0" on="1"/>
        <pt x="154" y="700" on="1"/>
        <pt x="267" y="700" on="1"/>
        <pt x="401" y="0" on="1"/>
        <pt x="323" y="0" on="1"/>
        <pt x="296" y="141" on="1"/>
        <pt x="119" y="141" on="1"/>
      </contour>
      <contour>
        <pt x="285" y="208" on="1"/>
        <pt x="206" y="612" on="1"/>
        <pt x="129" y="208" on="1"/>
      </contour>
    </TTGlyph>
    <TTGlyph name="ae" xMin="16" yMin="0" xMax="553" yMax="700">
      <contour>
        <pt x="516" y="320" on="1"/>
        <pt x="355" y="320" on="1"/>
        <pt x="355" y="71" on="1"/>
        <pt x="553" y="71" on="1"/>
        <pt x="553" y="0" on="1"/>
        <pt x="278" y="0" on="1"/>
        <pt x="278" y="142" on="1"/>
        <pt x="135" y="142" on="1"/>
        <pt x="90" y="0" on="1"/>
        <pt x="16" y="0" on="1"/>
        <pt x="234" y="700" on="1"/>
        <pt x="553" y="700" on="1"/>
        <pt x="553" y="629" on="1"/>
        <pt x="355" y="629" on="1"/>
        <pt x="355" y="390" on="1"/>
        <pt x="516" y="390" on="1"/>
      </contour>
      <contour>
        <pt x="278" y="210" on="1"/>
        <pt x="278" y="602" on="1"/>
        <pt x="153" y="210" on="1"/>
      </contour>
    </TTGlyph>
    <TTGlyph name="aeacute" xMin="16" yMin="0" xMax="553" yMax="844">
      <contour>
        <pt x="317" y="741" on="1"/>
        <pt x="263" y="741" on="1"/>
        <pt x="333" y="844" on="1"/>
        <pt x="410" y="844" on="1"/>
      </contour>
      <contour>
        <pt x="516" y="320" on="1"/>
        <pt x="355" y="320" on="1"/>
        <pt x="355" y="71" on="1"/>
        <pt x="553" y="71" on="1"/>
        <pt x="553" y="0" on="1"/>
        <pt x="278" y="0" on="1"/>
        <pt x="278" y="142" on="1"/>
        <pt x="135" y="142" on="1"/>
        <pt x="90" y="0" on="1"/>
        <pt x="16" y="0" on="1"/>
        <pt x="234" y="700" on="1"/>
        <pt x="553" y="700" on="1"/>
        <pt x="553" y="629" on="1"/>
        <pt x="355" y="629" on="1"/>
        <pt x="355" y="390" on="1"/>
        <pt x="516" y="390" on="1"/>
      </contour>
      <contour>
        <pt x="278" y="210" on="1"/>
        <pt x="278" y="602" on="1"/>
        <pt x="153" y="210" on="1"/>
      </contour>
    </TTGlyph>
    <TTGlyph name="agrave" xMin="20" yMin="0" xMax="401" yMax="840">
      <contour>
        <pt x="260" y="737" on="1"/>
        <pt x="203" y="737" on="1"/>
        <pt x="110" y="840" on="1"/>
        <pt x="190" y="840" on="1"/>
      </contour>
      <contour>
        <pt x="92" y="0" on="1"/>
        <pt x="20" y="0" on="1"/>
        <pt x="154" y="700" on="1"/>
        <pt x="267" y="700" on="1"/>
        <pt x="401" y="0" on="1"/>
        <pt x="323" y="0" on="1"/>
        <pt x="296" y="141" on="1"/>
        <pt x="119" y="141" on="1"/>
      </contour>
      <contour>
        <pt x="285" y="208" on="1"/>
        <pt x="206" y="612" on="1"/>
        <pt x="129" y="208" on="1"/>
      </contour>
    </TTGlyph>
    <TTGlyph name="amacron" xMin="20" yMin="0" xMax="401" yMax="806">
      <contour>
        <pt x="316" y="750" on="1"/>
        <pt x="104" y="750" on="1"/>
        <pt x="104" y="806" on="1"/>
        <pt x="316" y="806" on="1"/>
      </contour>
      <contour>
        <pt x="92" y="0" on="1"/>
        <pt x="20" y="0" on="1"/>
        <pt x="154" y="700" on="1"/>
        <pt x="267" y="700" on="1"/>
        <pt x="401" y="0" on="1"/>
        <pt x="323" y="0" on="1"/>
        <pt x="296" y="141" on="1"/>
        <pt x="119" y="141" on="1"/>
      </contour>
      <contour>
        <pt x="285" y="208" on="1"/>
        <pt x="206" y="612" on="1"/>
        <pt x="129" y="208" on="1"/>
      </contour>
    </TTGlyph>
    <TTGlyph name="ampersand" xMin="41" yMin="-7" xMax="389" yMax="700">
      <contour>
        <pt x="118" y="629" on="0"/>
        <pt x="118" y="530" on="1"/>
        <pt x="118" y="495" on="1"/>
        <pt x="118" y="450" on="0"/>
        <pt x="160" y="402" on="0"/>
        <pt x="199" y="400" on="1"/>
        <pt x="278" y="400" on="1"/>
        <pt x="278" y="478" on="1"/>
        <pt x="355" y="478" on="1"/>
        <pt x="355" y="400" on="1"/>
        <pt x="389" y="400" on="1"/>
        <pt x="389" y="330" on="1"/>
        <pt x="355" y="330" on="1"/>
        <pt x="355" y="89" on="1"/>
        <pt x="355" y="58" on="0"/>
        <pt x="360" y="18" on="0"/>
        <pt x="370" y="0" on="1"/>
        <pt x="291" y="0" on="1"/>
        <pt x="285" y="14" on="0"/>
        <pt x="279" y="40" on="0"/>
        <pt x="278" y="61" on="1"/>
        <pt x="263" y="28" on="0"/>
        <pt x="207" y="-7" on="0"/>
        <pt x="168" y="-7" on="1"/>
        <pt x="104" y="-7" on="0"/>
        <pt x="41" y="78" on="0"/>
        <pt x="41" y="154" on="1"/>
        <pt x="41" y="222" on="1"/>
        <pt x="41" y="276" on="0"/>
        <pt x="82" y="352" on="0"/>
        <pt x="124" y="368" on="1"/>
        <pt x="82" y="383" on="0"/>
        <pt x="41" y="457" on="0"/>
        <pt x="41" y="511" on="1"/>
        <pt x="41" y="527" on="1"/>
        <pt x="41" y="611" on="0"/>
        <pt x="124" y="700" on="0"/>
        <pt x="206" y="700" on="1"/>
        <pt x="319" y="700" on="1"/>
        <pt x="319" y="629" on="1"/>
        <pt x="208" y="629" on="1"/>
      </contour>
      <contour>
        <pt x="118" y="327" on="0"/>
        <pt x="118" y="224" on="1"/>
        <pt x="118" y="160" on="1"/>
        <pt x="118" y="113" on="0"/>
        <pt x="159" y="64" on="0"/>
        <pt x="199" y="64" on="1"/>
        <pt x="234" y="64" on="0"/>
        <pt x="277" y="105" on="0"/>
        <pt x="278" y="144" on="1"/>
        <pt x="278" y="330" on="1"/>
        <pt x="205" y="330" on="1"/>
      </contour>
    </TTGlyph>
    <TTGlyph name="aogonek" xMin="20" yMin="-143" xMax="414" yMax="700">
      <contour>
        <pt x="357" y="-14" on="0"/>
        <pt x="337" y="-52" on="0"/>
        <pt x="337" y="-67" on="1"/>
        <pt x="337" y="-83" on="0"/>
        <pt x="358" y="-99" on="0"/>
        <pt x="374" y="-99" on="1"/>
        <pt x="394" y="-99" on="0"/>
        <pt x="414" y="-90" on="1"/>
        <pt x="414" y="-131" on="1"/>
        <pt x="387" y="-143" on="0"/>
        <pt x="352" y="-143" on="1"/>
        <pt x="317" y="-143" on="0"/>
        <pt x="277" y="-114" on="0"/>
        <pt x="277" y="-85" on="1"/>
        <pt x="277" y="-64" on="0"/>
        <pt x="302" y="-23" on="0"/>
        <pt x="325" y="-7" on="1"/>
        <pt x="296" y="141" on="1"/>
        <pt x="119" y="141" on="1"/>
        <pt x="92" y="0" on="1"/>
        <pt x="20" y="0" on="1"/>
        <pt x="154" y="700" on="1"/>
        <pt x="267" y="700" on="1"/>
        <pt x="401" y="0" on="1"/>
        <pt x="373" y="0" on="1"/>
      </contour>
      <contour>
        <pt x="285" y="208" on="1"/>
        <pt x="206" y="612" on="1"/>
        <pt x="129" y="208" on="1"/>
      </contour>
    </TTGlyph>
    <TTGlyph name="approxequal" xMin="18" yMin="208" xMax="378" yMax="492">
      <contour>
        <pt x="145" y="492" on="0"/>
        <pt x="181" y="476" on="0"/>
        <pt x="208" y="459" on="1"/>
        <pt x="230" y="444" on="0"/>
        <pt x="260" y="430" on="0"/>
        <pt x="275" y="430" on="1"/>
        <pt x="293" y="430" on="0"/>
        <pt x="319" y="454" on="0"/>
        <pt x="340" y="486" on="1"/>
        <pt x="378" y="448" on="1"/>
        <pt x="351" y="406" on="0"/>
        <pt x="303" y="371" on="0"/>
        <pt x="274" y="371" on="1"/>
        <pt x="255" y="371" on="0"/>
        <pt x="219" y="387" on="0"/>
        <pt x="195" y="403" on="1"/>
        <pt x="173" y="417" on="0"/>
        <pt x="142" y="432" on="0"/>
        <pt x="126" y="432" on="1"/>
        <pt x="106" y="432" on="0"/>
        <pt x="77" y="408" on="0"/>
        <pt x="56" y="377" on="1"/>
        <pt x="18" y="412" on="1"/>
        <pt x="47" y="455" on="0"/>
        <pt x="97" y="491" on="0"/>
        <pt x="125" y="492" on="1"/>
      </contour>
      <contour>
        <pt x="146" y="328" on="0"/>
        <pt x="182" y="312" on="0"/>
        <pt x="209" y="295" on="1"/>
        <pt x="231" y="281" on="0"/>
        <pt x="260" y="267" on="0"/>
        <pt x="275" y="267" on="1"/>
        <pt x="293" y="267" on="0"/>
        <pt x="318" y="291" on="0"/>
        <pt x="340" y="322" on="1"/>
        <pt x="378" y="285" on="1"/>
        <pt x="351" y="243" on="0"/>
        <pt x="303" y="208" on="0"/>
        <pt x="274" y="208" on="1"/>
        <pt x="255" y="208" on="0"/>
        <pt x="220" y="224" on="0"/>
        <pt x="194" y="240" on="1"/>
        <pt x="172" y="254" on="0"/>
        <pt x="141" y="269" on="0"/>
        <pt x="125" y="269" on="1"/>
        <pt x="106" y="269" on="0"/>
        <pt x="77" y="244" on="0"/>
        <pt x="56" y="214" on="1"/>
        <pt x="18" y="249" on="1"/>
        <pt x="46" y="292" on="0"/>
        <pt x="97" y="328" on="0"/>
        <pt x="126" y="328" on="1"/>
      </contour>
    </TTGlyph>
    <TTGlyph name="aring" xMin="20" yMin="0" xMax="401" yMax="883">
      <contour>
        <pt x="241" y="883" on="0"/>
        <pt x="283" y="841" on="0"/>
        <pt x="283" y="810" on="1"/>
        <pt x="283" y="779" on="0"/>
        <pt x="241" y="737" on="0"/>
        <pt x="210" y="737" on="1"/>
        <pt x="178" y="737" on="0"/>
        <pt x="136" y="779" on="0"/>
        <pt x="136" y="810" on="1"/>
        <pt x="136" y="841" on="0"/>
        <pt x="179" y="883" on="0"/>
        <pt x="210" y="883" on="1"/>
      </contour>
      <contour>
        <pt x="194" y="846" on="0"/>
        <pt x="173" y="825" on="0"/>
        <pt x="173" y="810" on="1"/>
        <pt x="173" y="794" on="0"/>
        <pt x="194" y="774" on="0"/>
        <pt x="210" y="774" on="1"/>
        <pt x="225" y="774" on="0"/>
        <pt x="246" y="794" on="0"/>
        <pt x="246" y="810" on="1"/>
        <pt x="246" y="825" on="0"/>
        <pt x="225" y="846" on="0"/>
        <pt x="210" y="846" on="1"/>
      </contour>
      <contour>
        <pt x="92" y="0" on="1"/>
        <pt x="20" y="0" on="1"/>
        <pt x="154" y="700" on="1"/>
        <pt x="267" y="700" on="1"/>
        <pt x="401" y="0" on="1"/>
        <pt x="323" y="0" on="1"/>
        <pt x="296" y="141" on="1"/>
        <pt x="119" y="141" on="1"/>
      </contour>
      <contour>
        <pt x="285" y="208" on="1"/>
        <pt x="206" y="612" on="1"/>
        <pt x="129" y="208" on="1"/>
      </contour>
    </TTGlyph>
    <TTGlyph name="asciicircum" xMin="27" yMin="390" xMax="376" yMax="700">
      <contour>
        <pt x="27" y="390" on="1"/>
        <pt x="173" y="700" on="1"/>
        <pt x="230" y="700" on="1"/>
        <pt x="376" y="390" on="1"/>
        <pt x="313" y="390" on="1"/>
        <pt x="201" y="629" on="1"/>
        <pt x="90" y="390" on="1"/>
      </contour>
    </TTGlyph>
    <TTGlyph name="asciitilde" xMin="18" yMin="289" xMax="378" yMax="410">
      <contour>
        <pt x="146" y="410" on="0"/>
        <pt x="183" y="393" on="0"/>
        <pt x="208" y="377" on="1"/>
        <pt x="233" y="362" on="0"/>
        <pt x="260" y="349" on="0"/>
        <pt x="274" y="349" on="1"/>
        <pt x="292" y="349" on="0"/>
        <pt x="319" y="373" on="0"/>
        <pt x="340" y="404" on="1"/>
        <pt x="378" y="366" on="1"/>
        <pt x="351" y="324" on="0"/>
        <pt x="303" y="289" on="0"/>
        <pt x="274" y="289" on="1"/>
        <pt x="255" y="289" on="0"/>
        <pt x="218" y="306" on="0"/>
        <pt x="193" y="322" on="1"/>
        <pt x="171" y="336" on="0"/>
        <pt x="140" y="351" on="0"/>
        <pt x="125" y="351" on="1"/>
        <pt x="106" y="351" on="0"/>
        <pt x="77" y="326" on="0"/>
        <pt x="56" y="295" on="1"/>
        <pt x="18" y="331" on="1"/>
        <pt x="47" y="374" on="0"/>
        <pt x="97" y="410" on="0"/>
        <pt x="126" y="410" on="1"/>
      </contour>
    </TTGlyph>
    <TTGlyph name="asterisk" xMin="18" yMin="355" xMax="377" yMax="697">
      <contour>
        <pt x="327" y="393" on="1"/>
        <pt x="276" y="355" on="1"/>
        <pt x="197" y="494" on="1"/>
        <pt x="119" y="355" on="1"/>
        <pt x="68" y="393" on="1"/>
        <pt x="173" y="510" on="1"/>
        <pt x="18" y="542" on="1"/>
        <pt x="37" y="603" on="1"/>
        <pt x="183" y="539" on="1"/>
        <pt x="165" y="697" on="1"/>
        <pt x="229" y="697" on="1"/>
        <pt x="212" y="539" on="1"/>
        <pt x="358" y="602" on="1"/>
        <pt x="377" y="541" on="1"/>
        <pt x="221" y="510" on="1"/>
      </contour>
    </TTGlyph>
    <TTGlyph name="at" xMin="29" yMin="-53" xMax="664" yMax="735">
      <contour>
        <pt x="534" y="735" on="0"/>
        <pt x="664" y="580" on="0"/>
        <pt x="664" y="447" on="1"/>
        <pt x="664" y="352" on="0"/>
        <pt x="613" y="210" on="0"/>
        <pt x="528" y="135" on="0"/>
        <pt x="481" y="135" on="1"/>
        <pt x="445" y="135" on="0"/>
        <pt x="404" y="170" on="0"/>
        <pt x="402" y="203" on="1"/>
        <pt x="370" y="135" on="0"/>
        <pt x="302" y="135" on="1"/>
        <pt x="253" y="135" on="0"/>
        <pt x="205" y="200" on="0"/>
        <pt x="205" y="256" on="1"/>
        <pt x="205" y="266" on="0"/>
        <pt x="207" y="288" on="1"/>
        <pt x="218" y="388" on="1"/>
        <pt x="225" y="457" on="0"/>
        <pt x="286" y="534" on="0"/>
        <pt x="338" y="534" on="1"/>
        <pt x="373" y="534" on="0"/>
        <pt x="419" y="500" on="0"/>
        <pt x="428" y="468" on="1"/>
        <pt x="435" y="530" on="1"/>
        <pt x="503" y="530" on="1"/>
        <pt x="473" y="243" on="1"/>
        <pt x="471" y="224" on="0"/>
        <pt x="484" y="200" on="0"/>
        <pt x="502" y="200" on="1"/>
        <pt x="554" y="200" on="0"/>
        <pt x="604" y="350" on="0"/>
        <pt x="604" y="440" on="1"/>
        <pt x="604" y="551" on="0"/>
        <pt x="499" y="674" on="0"/>
        <pt x="389" y="674" on="1"/>
        <pt x="245" y="674" on="0"/>
        <pt x="96" y="460" on="0"/>
        <pt x="96" y="284" on="1"/>
        <pt x="96" y="151" on="0"/>
        <pt x="221" y="7" on="0"/>
        <pt x="349" y="7" on="1"/>
        <pt x="406" y="7" on="0"/>
        <pt x="501" y="35" on="0"/>
        <pt x="546" y="70" on="1"/>
        <pt x="540" y="1" on="1"/>
        <pt x="497" y="-29" on="0"/>
        <pt x="402" y="-53" on="0"/>
        <pt x="345" y="-53" on="1"/>
        <pt x="185" y="-53" on="0"/>
        <pt x="29" y="127" on="0"/>
        <pt x="29" y="288" on="1"/>
        <pt x="29" y="411" on="0"/>
        <pt x="109" y="614" on="0"/>
        <pt x="272" y="735" on="0"/>
        <pt x="391" y="735" on="1"/>
      </contour>
      <contour>
        <pt x="327" y="466" on="0"/>
        <pt x="290" y="422" on="0"/>
        <pt x="285" y="381" on="1"/>
        <pt x="276" y="291" on="1"/>
        <pt x="275" y="284" on="0"/>
        <pt x="275" y="271" on="1"/>
        <pt x="275" y="201" on="0"/>
        <pt x="335" y="201" on="1"/>
        <pt x="368" y="201" on="0"/>
        <pt x="405" y="249" on="0"/>
        <pt x="410" y="290" on="1"/>
        <pt x="420" y="386" on="1"/>
        <pt x="421" y="391" on="0"/>
        <pt x="421" y="400" on="1"/>
        <pt x="421" y="431" on="0"/>
        <pt x="389" y="466" on="0"/>
        <pt x="360" y="466" on="1"/>
      </contour>
    </TTGlyph>
    <TTGlyph name="atilde" xMin="20" yMin="0" xMax="401" yMax="826">
      <contour>
        <pt x="176" y="826" on="0"/>
        <pt x="198" y="818" on="0"/>
        <pt x="214" y="809" on="1"/>
        <pt x="238" y="796" on="0"/>
        <pt x="253" y="796" on="1"/>
        <pt x="279" y="798" on="0"/>
        <pt x="293" y="826" on="1"/>
        <pt x="332" y="799" on="1"/>
        <pt x="309" y="742" on="0"/>
        <pt x="259" y="742" on="1"/>
        <pt x="245" y="742" on="0"/>
        <pt x="223" y="750" on="0"/>
        <pt x="208" y="758" on="1"/>
        <pt x="184" y="771" on="0"/>
        <pt x="169" y="771" on="1"/>
        <pt x="155" y="771" on="0"/>
        <pt x="135" y="758" on="0"/>
        <pt x="127" y="741" on="1"/>
        <pt x="88" y="768" on="1"/>
        <pt x="110" y="824" on="0"/>
        <pt x="161" y="826" on="1"/>
      </contour>
      <contour>
        <pt x="92" y="0" on="1"/>
        <pt x="20" y="0" on="1"/>
        <pt x="154" y="700" on="1"/>
        <pt x="267" y="700" on="1"/>
        <pt x="401" y="0" on="1"/>
        <pt x="323" y="0" on="1"/>
        <pt x="296" y="141" on="1"/>
        <pt x="119" y="141" on="1"/>
      </contour>
      <contour>
        <pt x="285" y="208" on="1"/>
        <pt x="206" y="612" on="1"/>
        <pt x="129" y="208" on="1"/>
      </contour>
    </TTGlyph>
    <TTGlyph name="b" xMin="40" yMin="0" xMax="361" yMax="700">
      <contour>
        <pt x="277" y="700" on="0"/>
        <pt x="349" y="624" on="0"/>
        <pt x="349" y="545" on="1"/>
        <pt x="349" y="512" on="1"/>
        <pt x="349" y="454" on="0"/>
        <pt x="311" y="387" on="0"/>
        <pt x="267" y="373" on="1"/>
        <pt x="361" y="347" on="0"/>
        <pt x="361" y="223" on="1"/>
        <pt x="361" y="164" on="1"/>
        <pt x="361" y="84" on="0"/>
        <pt x="282" y="0" on="0"/>
        <pt x="201" y="0" on="1"/>
        <pt x="40" y="0" on="1"/>
        <pt x="40" y="700" on="1"/>
        <pt x="197" y="700" on="1"/>
      </contour>
      <contour>
        <pt x="227" y="403" on="0"/>
        <pt x="272" y="443" on="0"/>
        <pt x="272" y="496" on="1"/>
        <pt x="272" y="537" on="1"/>
        <pt x="272" y="584" on="0"/>
        <pt x="236" y="629" on="0"/>
        <pt x="195" y="629" on="1"/>
        <pt x="118" y="629" on="1"/>
        <pt x="118" y="403" on="1"/>
        <pt x="178" y="403" on="1"/>
      </contour>
      <contour>
        <pt x="244" y="71" on="0"/>
        <pt x="284" y="117" on="0"/>
        <pt x="284" y="166" on="1"/>
        <pt x="284" y="228" on="1"/>
        <pt x="284" y="285" on="0"/>
        <pt x="238" y="332" on="0"/>
        <pt x="186" y="332" on="1"/>
        <pt x="118" y="332" on="1"/>
        <pt x="118" y="71" on="1"/>
        <pt x="201" y="71" on="1"/>
      </contour>
    </TTGlyph>
    <TTGlyph name="backslash" xMin="16" yMin="0" xMax="360" yMax="700">
      <contour>
        <pt x="360" y="0" on="1"/>
        <pt x="292" y="0" on="1"/>
        <pt x="16" y="700" on="1"/>
        <pt x="84" y="700" on="1"/>
      </contour>
    </TTGlyph>
    <TTGlyph name="bar" xMin="158" yMin="-44" xMax="222" yMax="744">
      <contour>
        <pt x="222" y="-44" on="1"/>
        <pt x="158" y="-44" on="1"/>
        <pt x="158" y="744" on="1"/>
        <pt x="222" y="744" on="1"/>
      </contour>
    </TTGlyph>
    <TTGlyph name="braceleft" xMin="20" yMin="0" xMax="233" yMax="700">
      <contour>
        <pt x="184" y="636" on="0"/>
        <pt x="159" y="601" on="0"/>
        <pt x="157" y="559" on="1"/>
        <pt x="151" y="446" on="1"/>
        <pt x="149" y="409" on="0"/>
        <pt x="122" y="360" on="0"/>
        <pt x="86" y="350" on="1"/>
        <pt x="122" y="340" on="0"/>
        <pt x="149" y="291" on="0"/>
        <pt x="151" y="254" on="1"/>
        <pt x="157" y="141" on="1"/>
        <pt x="159" y="99" on="0"/>
        <pt x="184" y="64" on="0"/>
        <pt x="214" y="64" on="1"/>
        <pt x="233" y="64" on="1"/>
        <pt x="233" y="0" on="1"/>
        <pt x="187" y="0" on="1"/>
        <pt x="95" y="0" on="0"/>
        <pt x="87" y="107" on="1"/>
        <pt x="80" y="243" on="1"/>
        <pt x="78" y="282" on="0"/>
        <pt x="55" y="314" on="0"/>
        <pt x="20" y="317" on="1"/>
        <pt x="20" y="383" on="1"/>
        <pt x="55" y="386" on="0"/>
        <pt x="78" y="418" on="0"/>
        <pt x="80" y="457" on="1"/>
        <pt x="87" y="593" on="1"/>
        <pt x="95" y="700" on="0"/>
        <pt x="187" y="700" on="1"/>
        <pt x="233" y="700" on="1"/>
        <pt x="233" y="636" on="1"/>
        <pt x="214" y="636" on="1"/>
      </contour>
    </TTGlyph>
    <TTGlyph name="braceright" xMin="24" yMin="0" xMax="236" yMax="700">
      <contour>
        <pt x="116" y="700" on="0"/>
        <pt x="166" y="645" on="0"/>
        <pt x="169" y="593" on="1"/>
        <pt x="177" y="457" on="1"/>
        <pt x="179" y="417" on="0"/>
        <pt x="201" y="386" on="0"/>
        <pt x="236" y="383" on="1"/>
        <pt x="236" y="317" on="1"/>
        <pt x="201" y="314" on="0"/>
        <pt x="179" y="283" on="0"/>
        <pt x="177" y="243" on="1"/>
        <pt x="169" y="107" on="1"/>
        <pt x="166" y="55" on="0"/>
        <pt x="116" y="0" on="0"/>
        <pt x="70" y="0" on="1"/>
        <pt x="24" y="0" on="1"/>
        <pt x="24" y="64" on="1"/>
        <pt x="43" y="64" on="1"/>
        <pt x="73" y="64" on="0"/>
        <pt x="98" y="99" on="0"/>
        <pt x="100" y="141" on="1"/>
        <pt x="106" y="254" on="1"/>
        <pt x="108" y="292" on="0"/>
        <pt x="134" y="340" on="0"/>
        <pt x="171" y="350" on="1"/>
        <pt x="134" y="360" on="0"/>
        <pt x="108" y="408" on="0"/>
        <pt x="106" y="446" on="1"/>
        <pt x="100" y="559" on="1"/>
        <pt x="98" y="601" on="0"/>
        <pt x="73" y="636" on="0"/>
        <pt x="43" y="636" on="1"/>
        <pt x="24" y="636" on="1"/>
        <pt x="24" y="700" on="1"/>
        <pt x="70" y="700" on="1"/>
      </contour>
    </TTGlyph>
    <TTGlyph name="bracketleft" xMin="45" yMin="0" xMax="214" yMax="700">
      <contour>
        <pt x="214" y="0" on="1"/>
        <pt x="45" y="0" on="1"/>
        <pt x="45" y="700" on="1"/>
        <pt x="214" y="700" on="1"/>
        <pt x="214" y="636" on="1"/>
        <pt x="122" y="636" on="1"/>
        <pt x="122" y="64" on="1"/>
        <pt x="214" y="64" on="1"/>
      </contour>
    </TTGlyph>
    <TTGlyph name="bracketright" xMin="28" yMin="0" xMax="197" yMax="700">
      <contour>
        <pt x="119" y="636" on="1"/>
        <pt x="28" y="636" on="1"/>
        <pt x="28" y="700" on="1"/>
        <pt x="197" y="700" on="1"/>
        <pt x="197" y="0" on="1"/>
        <pt x="28" y="0" on="1"/>
        <pt x="28" y="64" on="1"/>
        <pt x="119" y="64" on="1"/>
      </contour>
    </TTGlyph>
    <TTGlyph name="breve" xMin="22" yMin="733" xMax="231" yMax="834">
      <contour>
        <pt x="230" y="787" on="0"/>
        <pt x="174" y="733" on="0"/>
        <pt x="125" y="733" on="1"/>
        <pt x="77" y="733" on="0"/>
        <pt x="23" y="787" on="0"/>
        <pt x="22" y="834" on="1"/>
        <pt x="69" y="834" on="1"/>
        <pt x="72" y="782" on="0"/>
        <pt x="125" y="782" on="1"/>
        <pt x="180" y="782" on="0"/>
        <pt x="183" y="834" on="1"/>
        <pt x="231" y="834" on="1"/>
      </contour>
    </TTGlyph>
    <TTGlyph name="brokenbar" xMin="158" yMin="-44" xMax="222" yMax="744">
      <contour>
        <pt x="222" y="744" on="1"/>
        <pt x="222" y="410" on="1"/>
        <pt x="158" y="410" on="1"/>
        <pt x="158" y="744" on="1"/>
      </contour>
      <contour>
        <pt x="222" y="290" on="1"/>
        <pt x="222" y="-44" on="1"/>
        <pt x="158" y="-44" on="1"/>
        <pt x="158" y="290" on="1"/>
      </contour>
    </TTGlyph>
    <TTGlyph name="bullet" xMin="59" yMin="245" xMax="269" yMax="455">
      <contour>
        <pt x="208" y="455" on="0"/>
        <pt x="269" y="394" on="0"/>
        <pt x="269" y="350" on="1"/>
        <pt x="269" y="307" on="0"/>
        <pt x="208" y="245" on="0"/>
        <pt x="164" y="245" on="1"/>
        <pt x="121" y="245" on="0"/>
        <pt x="59" y="307" on="0"/>
        <pt x="59" y="350" on="1"/>
        <pt x="59" y="394" on="0"/>
        <pt x="121" y="455" on="0"/>
        <pt x="164" y="455" on="1"/>
      </contour>
    </TTGlyph>
    <TTGlyph name="c" xMin="34" yMin="-7" xMax="349" yMax="707">
      <contour>
        <pt x="270" y="707" on="0"/>
        <pt x="349" y="613" on="0"/>
        <pt x="349" y="531" on="1"/>
        <pt x="349" y="468" on="1"/>
        <pt x="275" y="468" on="1"/>
        <pt x="275" y="535" on="1"/>
        <pt x="275" y="636" on="0"/>
        <pt x="193" y="636" on="1"/>
        <pt x="152" y="636" on="0"/>
        <pt x="111" y="583" on="0"/>
        <pt x="111" y="535" on="1"/>
        <pt x="111" y="165" on="1"/>
        <pt x="111" y="117" on="0"/>
        <pt x="152" y="64" on="0"/>
        <pt x="193" y="64" on="1"/>
        <pt x="275" y="64" on="0"/>
        <pt x="275" y="165" on="1"/>
        <pt x="275" y="256" on="1"/>
        <pt x="349" y="256" on="1"/>
        <pt x="349" y="169" on="1"/>
        <pt x="349" y="87" on="0"/>
        <pt x="270" y="-7" on="0"/>
        <pt x="191" y="-7" on="1"/>
        <pt x="113" y="-7" on="0"/>
        <pt x="34" y="87" on="0"/>
        <pt x="34" y="169" on="1"/>
        <pt x="34" y="531" on="1"/>
        <pt x="34" y="613" on="0"/>
        <pt x="113" y="707" on="0"/>
        <pt x="191" y="707" on="1"/>
      </contour>
    </TTGlyph>
    <TTGlyph name="cacute" xMin="34" yMin="-7" xMax="349" yMax="845">
      <contour>
        <pt x="200" y="742" on="1"/>
        <pt x="145" y="742" on="1"/>
        <pt x="215" y="845" on="1"/>
        <pt x="293" y="845" on="1"/>
      </contour>
      <contour>
        <pt x="270" y="707" on="0"/>
        <pt x="349" y="613" on="0"/>
        <pt x="349" y="531" on="1"/>
        <pt x="349" y="468" on="1"/>
        <pt x="275" y="468" on="1"/>
        <pt x="275" y="535" on="1"/>
        <pt x="275" y="636" on="0"/>
        <pt x="193" y="636" on="1"/>
        <pt x="152" y="636" on="0"/>
        <pt x="111" y="583" on="0"/>
        <pt x="111" y="535" on="1"/>
        <pt x="111" y="165" on="1"/>
        <pt x="111" y="117" on="0"/>
        <pt x="152" y="64" on="0"/>
        <pt x="193" y="64" on="1"/>
        <pt x="275" y="64" on="0"/>
        <pt x="275" y="165" on="1"/>
        <pt x="275" y="256" on="1"/>
        <pt x="349" y="256" on="1"/>
        <pt x="349" y="169" on="1"/>
        <pt x="349" y="87" on="0"/>
        <pt x="270" y="-7" on="0"/>
        <pt x="191" y="-7" on="1"/>
        <pt x="113" y="-7" on="0"/>
        <pt x="34" y="87" on="0"/>
        <pt x="34" y="169" on="1"/>
        <pt x="34" y="531" on="1"/>
        <pt x="34" y="613" on="0"/>
        <pt x="113" y="707" on="0"/>
        <pt x="191" y="707" on="1"/>
      </contour>
    </TTGlyph>
    <TTGlyph name="caron" xMin="4" yMin="748" xMax="246" yMax="848">
      <contour>
        <pt x="125" y="788" on="1"/>
        <pt x="178" y="848" on="1"/>
        <pt x="246" y="848" on="1"/>
        <pt x="160" y="748" on="1"/>
        <pt x="91" y="748" on="1"/>
        <pt x="4" y="848" on="1"/>
        <pt x="72" y="848" on="1"/>
      </contour>
    </TTGlyph>
    <TTGlyph name="ccaron" xMin="34" yMin="-7" xMax="349" yMax="841">
      <contour>
        <pt x="193" y="781" on="1"/>
        <pt x="246" y="841" on="1"/>
        <pt x="315" y="841" on="1"/>
        <pt x="228" y="741" on="1"/>
        <pt x="159" y="741" on="1"/>
        <pt x="73" y="841" on="1"/>
        <pt x="141" y="841" on="1"/>
      </contour>
      <contour>
        <pt x="270" y="707" on="0"/>
        <pt x="349" y="613" on="0"/>
        <pt x="349" y="531" on="1"/>
        <pt x="349" y="468" on="1"/>
        <pt x="275" y="468" on="1"/>
        <pt x="275" y="535" on="1"/>
        <pt x="275" y="636" on="0"/>
        <pt x="193" y="636" on="1"/>
        <pt x="152" y="636" on="0"/>
        <pt x="111" y="583" on="0"/>
        <pt x="111" y="535" on="1"/>
        <pt x="111" y="165" on="1"/>
        <pt x="111" y="117" on="0"/>
        <pt x="152" y="64" on="0"/>
        <pt x="193" y="64" on="1"/>
        <pt x="275" y="64" on="0"/>
        <pt x="275" y="165" on="1"/>
        <pt x="275" y="256" on="1"/>
        <pt x="349" y="256" on="1"/>
        <pt x="349" y="169" on="1"/>
        <pt x="349" y="87" on="0"/>
        <pt x="270" y="-7" on="0"/>
        <pt x="191" y="-7" on="1"/>
        <pt x="113" y="-7" on="0"/>
        <pt x="34" y="87" on="0"/>
        <pt x="34" y="169" on="1"/>
        <pt x="34" y="531" on="1"/>
        <pt x="34" y="613" on="0"/>
        <pt x="113" y="707" on="0"/>
        <pt x="191" y="707" on="1"/>
      </contour>
    </TTGlyph>
    <TTGlyph name="ccedilla" xMin="34" yMin="-152" xMax="349" yMax="707">
      <contour>
        <pt x="270" y="707" on="0"/>
        <pt x="349" y="613" on="0"/>
        <pt x="349" y="531" on="1"/>
        <pt x="349" y="468" on="1"/>
        <pt x="275" y="468" on="1"/>
        <pt x="275" y="535" on="1"/>
        <pt x="275" y="636" on="0"/>
        <pt x="193" y="636" on="1"/>
        <pt x="152" y="636" on="0"/>
        <pt x="111" y="583" on="0"/>
        <pt x="111" y="535" on="1"/>
        <pt x="111" y="165" on="1"/>
        <pt x="111" y="117" on="0"/>
        <pt x="152" y="64" on="0"/>
        <pt x="193" y="64" on="1"/>
        <pt x="275" y="64" on="0"/>
        <pt x="275" y="165" on="1"/>
        <pt x="275" y="256" on="1"/>
        <pt x="349" y="256" on="1"/>
        <pt x="349" y="169" on="1"/>
        <pt x="349" y="92" on="0"/>
        <pt x="278" y="-2" on="0"/>
        <pt x="208" y="-6" on="1"/>
        <pt x="208" y="-37" on="1"/>
        <pt x="243" y="-37" on="0"/>
        <pt x="282" y="-64" on="0"/>
        <pt x="282" y="-88" on="1"/>
        <pt x="282" y="-118" on="0"/>
        <pt x="232" y="-152" on="0"/>
        <pt x="187" y="-152" on="1"/>
        <pt x="144" y="-152" on="0"/>
        <pt x="95" y="-119" on="0"/>
        <pt x="95" y="-90" on="1"/>
        <pt x="95" y="-82" on="1"/>
        <pt x="146" y="-82" on="1"/>
        <pt x="146" y="-89" on="1"/>
        <pt x="146" y="-101" on="0"/>
        <pt x="168" y="-117" on="0"/>
        <pt x="187" y="-118" on="1"/>
        <pt x="207" y="-118" on="0"/>
        <pt x="230" y="-101" on="0"/>
        <pt x="230" y="-86" on="1"/>
        <pt x="230" y="-72" on="0"/>
        <pt x="204" y="-56" on="0"/>
        <pt x="181" y="-56" on="1"/>
        <pt x="172" y="-56" on="1"/>
        <pt x="172" y="-6" on="1"/>
        <pt x="103" y="-1" on="0"/>
        <pt x="34" y="92" on="0"/>
        <pt x="34" y="169" on="1"/>
        <pt x="34" y="531" on="1"/>
        <pt x="34" y="613" on="0"/>
        <pt x="113" y="707" on="0"/>
        <pt x="191" y="707" on="1"/>
      </contour>
    </TTGlyph>
    <TTGlyph name="ccircumflex" xMin="34" yMin="-7" xMax="349" yMax="841">
      <contour>
        <pt x="72" y="740" on="1"/>
        <pt x="158" y="841" on="1"/>
        <pt x="227" y="841" on="1"/>
        <pt x="314" y="740" on="1"/>
        <pt x="246" y="740" on="1"/>
        <pt x="193" y="799" on="1"/>
        <pt x="140" y="740" on="1"/>
      </contour>
      <contour>
        <pt x="270" y="707" on="0"/>
        <pt x="349" y="613" on="0"/>
        <pt x="349" y="531" on="1"/>
        <pt x="349" y="468" on="1"/>
        <pt x="275" y="468" on="1"/>
        <pt x="275" y="535" on="1"/>
        <pt x="275" y="636" on="0"/>
        <pt x="193" y="636" on="1"/>
        <pt x="152" y="636" on="0"/>
        <pt x="111" y="583" on="0"/>
        <pt x="111" y="535" on="1"/>
        <pt x="111" y="165" on="1"/>
        <pt x="111" y="117" on="0"/>
        <pt x="152" y="64" on="0"/>
        <pt x="193" y="64" on="1"/>
        <pt x="275" y="64" on="0"/>
        <pt x="275" y="165" on="1"/>
        <pt x="275" y="256" on="1"/>
        <pt x="349" y="256" on="1"/>
        <pt x="349" y="169" on="1"/>
        <pt x="349" y="87" on="0"/>
        <pt x="270" y="-7" on="0"/>
        <pt x="191" y="-7" on="1"/>
        <pt x="113" y="-7" on="0"/>
        <pt x="34" y="87" on="0"/>
        <pt x="34" y="169" on="1"/>
        <pt x="34" y="531" on="1"/>
        <pt x="34" y="613" on="0"/>
        <pt x="113" y="707" on="0"/>
        <pt x="191" y="707" on="1"/>
      </contour>
    </TTGlyph>
    <TTGlyph name="cdotaccent" xMin="34" yMin="-7" xMax="349" yMax="828">
      <contour>
        <pt x="225" y="738" on="1"/>
        <pt x="157" y="738" on="1"/>
        <pt x="157" y="828" on="1"/>
        <pt x="225" y="828" on="1"/>
      </contour>
      <contour>
        <pt x="270" y="707" on="0"/>
        <pt x="349" y="613" on="0"/>
        <pt x="349" y="531" on="1"/>
        <pt x="349" y="468" on="1"/>
        <pt x="275" y="468" on="1"/>
        <pt x="275" y="535" on="1"/>
        <pt x="275" y="636" on="0"/>
        <pt x="193" y="636" on="1"/>
        <pt x="152" y="636" on="0"/>
        <pt x="111" y="583" on="0"/>
        <pt x="111" y="535" on="1"/>
        <pt x="111" y="165" on="1"/>
        <pt x="111" y="117" on="0"/>
        <pt x="152" y="64" on="0"/>
        <pt x="193" y="64" on="1"/>
        <pt x="275" y="64" on="0"/>
        <pt x="275" y="165" on="1"/>
        <pt x="275" y="256" on="1"/>
        <pt x="349" y="256" on="1"/>
        <pt x="349" y="169" on="1"/>
        <pt x="349" y="87" on="0"/>
        <pt x="270" y="-7" on="0"/>
        <pt x="191" y="-7" on="1"/>
        <pt x="113" y="-7" on="0"/>
        <pt x="34" y="87" on="0"/>
        <pt x="34" y="169" on="1"/>
        <pt x="34" y="531" on="1"/>
        <pt x="34" y="613" on="0"/>
        <pt x="113" y="707" on="0"/>
        <pt x="191" y="707" on="1"/>
      </contour>
    </TTGlyph>
    <TTGlyph name="cedilla" xMin="31" yMin="-149" xMax="217" yMax="9">
      <contour>
        <pt x="179" y="-39" on="0"/>
        <pt x="217" y="-61" on="0"/>
        <pt x="217" y="-88" on="1"/>
        <pt x="217" y="-123" on="0"/>
        <pt x="167" y="-149" on="0"/>
        <pt x="123" y="-149" on="1"/>
        <pt x="82" y="-149" on="0"/>
        <pt x="31" y="-121" on="0"/>
        <pt x="31" y="-90" on="1"/>
        <pt x="31" y="-82" on="1"/>
        <pt x="84" y="-82" on="1"/>
        <pt x="84" y="-89" on="1"/>
        <pt x="84" y="-104" on="0"/>
        <pt x="107" y="-118" on="0"/>
        <pt x="123" y="-119" on="1"/>
        <pt x="140" y="-119" on="0"/>
        <pt x="163" y="-103" on="0"/>
        <pt x="163" y="-86" on="1"/>
        <pt x="163" y="-68" on="0"/>
        <pt x="138" y="-54" on="0"/>
        <pt x="116" y="-54" on="1"/>
        <pt x="108" y="-54" on="1"/>
        <pt x="108" y="9" on="1"/>
        <pt x="143" y="9" on="1"/>
        <pt x="143" y="-39" on="1"/>
      </contour>
    </TTGlyph>
    <TTGlyph name="cent" xMin="37" yMin="-10" xMax="352" yMax="710">
      <contour>
        <pt x="289" y="653" on="0"/>
        <pt x="352" y="563" on="0"/>
        <pt x="352" y="490" on="1"/>
        <pt x="352" y="450" on="1"/>
        <pt x="279" y="450" on="1"/>
        <pt x="279" y="494" on="1"/>
        <pt x="279" y="593" on="0"/>
        <pt x="197" y="593" on="1"/>
        <pt x="115" y="593" on="0"/>
        <pt x="115" y="492" on="1"/>
        <pt x="115" y="208" on="1"/>
        <pt x="115" y="160" on="0"/>
        <pt x="155" y="108" on="0"/>
        <pt x="197" y="108" on="1"/>
        <pt x="238" y="108" on="0"/>
        <pt x="279" y="160" on="0"/>
        <pt x="279" y="208" on="1"/>
        <pt x="279" y="275" on="1"/>
        <pt x="352" y="275" on="1"/>
        <pt x="352" y="213" on="1"/>
        <pt x="352" y="139" on="0"/>
        <pt x="289" y="48" on="0"/>
        <pt x="225" y="40" on="1"/>
        <pt x="225" y="-10" on="1"/>
        <pt x="161" y="-10" on="1"/>
        <pt x="161" y="40" on="1"/>
        <pt x="99" y="49" on="0"/>
        <pt x="37" y="140" on="0"/>
        <pt x="37" y="213" on="1"/>
        <pt x="37" y="487" on="1"/>
        <pt x="37" y="560" on="0"/>
        <pt x="99" y="651" on="0"/>
        <pt x="161" y="660" on="1"/>
        <pt x="161" y="710" on="1"/>
        <pt x="225" y="710" on="1"/>
        <pt x="225" y="661" on="1"/>
      </contour>
    </TTGlyph>
    <TTGlyph name="circumflex" xMin="4" yMin="748" xMax="246" yMax="848">
      <contour>
        <pt x="4" y="748" on="1"/>
        <pt x="91" y="848" on="1"/>
        <pt x="160" y="848" on="1"/>
        <pt x="246" y="748" on="1"/>
        <pt x="178" y="748" on="1"/>
        <pt x="125" y="807" on="1"/>
        <pt x="72" y="748" on="1"/>
      </contour>
    </TTGlyph>
    <TTGlyph name="colon" xMin="40" yMin="0" xMax="115" yMax="478">
      <contour>
        <pt x="115" y="381" on="1"/>
        <pt x="40" y="381" on="1"/>
        <pt x="40" y="478" on="1"/>
        <pt x="115" y="478" on="1"/>
      </contour>
      <contour>
        <pt x="115" y="0" on="1"/>
        <pt x="40" y="0" on="1"/>
        <pt x="40" y="97" on="1"/>
        <pt x="115" y="97" on="1"/>
      </contour>
    </TTGlyph>
    <TTGlyph name="comma" xMin="45" yMin="-88" xMax="120" yMax="97">
      <contour>
        <pt x="45" y="0" on="1"/>
        <pt x="45" y="97" on="1"/>
        <pt x="120" y="97" on="1"/>
        <pt x="120" y="7" on="1"/>
        <pt x="81" y="-88" on="1"/>
        <pt x="49" y="-88" on="1"/>
        <pt x="74" y="0" on="1"/>
      </contour>
    </TTGlyph>
    <TTGlyph name="copyright" xMin="27" yMin="-4" xMax="715" yMax="704">
      <contour>
        <pt x="469" y="704" on="0"/>
        <pt x="626" y="612" on="0"/>
        <pt x="715" y="451" on="0"/>
        <pt x="715" y="350" on="1"/>
        <pt x="715" y="249" on="0"/>
        <pt x="626" y="88" on="0"/>
        <pt x="469" y="-4" on="0"/>
        <pt x="371" y="-4" on="1"/>
        <pt x="273" y="-4" on="0"/>
        <pt x="116" y="88" on="0"/>
        <pt x="27" y="249" on="0"/>
        <pt x="27" y="350" on="1"/>
        <pt x="27" y="451" on="0"/>
        <pt x="116" y="612" on="0"/>
        <pt x="273" y="704" on="0"/>
        <pt x="371" y="704" on="1"/>
      </contour>
      <contour>
        <pt x="288" y="654" on="0"/>
        <pt x="154" y="575" on="0"/>
        <pt x="78" y="436" on="0"/>
        <pt x="78" y="350" on="1"/>
        <pt x="78" y="264" on="0"/>
        <pt x="154" y="125" on="0"/>
        <pt x="288" y="46" on="0"/>
        <pt x="371" y="46" on="1"/>
        <pt x="454" y="46" on="0"/>
        <pt x="588" y="125" on="0"/>
        <pt x="664" y="264" on="0"/>
        <pt x="664" y="350" on="1"/>
        <pt x="664" y="436" on="0"/>
        <pt x="588" y="575" on="0"/>
        <pt x="454" y="654" on="0"/>
        <pt x="371" y="654" on="1"/>
      </contour>
      <contour>
        <pt x="421" y="570" on="0"/>
        <pt x="476" y="504" on="0"/>
        <pt x="476" y="446" on="1"/>
        <pt x="476" y="416" on="1"/>
        <pt x="424" y="416" on="1"/>
        <pt x="424" y="450" on="1"/>
        <pt x="424" y="519" on="0"/>
        <pt x="368" y="519" on="1"/>
        <pt x="340" y="519" on="0"/>
        <pt x="312" y="483" on="0"/>
        <pt x="312" y="450" on="1"/>
        <pt x="312" y="250" on="1"/>
        <pt x="312" y="217" on="0"/>
        <pt x="340" y="181" on="0"/>
        <pt x="368" y="181" on="1"/>
        <pt x="424" y="181" on="0"/>
        <pt x="424" y="250" on="1"/>
        <pt x="424" y="299" on="1"/>
        <pt x="476" y="299" on="1"/>
        <pt x="476" y="253" on="1"/>
        <pt x="476" y="196" on="0"/>
        <pt x="421" y="130" on="0"/>
        <pt x="367" y="130" on="1"/>
        <pt x="312" y="130" on="0"/>
        <pt x="258" y="195" on="0"/>
        <pt x="258" y="253" on="1"/>
        <pt x="258" y="446" on="1"/>
        <pt x="258" y="504" on="0"/>
        <pt x="312" y="570" on="0"/>
        <pt x="367" y="570" on="1"/>
      </contour>
    </TTGlyph>
    <TTGlyph name="currency" xMin="35" yMin="199" xMax="338" yMax="501">
      <contour>
        <pt x="308" y="388" on="0"/>
        <pt x="308" y="350" on="1"/>
        <pt x="308" y="311" on="0"/>
        <pt x="286" y="281" on="1"/>
        <pt x="338" y="230" on="1"/>
        <pt x="306" y="199" on="1"/>
        <pt x="255" y="249" on="1"/>
        <pt x="224" y="228" on="0"/>
        <pt x="186" y="228" on="1"/>
        <pt x="149" y="228" on="0"/>
        <pt x="117" y="249" on="1"/>
        <pt x="66" y="199" on="1"/>
        <pt x="35" y="230" on="1"/>
        <pt x="86" y="281" on="1"/>
        <pt x="64" y="311" on="0"/>
        <pt x="64" y="350" on="1"/>
        <pt x="64" y="390" on="0"/>
        <pt x="86" y="418" on="1"/>
        <pt x="35" y="470" on="1"/>
        <pt x="66" y="501" on="1"/>
        <pt x="118" y="450" on="1"/>
        <pt x="148" y="472" on="0"/>
        <pt x="186" y="472" on="1"/>
        <pt x="224" y="472" on="0"/>
        <pt x="255" y="450" on="1"/>
        <pt x="306" y="501" on="1"/>
        <pt x="338" y="470" on="1"/>
        <pt x="286" y="418" on="1"/>
      </contour>
      <contour>
        <pt x="155" y="424" on="0"/>
        <pt x="112" y="381" on="0"/>
        <pt x="112" y="350" on="1"/>
        <pt x="112" y="319" on="0"/>
        <pt x="155" y="276" on="0"/>
        <pt x="186" y="276" on="1"/>
        <pt x="217" y="276" on="0"/>
        <pt x="261" y="319" on="0"/>
        <pt x="261" y="350" on="1"/>
        <pt x="261" y="381" on="0"/>
        <pt x="217" y="424" on="0"/>
        <pt x="186" y="424" on="1"/>
      </contour>
    </TTGlyph>
    <TTGlyph name="d" xMin="40" yMin="0" xMax="363" yMax="700">
      <contour>
        <pt x="284" y="700" on="0"/>
        <pt x="363" y="609" on="0"/>
        <pt x="363" y="526" on="1"/>
        <pt x="363" y="173" on="1"/>
        <pt x="363" y="91" on="0"/>
        <pt x="284" y="0" on="0"/>
        <pt x="204" y="0" on="1"/>
        <pt x="40" y="0" on="1"/>
        <pt x="40" y="700" on="1"/>
        <pt x="204" y="700" on="1"/>
      </contour>
      <contour>
        <pt x="286" y="71" on="0"/>
        <pt x="286" y="170" on="1"/>
        <pt x="286" y="530" on="1"/>
        <pt x="286" y="629" on="0"/>
        <pt x="202" y="629" on="1"/>
        <pt x="118" y="629" on="1"/>
        <pt x="118" y="71" on="1"/>
        <pt x="203" y="71" on="1"/>
      </contour>
    </TTGlyph>
    <TTGlyph name="dagger" xMin="30" yMin="-65" xMax="365" yMax="700">
      <contour>
        <pt x="365" y="513" on="1"/>
        <pt x="365" y="452" on="1"/>
        <pt x="229" y="452" on="1"/>
        <pt x="229" y="-65" on="1"/>
        <pt x="165" y="-65" on="1"/>
        <pt x="165" y="452" on="1"/>
        <pt x="30" y="452" on="1"/>
        <pt x="30" y="513" on="1"/>
        <pt x="165" y="513" on="1"/>
        <pt x="165" y="700" on="1"/>
        <pt x="229" y="700" on="1"/>
        <pt x="229" y="513" on="1"/>
      </contour>
    </TTGlyph>
    <TTGlyph name="daggerdbl" xMin="30" yMin="-65" xMax="365" yMax="700">
      <contour>
        <pt x="365" y="513" on="1"/>
        <pt x="365" y="452" on="1"/>
        <pt x="229" y="452" on="1"/>
        <pt x="229" y="184" on="1"/>
        <pt x="365" y="184" on="1"/>
        <pt x="365" y="123" on="1"/>
        <pt x="229" y="123" on="1"/>
        <pt x="229" y="-65" on="1"/>
        <pt x="165" y="-65" on="1"/>
        <pt x="165" y="123" on="1"/>
        <pt x="30" y="123" on="1"/>
        <pt x="30" y="184" on="1"/>
        <pt x="165" y="184" on="1"/>
        <pt x="165" y="452" on="1"/>
        <pt x="30" y="452" on="1"/>
        <pt x="30" y="513" on="1"/>
        <pt x="165" y="513" on="1"/>
        <pt x="165" y="700" on="1"/>
        <pt x="229" y="700" on="1"/>
        <pt x="229" y="513" on="1"/>
      </contour>
    </TTGlyph>
    <TTGlyph name="dcaron" xMin="40" yMin="0" xMax="363" yMax="839">
      <contour>
        <pt x="188" y="779" on="1"/>
        <pt x="241" y="839" on="1"/>
        <pt x="310" y="839" on="1"/>
        <pt x="223" y="739" on="1"/>
        <pt x="154" y="739" on="1"/>
        <pt x="67" y="839" on="1"/>
        <pt x="135" y="839" on="1"/>
      </contour>
      <contour>
        <pt x="284" y="700" on="0"/>
        <pt x="363" y="609" on="0"/>
        <pt x="363" y="526" on="1"/>
        <pt x="363" y="173" on="1"/>
        <pt x="363" y="91" on="0"/>
        <pt x="284" y="0" on="0"/>
        <pt x="204" y="0" on="1"/>
        <pt x="40" y="0" on="1"/>
        <pt x="40" y="700" on="1"/>
        <pt x="204" y="700" on="1"/>
      </contour>
      <contour>
        <pt x="286" y="71" on="0"/>
        <pt x="286" y="170" on="1"/>
        <pt x="286" y="530" on="1"/>
        <pt x="286" y="629" on="0"/>
        <pt x="202" y="629" on="1"/>
        <pt x="118" y="629" on="1"/>
        <pt x="118" y="71" on="1"/>
        <pt x="203" y="71" on="1"/>
      </contour>
    </TTGlyph>
    <TTGlyph name="dcroat" xMin="1" yMin="0" xMax="363" yMax="700">
      <contour>
        <pt x="284" y="700" on="0"/>
        <pt x="363" y="609" on="0"/>
        <pt x="363" y="526" on="1"/>
        <pt x="363" y="173" on="1"/>
        <pt x="363" y="91" on="0"/>
        <pt x="284" y="0" on="0"/>
        <pt x="204" y="0" on="1"/>
        <pt x="40" y="0" on="1"/>
        <pt x="40" y="318" on="1"/>
        <pt x="1" y="318" on="1"/>
        <pt x="1" y="381" on="1"/>
        <pt x="40" y="381" on="1"/>
        <pt x="40" y="700" on="1"/>
        <pt x="204" y="700" on="1"/>
      </contour>
      <contour>
        <pt x="118" y="318" on="1"/>
        <pt x="118" y="71" on="1"/>
        <pt x="203" y="71" on="1"/>
        <pt x="286" y="71" on="0"/>
        <pt x="286" y="170" on="1"/>
        <pt x="286" y="530" on="1"/>
        <pt x="286" y="629" on="0"/>
        <pt x="202" y="629" on="1"/>
        <pt x="118" y="629" on="1"/>
        <pt x="118" y="381" on="1"/>
        <pt x="197" y="381" on="1"/>
        <pt x="197" y="318" on="1"/>
      </contour>
    </TTGlyph>
    <TTGlyph name="degree" xMin="23" yMin="536" xMax="196" yMax="708">
      <contour>
        <pt x="145" y="708" on="0"/>
        <pt x="196" y="658" on="0"/>
        <pt x="196" y="622" on="1"/>
        <pt x="196" y="586" on="0"/>
        <pt x="145" y="536" on="0"/>
        <pt x="109" y="536" on="1"/>
        <pt x="74" y="536" on="0"/>
        <pt x="23" y="586" on="0"/>
        <pt x="23" y="622" on="1"/>
        <pt x="23" y="658" on="0"/>
        <pt x="74" y="708" on="0"/>
        <pt x="109" y="708" on="1"/>
      </contour>
      <contour>
        <pt x="89" y="671" on="0"/>
        <pt x="60" y="643" on="0"/>
        <pt x="60" y="622" on="1"/>
        <pt x="60" y="602" on="0"/>
        <pt x="89" y="573" on="0"/>
        <pt x="109" y="573" on="1"/>
        <pt x="129" y="573" on="0"/>
        <pt x="159" y="602" on="0"/>
        <pt x="159" y="622" on="1"/>
        <pt x="159" y="643" on="0"/>
        <pt x="130" y="671" on="0"/>
        <pt x="109" y="671" on="1"/>
      </contour>
    </TTGlyph>
    <TTGlyph name="dieresis" xMin="35" yMin="741" xMax="184" yMax="831">
      <contour>
        <pt x="103" y="741" on="1"/>
        <pt x="35" y="741" on="1"/>
        <pt x="35" y="831" on="1"/>
        <pt x="103" y="831" on="1"/>
      </contour>
      <contour>
        <pt x="184" y="741" on="1"/>
        <pt x="116" y="741" on="1"/>
        <pt x="116" y="831" on="1"/>
        <pt x="184" y="831" on="1"/>
      </contour>
    </TTGlyph>
    <TTGlyph name="divide" xMin="30" yMin="173" xMax="320" yMax="527">
      <contour>
        <pt x="212" y="430" on="1"/>
        <pt x="137" y="430" on="1"/>
        <pt x="137" y="527" on="1"/>
        <pt x="212" y="527" on="1"/>
      </contour>
      <contour>
        <pt x="320" y="322" on="1"/>
        <pt x="30" y="322" on="1"/>
        <pt x="30" y="378" on="1"/>
        <pt x="320" y="378" on="1"/>
      </contour>
      <contour>
        <pt x="212" y="173" on="1"/>
        <pt x="137" y="173" on="1"/>
        <pt x="137" y="270" on="1"/>
        <pt x="212" y="270" on="1"/>
      </contour>
    </TTGlyph>
    <TTGlyph name="dollar" xMin="36" yMin="-51" xMax="351" yMax="753">
      <contour>
        <pt x="288" y="688" on="0"/>
        <pt x="350" y="598" on="0"/>
        <pt x="350" y="525" on="1"/>
        <pt x="350" y="506" on="1"/>
        <pt x="277" y="506" on="1"/>
        <pt x="277" y="530" on="1"/>
        <pt x="277" y="578" on="0"/>
        <pt x="237" y="630" on="0"/>
        <pt x="196" y="630" on="1"/>
        <pt x="156" y="630" on="0"/>
        <pt x="116" y="578" on="0"/>
        <pt x="116" y="530" on="1"/>
        <pt x="116" y="495" on="0"/>
        <pt x="145" y="442" on="0"/>
        <pt x="187" y="403" on="0"/>
        <pt x="224" y="375" on="1"/>
        <pt x="266" y="342" on="0"/>
        <pt x="316" y="295" on="0"/>
        <pt x="351" y="223" on="0"/>
        <pt x="351" y="175" on="1"/>
        <pt x="351" y="102" on="0"/>
        <pt x="288" y="11" on="0"/>
        <pt x="226" y="2" on="1"/>
        <pt x="226" y="-51" on="1"/>
        <pt x="162" y="-51" on="1"/>
        <pt x="162" y="2" on="1"/>
        <pt x="99" y="11" on="0"/>
        <pt x="36" y="101" on="0"/>
        <pt x="36" y="175" on="1"/>
        <pt x="36" y="218" on="1"/>
        <pt x="109" y="218" on="1"/>
        <pt x="109" y="170" on="1"/>
        <pt x="109" y="71" on="0"/>
        <pt x="191" y="71" on="1"/>
        <pt x="273" y="71" on="0"/>
        <pt x="273" y="170" on="1"/>
        <pt x="273" y="219" on="0"/>
        <pt x="220" y="284" on="0"/>
        <pt x="166" y="324" on="1"/>
        <pt x="124" y="356" on="0"/>
        <pt x="74" y="405" on="0"/>
        <pt x="39" y="477" on="0"/>
        <pt x="39" y="525" on="1"/>
        <pt x="39" y="599" on="0"/>
        <pt x="100" y="687" on="0"/>
        <pt x="162" y="697" on="1"/>
        <pt x="162" y="753" on="1"/>
        <pt x="226" y="753" on="1"/>
        <pt x="226" y="697" on="1"/>
      </contour>
    </TTGlyph>
    <TTGlyph name="dotaccent" xMin="65" yMin="743" xMax="133" yMax="833">
      <contour>
        <pt x="133" y="743" on="1"/>
        <pt x="65" y="743" on="1"/>
        <pt x="65" y="833" on="1"/>
        <pt x="133" y="833" on="1"/>
      </contour>
    </TTGlyph>
    <TTGlyph name="dotlessi" xMin="40" yMin="0" xMax="118" yMax="700">
      <contour>
        <pt x="118" y="0" on="1"/>
        <pt x="40" y="0" on="1"/>
        <pt x="40" y="700" on="1"/>
        <pt x="118" y="700" on="1"/>
      </contour>
    </TTGlyph>
    <TTGlyph name="e" xMin="40" yMin="0" xMax="328" yMax="700">
      <contour>
        <pt x="289" y="320" on="1"/>
        <pt x="118" y="320" on="1"/>
        <pt x="118" y="71" on="1"/>
        <pt x="328" y="71" on="1"/>
        <pt x="328" y="0" on="1"/>
        <pt x="40" y="0" on="1"/>
        <pt x="40" y="700" on="1"/>
        <pt x="328" y="700" on="1"/>
        <pt x="328" y="629" on="1"/>
        <pt x="118" y="629" on="1"/>
        <pt x="118" y="390" on="1"/>
        <pt x="289" y="390" on="1"/>
      </contour>
    </TTGlyph>
    <TTGlyph name="eacute" xMin="40" yMin="0" xMax="328" yMax="842">
      <contour>
        <pt x="190" y="739" on="1"/>
        <pt x="136" y="739" on="1"/>
        <pt x="206" y="842" on="1"/>
        <pt x="283" y="842" on="1"/>
      </contour>
      <contour>
        <pt x="289" y="320" on="1"/>
        <pt x="118" y="320" on="1"/>
        <pt x="118" y="71" on="1"/>
        <pt x="328" y="71" on="1"/>
        <pt x="328" y="0" on="1"/>
        <pt x="40" y="0" on="1"/>
        <pt x="40" y="700" on="1"/>
        <pt x="328" y="700" on="1"/>
        <pt x="328" y="629" on="1"/>
        <pt x="118" y="629" on="1"/>
        <pt x="118" y="390" on="1"/>
        <pt x="289" y="390" on="1"/>
      </contour>
    </TTGlyph>
    <TTGlyph name="ebreve" xMin="40" yMin="0" xMax="328" yMax="840">
      <contour>
        <pt x="286" y="793" on="0"/>
        <pt x="230" y="739" on="0"/>
        <pt x="181" y="739" on="1"/>
        <pt x="133" y="739" on="0"/>
        <pt x="79" y="793" on="0"/>
        <pt x="78" y="840" on="1"/>
        <pt x="125" y="840" on="1"/>
        <pt x="128" y="788" on="0"/>
        <pt x="181" y="788" on="1"/>
        <pt x="236" y="788" on="0"/>
        <pt x="240" y="840" on="1"/>
        <pt x="287" y="840" on="1"/>
      </contour>
      <contour>
        <pt x="289" y="320" on="1"/>
        <pt x="118" y="320" on="1"/>
        <pt x="118" y="71" on="1"/>
        <pt x="328" y="71" on="1"/>
        <pt x="328" y="0" on="1"/>
        <pt x="40" y="0" on="1"/>
        <pt x="40" y="700" on="1"/>
        <pt x="328" y="700" on="1"/>
        <pt x="328" y="629" on="1"/>
        <pt x="118" y="629" on="1"/>
        <pt x="118" y="390" on="1"/>
        <pt x="289" y="390" on="1"/>
      </contour>
    </TTGlyph>
    <TTGlyph name="ecaron" xMin="40" yMin="0" xMax="328" yMax="839">
      <contour>
        <pt x="183" y="779" on="1"/>
        <pt x="237" y="839" on="1"/>
        <pt x="305" y="839" on="1"/>
        <pt x="218" y="739" on="1"/>
        <pt x="149" y="739" on="1"/>
        <pt x="63" y="839" on="1"/>
        <pt x="131" y="839" on="1"/>
      </contour>
      <contour>
        <pt x="289" y="320" on="1"/>
        <pt x="118" y="320" on="1"/>
        <pt x="118" y="71" on="1"/>
        <pt x="328" y="71" on="1"/>
        <pt x="328" y="0" on="1"/>
        <pt x="40" y="0" on="1"/>
        <pt x="40" y="700" on="1"/>
        <pt x="328" y="700" on="1"/>
        <pt x="328" y="629" on="1"/>
        <pt x="118" y="629" on="1"/>
        <pt x="118" y="390" on="1"/>
        <pt x="289" y="390" on="1"/>
      </contour>
    </TTGlyph>
    <TTGlyph name="ecircumflex" xMin="40" yMin="0" xMax="328" yMax="840">
      <contour>
        <pt x="62" y="739" on="1"/>
        <pt x="148" y="840" on="1"/>
        <pt x="217" y="840" on="1"/>
        <pt x="304" y="739" on="1"/>
        <pt x="236" y="739" on="1"/>
        <pt x="182" y="799" on="1"/>
        <pt x="130" y="739" on="1"/>
      </contour>
      <contour>
        <pt x="289" y="320" on="1"/>
        <pt x="118" y="320" on="1"/>
        <pt x="118" y="71" on="1"/>
        <pt x="328" y="71" on="1"/>
        <pt x="328" y="0" on="1"/>
        <pt x="40" y="0" on="1"/>
        <pt x="40" y="700" on="1"/>
        <pt x="328" y="700" on="1"/>
        <pt x="328" y="629" on="1"/>
        <pt x="118" y="629" on="1"/>
        <pt x="118" y="390" on="1"/>
        <pt x="289" y="390" on="1"/>
      </contour>
    </TTGlyph>
    <TTGlyph name="edieresis" xMin="40" yMin="0" xMax="328" yMax="829">
      <contour>
        <pt x="155" y="739" on="1"/>
        <pt x="87" y="739" on="1"/>
        <pt x="87" y="829" on="1"/>
        <pt x="155" y="829" on="1"/>
      </contour>
      <contour>
        <pt x="279" y="739" on="1"/>
        <pt x="211" y="739" on="1"/>
        <pt x="211" y="829" on="1"/>
        <pt x="279" y="829" on="1"/>
      </contour>
      <contour>
        <pt x="289" y="320" on="1"/>
        <pt x="118" y="320" on="1"/>
        <pt x="118" y="71" on="1"/>
        <pt x="328" y="71" on="1"/>
        <pt x="328" y="0" on="1"/>
        <pt x="40" y="0" on="1"/>
        <pt x="40" y="700" on="1"/>
        <pt x="328" y="700" on="1"/>
        <pt x="328" y="629" on="1"/>
        <pt x="118" y="629" on="1"/>
        <pt x="118" y="390" on="1"/>
        <pt x="289" y="390" on="1"/>
      </contour>
    </TTGlyph>
    <TTGlyph name="edotaccent" xMin="40" yMin="0" xMax="328" yMax="830">
      <contour>
        <pt x="218" y="740" on="1"/>
        <pt x="150" y="740" on="1"/>
        <pt x="150" y="830" on="1"/>
        <pt x="218" y="830" on="1"/>
      </contour>
      <contour>
        <pt x="289" y="320" on="1"/>
        <pt x="118" y="320" on="1"/>
        <pt x="118" y="71" on="1"/>
        <pt x="328" y="71" on="1"/>
        <pt x="328" y="0" on="1"/>
        <pt x="40" y="0" on="1"/>
        <pt x="40" y="700" on="1"/>
        <pt x="328" y="700" on="1"/>
        <pt x="328" y="629" on="1"/>
        <pt x="118" y="629" on="1"/>
        <pt x="118" y="390" on="1"/>
        <pt x="289" y="390" on="1"/>
      </contour>
    </TTGlyph>
    <TTGlyph name="egrave" xMin="40" yMin="0" xMax="328" yMax="845">
      <contour>
        <pt x="236" y="742" on="1"/>
        <pt x="179" y="742" on="1"/>
        <pt x="86" y="845" on="1"/>
        <pt x="167" y="845" on="1"/>
      </contour>
      <contour>
        <pt x="289" y="320" on="1"/>
        <pt x="118" y="320" on="1"/>
        <pt x="118" y="71" on="1"/>
        <pt x="328" y="71" on="1"/>
        <pt x="328" y="0" on="1"/>
        <pt x="40" y="0" on="1"/>
        <pt x="40" y="700" on="1"/>
        <pt x="328" y="700" on="1"/>
        <pt x="328" y="629" on="1"/>
        <pt x="118" y="629" on="1"/>
        <pt x="118" y="390" on="1"/>
        <pt x="289" y="390" on="1"/>
      </contour>
    </TTGlyph>
    <TTGlyph name="eight" xMin="31" yMin="-7" xMax="361" yMax="707">
      <contour>
        <pt x="276" y="707" on="0"/>
        <pt x="361" y="616" on="0"/>
        <pt x="361" y="534" on="1"/>
        <pt x="361" y="512" on="1"/>
        <pt x="361" y="457" on="0"/>
        <pt x="321" y="383" on="0"/>
        <pt x="281" y="368" on="1"/>
        <pt x="361" y="336" on="0"/>
        <pt x="361" y="220" on="1"/>
        <pt x="361" y="168" on="1"/>
        <pt x="361" y="86" on="0"/>
        <pt x="276" y="-7" on="0"/>
        <pt x="196" y="-7" on="1"/>
        <pt x="116" y="-7" on="0"/>
        <pt x="31" y="86" on="0"/>
        <pt x="31" y="168" on="1"/>
        <pt x="31" y="220" on="1"/>
        <pt x="31" y="335" on="0"/>
        <pt x="112" y="368" on="1"/>
        <pt x="31" y="399" on="0"/>
        <pt x="31" y="512" on="1"/>
        <pt x="31" y="534" on="1"/>
        <pt x="31" y="616" on="0"/>
        <pt x="116" y="707" on="0"/>
        <pt x="196" y="707" on="1"/>
      </contour>
      <contour>
        <pt x="154" y="637" on="0"/>
        <pt x="108" y="585" on="0"/>
        <pt x="108" y="532" on="1"/>
        <pt x="108" y="498" on="1"/>
        <pt x="108" y="400" on="0"/>
        <pt x="196" y="400" on="1"/>
        <pt x="284" y="400" on="0"/>
        <pt x="284" y="498" on="1"/>
        <pt x="284" y="532" on="1"/>
        <pt x="284" y="585" on="0"/>
        <pt x="238" y="637" on="0"/>
        <pt x="196" y="637" on="1"/>
      </contour>
      <contour>
        <pt x="108" y="330" on="0"/>
        <pt x="108" y="229" on="1"/>
        <pt x="108" y="170" on="1"/>
        <pt x="108" y="117" on="0"/>
        <pt x="153" y="64" on="0"/>
        <pt x="196" y="64" on="1"/>
        <pt x="283" y="64" on="0"/>
        <pt x="284" y="170" on="1"/>
        <pt x="284" y="229" on="1"/>
        <pt x="284" y="330" on="0"/>
        <pt x="196" y="330" on="1"/>
      </contour>
    </TTGlyph>
    <TTGlyph name="eight.alt" xMin="31" yMin="-7" xMax="362" yMax="707">
      <contour>
        <pt x="277" y="707" on="0"/>
        <pt x="362" y="616" on="0"/>
        <pt x="362" y="534" on="1"/>
        <pt x="362" y="512" on="1"/>
        <pt x="362" y="457" on="0"/>
        <pt x="322" y="383" on="0"/>
        <pt x="282" y="368" on="1"/>
        <pt x="362" y="336" on="0"/>
        <pt x="362" y="220" on="1"/>
        <pt x="362" y="168" on="1"/>
        <pt x="362" y="86" on="0"/>
        <pt x="277" y="-7" on="0"/>
        <pt x="196" y="-7" on="1"/>
        <pt x="116" y="-7" on="0"/>
        <pt x="31" y="86" on="0"/>
        <pt x="31" y="168" on="1"/>
        <pt x="31" y="220" on="1"/>
        <pt x="31" y="334" on="0"/>
        <pt x="112" y="368" on="1"/>
        <pt x="31" y="400" on="0"/>
        <pt x="31" y="512" on="1"/>
        <pt x="31" y="534" on="1"/>
        <pt x="31" y="616" on="0"/>
        <pt x="116" y="707" on="0"/>
        <pt x="196" y="707" on="1"/>
      </contour>
      <contour>
        <pt x="154" y="637" on="0"/>
        <pt x="109" y="585" on="0"/>
        <pt x="109" y="532" on="1"/>
        <pt x="109" y="498" on="1"/>
        <pt x="109" y="400" on="0"/>
        <pt x="196" y="400" on="1"/>
        <pt x="284" y="400" on="0"/>
        <pt x="284" y="498" on="1"/>
        <pt x="284" y="532" on="1"/>
        <pt x="284" y="637" on="0"/>
        <pt x="196" y="637" on="1"/>
      </contour>
      <contour>
        <pt x="109" y="330" on="0"/>
        <pt x="109" y="229" on="1"/>
        <pt x="109" y="170" on="1"/>
        <pt x="109" y="117" on="0"/>
        <pt x="154" y="64" on="0"/>
        <pt x="196" y="64" on="1"/>
        <pt x="284" y="64" on="0"/>
        <pt x="284" y="170" on="1"/>
        <pt x="284" y="229" on="1"/>
        <pt x="284" y="330" on="0"/>
        <pt x="196" y="330" on="1"/>
      </contour>
    </TTGlyph>
    <TTGlyph name="ellipsis" xMin="40" yMin="0" xMax="339" yMax="97">
      <contour>
        <pt x="115" y="0" on="1"/>
        <pt x="40" y="0" on="1"/>
        <pt x="40" y="97" on="1"/>
        <pt x="115" y="97" on="1"/>
      </contour>
      <contour>
        <pt x="227" y="0" on="1"/>
        <pt x="152" y="0" on="1"/>
        <pt x="152" y="97" on="1"/>
        <pt x="227" y="97" on="1"/>
      </contour>
      <contour>
        <pt x="339" y="0" on="1"/>
        <pt x="264" y="0" on="1"/>
        <pt x="264" y="97" on="1"/>
        <pt x="339" y="97" on="1"/>
      </contour>
    </TTGlyph>
    <TTGlyph name="emacron" xMin="40" yMin="0" xMax="328" yMax="807">
      <contour>
        <pt x="286" y="752" on="1"/>
        <pt x="77" y="752" on="1"/>
        <pt x="77" y="807" on="1"/>
        <pt x="286" y="807" on="1"/>
      </contour>
      <contour>
        <pt x="289" y="320" on="1"/>
        <pt x="118" y="320" on="1"/>
        <pt x="118" y="71" on="1"/>
        <pt x="328" y="71" on="1"/>
        <pt x="328" y="0" on="1"/>
        <pt x="40" y="0" on="1"/>
        <pt x="40" y="700" on="1"/>
        <pt x="328" y="700" on="1"/>
        <pt x="328" y="629" on="1"/>
        <pt x="118" y="629" on="1"/>
        <pt x="118" y="390" on="1"/>
        <pt x="289" y="390" on="1"/>
      </contour>
    </TTGlyph>
    <TTGlyph name="emdash" xMin="13" yMin="318" xMax="820" yMax="382">
      <contour>
        <pt x="820" y="382" on="1"/>
        <pt x="820" y="318" on="1"/>
        <pt x="13" y="318" on="1"/>
        <pt x="13" y="382" on="1"/>
      </contour>
    </TTGlyph>
    <TTGlyph name="endash" xMin="13" yMin="318" xMax="445" yMax="382">
      <contour>
        <pt x="445" y="382" on="1"/>
        <pt x="445" y="318" on="1"/>
        <pt x="13" y="318" on="1"/>
        <pt x="13" y="382" on="1"/>
      </contour>
    </TTGlyph>
    <TTGlyph name="eogonek" xMin="40" yMin="-143" xMax="335" yMax="700">
      <contour>
        <pt x="289" y="320" on="1"/>
        <pt x="118" y="320" on="1"/>
        <pt x="118" y="71" on="1"/>
        <pt x="328" y="71" on="1"/>
        <pt x="328" y="0" on="1"/>
        <pt x="295" y="0" on="1"/>
        <pt x="277" y="-14" on="0"/>
        <pt x="258" y="-53" on="0"/>
        <pt x="258" y="-69" on="1"/>
        <pt x="259" y="-84" on="0"/>
        <pt x="280" y="-99" on="0"/>
        <pt x="296" y="-99" on="1"/>
        <pt x="309" y="-99" on="0"/>
        <pt x="325" y="-95" on="0"/>
        <pt x="335" y="-90" on="1"/>
        <pt x="335" y="-131" on="1"/>
        <pt x="308" y="-143" on="0"/>
        <pt x="274" y="-143" on="1"/>
        <pt x="239" y="-143" on="0"/>
        <pt x="199" y="-115" on="0"/>
        <pt x="198" y="-87" on="1"/>
        <pt x="198" y="-63" on="0"/>
        <pt x="231" y="-18" on="0"/>
        <pt x="259" y="0" on="1"/>
        <pt x="40" y="0" on="1"/>
        <pt x="40" y="700" on="1"/>
        <pt x="328" y="700" on="1"/>
        <pt x="328" y="629" on="1"/>
        <pt x="118" y="629" on="1"/>
        <pt x="118" y="390" on="1"/>
        <pt x="289" y="390" on="1"/>
      </contour>
    </TTGlyph>
    <TTGlyph name="equal" xMin="37" yMin="258" xMax="313" yMax="456">
      <contour>
        <pt x="313" y="400" on="1"/>
        <pt x="37" y="400" on="1"/>
        <pt x="37" y="456" on="1"/>
        <pt x="313" y="456" on="1"/>
      </contour>
      <contour>
        <pt x="313" y="258" on="1"/>
        <pt x="37" y="258" on="1"/>
        <pt x="37" y="314" on="1"/>
        <pt x="313" y="314" on="1"/>
      </contour>
    </TTGlyph>
    <TTGlyph name="eth" xMin="1" yMin="0" xMax="363" yMax="700">
      <contour>
        <pt x="284" y="700" on="0"/>
        <pt x="363" y="609" on="0"/>
        <pt x="363" y="526" on="1"/>
        <pt x="363" y="173" on="1"/>
        <pt x="363" y="91" on="0"/>
        <pt x="284" y="0" on="0"/>
        <pt x="204" y="0" on="1"/>
        <pt x="40" y="0" on="1"/>
        <pt x="40" y="318" on="1"/>
        <pt x="1" y="318" on="1"/>
        <pt x="1" y="381" on="1"/>
        <pt x="40" y="381" on="1"/>
        <pt x="40" y="700" on="1"/>
        <pt x="204" y="700" on="1"/>
      </contour>
      <contour>
        <pt x="118" y="318" on="1"/>
        <pt x="118" y="71" on="1"/>
        <pt x="203" y="71" on="1"/>
        <pt x="286" y="71" on="0"/>
        <pt x="286" y="170" on="1"/>
        <pt x="286" y="530" on="1"/>
        <pt x="286" y="629" on="0"/>
        <pt x="202" y="629" on="1"/>
        <pt x="118" y="629" on="1"/>
        <pt x="118" y="381" on="1"/>
        <pt x="197" y="381" on="1"/>
        <pt x="197" y="318" on="1"/>
      </contour>
    </TTGlyph>
    <TTGlyph name="exclam" xMin="40" yMin="0" xMax="118" yMax="700">
      <contour>
        <pt x="40" y="700" on="1"/>
        <pt x="118" y="700" on="1"/>
        <pt x="118" y="371" on="1"/>
        <pt x="108" y="155" on="1"/>
        <pt x="50" y="155" on="1"/>
        <pt x="40" y="371" on="1"/>
      </contour>
      <contour>
        <pt x="116" y="0" on="1"/>
        <pt x="41" y="0" on="1"/>
        <pt x="41" y="97" on="1"/>
        <pt x="116" y="97" on="1"/>
      </contour>
    </TTGlyph>
    <TTGlyph name="exclamdown" xMin="40" yMin="0" xMax="118" yMax="700">
      <contour>
        <pt x="116" y="604" on="1"/>
        <pt x="41" y="604" on="1"/>
        <pt x="41" y="700" on="1"/>
        <pt x="116" y="700" on="1"/>
      </contour>
      <contour>
        <pt x="50" y="545" on="1"/>
        <pt x="108" y="545" on="1"/>
        <pt x="118" y="309" on="1"/>
        <pt x="118" y="0" on="1"/>
        <pt x="40" y="0" on="1"/>
        <pt x="40" y="309" on="1"/>
      </contour>
    </TTGlyph>
    <TTGlyph name="f" xMin="40" yMin="0" xMax="318" yMax="700">
      <contour>
        <pt x="279" y="303" on="1"/>
        <pt x="118" y="303" on="1"/>
        <pt x="118" y="0" on="1"/>
        <pt x="40" y="0" on="1"/>
        <pt x="40" y="700" on="1"/>
        <pt x="318" y="700" on="1"/>
        <pt x="318" y="629" on="1"/>
        <pt x="118" y="629" on="1"/>
        <pt x="118" y="374" on="1"/>
        <pt x="279" y="374" on="1"/>
      </contour>
    </TTGlyph>
    <TTGlyph name="figuredash" xMin="13" yMin="318" xMax="412" yMax="382">
      <contour>
        <pt x="412" y="382" on="1"/>
        <pt x="412" y="318" on="1"/>
        <pt x="13" y="318" on="1"/>
        <pt x="13" y="382" on="1"/>
      </contour>
    </TTGlyph>
    <TTGlyph name="five" xMin="37" yMin="-7" xMax="352" yMax="700">
      <contour>
        <pt x="152" y="473" on="0"/>
        <pt x="222" y="473" on="1"/>
        <pt x="287" y="473" on="0"/>
        <pt x="352" y="385" on="0"/>
        <pt x="352" y="307" on="1"/>
        <pt x="352" y="170" on="1"/>
        <pt x="352" y="87" on="0"/>
        <pt x="272" y="-7" on="0"/>
        <pt x="194" y="-7" on="1"/>
        <pt x="116" y="-7" on="0"/>
        <pt x="37" y="87" on="0"/>
        <pt x="37" y="170" on="1"/>
        <pt x="37" y="217" on="1"/>
        <pt x="110" y="217" on="1"/>
        <pt x="110" y="165" on="1"/>
        <pt x="110" y="117" on="0"/>
        <pt x="151" y="64" on="0"/>
        <pt x="192" y="64" on="1"/>
        <pt x="233" y="64" on="0"/>
        <pt x="274" y="117" on="0"/>
        <pt x="274" y="165" on="1"/>
        <pt x="274" y="301" on="1"/>
        <pt x="274" y="349" on="0"/>
        <pt x="233" y="402" on="0"/>
        <pt x="192" y="402" on="1"/>
        <pt x="159" y="402" on="0"/>
        <pt x="118" y="365" on="0"/>
        <pt x="113" y="327" on="1"/>
        <pt x="113" y="311" on="1"/>
        <pt x="40" y="311" on="1"/>
        <pt x="59" y="700" on="1"/>
        <pt x="335" y="700" on="1"/>
        <pt x="335" y="630" on="1"/>
        <pt x="129" y="630" on="1"/>
        <pt x="118" y="415" on="1"/>
      </contour>
    </TTGlyph>
    <TTGlyph name="five.alt" xMin="32" yMin="-7" xMax="347" yMax="700">
      <contour>
        <pt x="147" y="473" on="0"/>
        <pt x="218" y="473" on="1"/>
        <pt x="283" y="473" on="0"/>
        <pt x="347" y="385" on="0"/>
        <pt x="347" y="307" on="1"/>
        <pt x="347" y="170" on="1"/>
        <pt x="347" y="87" on="0"/>
        <pt x="268" y="-7" on="0"/>
        <pt x="189" y="-7" on="1"/>
        <pt x="111" y="-7" on="0"/>
        <pt x="32" y="87" on="0"/>
        <pt x="32" y="170" on="1"/>
        <pt x="32" y="217" on="1"/>
        <pt x="105" y="217" on="1"/>
        <pt x="105" y="165" on="1"/>
        <pt x="105" y="117" on="0"/>
        <pt x="146" y="64" on="0"/>
        <pt x="187" y="64" on="1"/>
        <pt x="269" y="64" on="0"/>
        <pt x="269" y="165" on="1"/>
        <pt x="269" y="301" on="1"/>
        <pt x="269" y="402" on="0"/>
        <pt x="187" y="402" on="1"/>
        <pt x="154" y="402" on="0"/>
        <pt x="113" y="364" on="0"/>
        <pt x="109" y="327" on="1"/>
        <pt x="109" y="311" on="1"/>
        <pt x="35" y="311" on="1"/>
        <pt x="55" y="700" on="1"/>
        <pt x="331" y="700" on="1"/>
        <pt x="331" y="630" on="1"/>
        <pt x="124" y="630" on="1"/>
        <pt x="113" y="415" on="1"/>
      </contour>
    </TTGlyph>
    <TTGlyph name="fiveeighths" xMin="38" yMin="-5" xMax="592" yMax="700">
      <contour>
        <pt x="472" y="700" on="1"/>
        <pt x="196" y="0" on="1"/>
        <pt x="149" y="0" on="1"/>
        <pt x="425" y="700" on="1"/>
      </contour>
      <contour>
        <pt x="112" y="555" on="0"/>
        <pt x="157" y="555" on="1"/>
        <pt x="198" y="555" on="0"/>
        <pt x="239" y="499" on="0"/>
        <pt x="239" y="449" on="1"/>
        <pt x="239" y="362" on="1"/>
        <pt x="239" y="309" on="0"/>
        <pt x="188" y="249" on="0"/>
        <pt x="138" y="249" on="1"/>
        <pt x="88" y="249" on="0"/>
        <pt x="38" y="309" on="0"/>
        <pt x="38" y="362" on="1"/>
        <pt x="38" y="392" on="1"/>
        <pt x="86" y="392" on="1"/>
        <pt x="86" y="359" on="1"/>
        <pt x="86" y="296" on="0"/>
        <pt x="137" y="296" on="1"/>
        <pt x="188" y="296" on="0"/>
        <pt x="188" y="359" on="1"/>
        <pt x="188" y="445" on="1"/>
        <pt x="188" y="475" on="0"/>
        <pt x="163" y="508" on="0"/>
        <pt x="137" y="508" on="1"/>
        <pt x="117" y="508" on="0"/>
        <pt x="90" y="484" on="0"/>
        <pt x="88" y="461" on="1"/>
        <pt x="88" y="451" on="1"/>
        <pt x="40" y="451" on="1"/>
        <pt x="53" y="699" on="1"/>
        <pt x="228" y="699" on="1"/>
        <pt x="228" y="653" on="1"/>
        <pt x="97" y="653" on="1"/>
        <pt x="91" y="520" on="1"/>
      </contour>
      <contour>
        <pt x="537" y="449" on="0"/>
        <pt x="592" y="391" on="0"/>
        <pt x="592" y="339" on="1"/>
        <pt x="592" y="324" on="1"/>
        <pt x="592" y="255" on="0"/>
        <pt x="543" y="233" on="1"/>
        <pt x="592" y="211" on="0"/>
        <pt x="592" y="139" on="1"/>
        <pt x="592" y="106" on="1"/>
        <pt x="592" y="54" on="0"/>
        <pt x="538" y="-5" on="0"/>
        <pt x="486" y="-5" on="1"/>
        <pt x="435" y="-5" on="0"/>
        <pt x="381" y="54" on="0"/>
        <pt x="381" y="106" on="1"/>
        <pt x="381" y="139" on="1"/>
        <pt x="381" y="210" on="0"/>
        <pt x="429" y="233" on="1"/>
        <pt x="381" y="255" on="0"/>
        <pt x="381" y="324" on="1"/>
        <pt x="381" y="339" on="1"/>
        <pt x="381" y="391" on="0"/>
        <pt x="436" y="449" on="0"/>
        <pt x="486" y="449" on="1"/>
      </contour>
      <contour>
        <pt x="431" y="403" on="0"/>
        <pt x="431" y="337" on="1"/>
        <pt x="431" y="316" on="1"/>
        <pt x="431" y="254" on="0"/>
        <pt x="486" y="254" on="1"/>
        <pt x="541" y="254" on="0"/>
        <pt x="541" y="316" on="1"/>
        <pt x="541" y="337" on="1"/>
        <pt x="541" y="403" on="0"/>
        <pt x="486" y="403" on="1"/>
      </contour>
      <contour>
        <pt x="431" y="208" on="0"/>
        <pt x="431" y="145" on="1"/>
        <pt x="431" y="107" on="1"/>
        <pt x="431" y="41" on="0"/>
        <pt x="486" y="41" on="1"/>
        <pt x="541" y="41" on="0"/>
        <pt x="541" y="107" on="1"/>
        <pt x="541" y="145" on="1"/>
        <pt x="541" y="208" on="0"/>
        <pt x="486" y="208" on="1"/>
      </contour>
    </TTGlyph>
</ttFont>
